SplineFontDB: 2.0
FontName: Umpush-BoldOblique
FullName: Umpush Bold Oblique
FamilyName: Umpush
Weight: Bold
Copyright: Copyright (c) NECTEC, 2003. All rights reserved.\nModified under GNU General Public License by TLWG.
Version: 0.9.7: 2007-04-13
ItalicAngle: -10
UnderlinePosition: -170
UnderlineWidth: 10
Ascent: 1638
Descent: 410
Order2: 1
NeedsXUIDChange: 1
FSType: 0
OS2Version: 0
OS2_WeightWidthSlopeOnly: 0
OS2_UseTypoMetrics: 0
CreationTime: 1153662462
ModificationTime: 1182314500
PfmFamily: 33
TTFWeight: 700
TTFWidth: 5
LineGap: 0
VLineGap: 0
Panose: 2 11 6 4 2 2 2 2 2 4
OS2TypoAscent: 0
OS2TypoAOffset: 1
OS2TypoDescent: 0
OS2TypoDOffset: 1
OS2TypoLinegap: 0
OS2WinAscent: 0
OS2WinAOffset: 1
OS2WinDescent: 0
OS2WinDOffset: 1
HheadAscent: 0
HheadAOffset: 1
HheadDescent: 0
HheadDOffset: 1
OS2SubXSize: -17396
OS2SubYSize: -11016
OS2SubXOff: 13787
OS2SubYOff: 2000
OS2SupXSize: -11172
OS2SupYSize: 3
OS2SupXOff: 4916
OS2SupYOff: 24828
OS2StrikeYSize: 12944
OS2StrikeYPos: 90
OS2Vendor: 'PfEd'
Lookup: 6 0 0 "'ccmp' Glyph Composition/Decomposition in Thai lookup 0"  {"'ccmp' Glyph Composition/Decomposition in Thai lookup 0"  } ['ccmp' ('thai' <'KUY ' 'PAL ' 'THA ' 'dflt' > ) ]
Lookup: 6 0 0 "'ccmp' Glyph Composition/Decomposition in Thai lookup 1"  {"'ccmp' Glyph Composition/Decomposition in Thai lookup 1"  } ['ccmp' ('thai' <'KUY ' 'PAL ' 'THA ' 'dflt' > ) ]
Lookup: 5 0 0 "Required Feature in Thai lookup 2"  {"Required Feature in Thai lookup 2"  } [' RQD' ('thai' <'PAL ' > ) ]
Lookup: 1 0 0 "Single Substitution lookup 3"  {"Single Substitution lookup 3"  } []
Lookup: 2 0 0 "Multiple Substitution lookup 4"  {"Multiple Substitution lookup 4"  } []
Lookup: 1 0 0 "Single Substitution lookup 5"  {"Single Substitution lookup 5"  } []
Lookup: 2 0 0 "Multiple Substitution lookup 6"  {"Multiple Substitution lookup 6"  } []
Lookup: 1 0 0 "Single Substitution lookup 7"  {"Single Substitution lookup 7"  } []

StartChar: .notdef
Encoding: 65536 -1 0
Width: 1536
Flags: HW
HStem: 0 32<288 1248> 1248 32<288 1248>
VStem: 256 32<32 1248> 1248 32<32 1248>
Fore
256 0 m 1,0,-1
 481.698 1280 l 1,1,-1
 1505.7 1280 l 1,2,-1
 1280 0 l 1,3,-1
 256 0 l 1,0,-1
293.643 32 m 1,4,-1
 1253.64 32 l 1,5,-1
 1468.06 1248 l 1,6,-1
 508.056 1248 l 1,7,-1
 293.643 32 l 1,4,-1
EndSplineSet
EndChar
StartChar: uni0E4D.high
Encoding: 63262 63262 2
Width: 0
VWidth: 2558
Flags: HW
TeX: 0 0 0 0
HStem: 1725 72<-302 -222.7> 1953 74<-310.1 -221.7>
VStem: -412 69<1835 1914.3> -183 70<1837.6 1919.5>
AnchorPoint: "AboveMark" 44.957 1739.3 mark 0
Fore
96.415 2027 m 0,0,1
 157.415 2027 157.415 2027 193.48 1982 c 0,2,3
 228.722 1938 228.722 1938 217.437 1874 c 0,4,5
 206.681 1813 206.681 1813 154.923 1769 c 0,6,7
 101.164 1725 101.164 1725 43.1641 1725 c 0,8,9
 -16.8359 1725 -16.8359 1725 -55.0771 1769 c 0,10,11
 -92.6719 1811 -92.6719 1811 -81.5635 1874 c 0,12,13
 -70.6309 1936 -70.6309 1936 -17.5195 1982 c 0,14,15
 33.415 2027 33.415 2027 96.415 2027 c 0,0,1
53.8594 1797 m 0,16,17
 84.8594 1797 84.8594 1797 114.268 1822 c 0,18,19
 142.5 1846 142.5 1846 147.437 1874 c 0,20,21
 153.608 1909 153.608 1909 134.312 1930 c 0,22,23
 113.366 1953 113.366 1953 82.3662 1953 c 0,24,25
 45.3662 1953 45.3662 1953 20.3115 1930 c 0,26,27
 -7.09668 1905 -7.09668 1905 -12.5635 1874 c 0,28,29
 -17.8535 1844 -17.8535 1844 1.91504 1820 c 0,30,31
 23.8594 1797 23.8594 1797 53.8594 1797 c 0,16,17
EndSplineSet
EndChar
StartChar: exclam
Encoding: 33 33 5
Width: 569
Flags: HW
HStem: 0 194<177 400> 1430 20G<169 408>
VStem: 169 239<910.471 1450> 177 223<0 194>
Fore
345.15 999 m 1,0,-1
 424.674 1450 l 1,1,-1
 663.674 1450 l 1,2,-1
 584.15 999 l 1,3,-1
 429.359 365 l 1,4,-1
 277.359 365 l 1,5,-1
 345.15 999 l 1,0,-1
211.207 194 m 1,6,-1
 434.207 194 l 1,7,-1
 400 0 l 1,8,-1
 177 0 l 1,9,-1
 211.207 194 l 1,6,-1
EndSplineSet
EndChar
StartChar: quotedbl
Encoding: 34 34 6
Width: 727
Flags: HW
HStem: 1430 20G<106 336 389 619>
VStem: 106 230<1183.82 1450> 389 230<1182.44 1450>
Fore
322.981 947 m 1,0,-1
 320.59 1217 l 1,1,-1
 361.674 1450 l 1,2,-1
 591.674 1450 l 1,3,-1
 550.59 1217 l 1,4,-1
 457.981 947 l 1,5,-1
 322.981 947 l 1,0,-1
603.981 947 m 1,6,-1
 603.59 1217 l 1,7,-1
 644.674 1450 l 1,8,-1
 874.674 1450 l 1,9,-1
 833.59 1217 l 1,10,-1
 738.981 947 l 1,11,-1
 603.981 947 l 1,6,-1
EndSplineSet
EndChar
StartChar: numbersign
Encoding: 35 35 7
Width: 1139
Flags: HW
HStem: -10 21G<57 297 516 763> 355 240<21 144 414 602 872 1113> 865 240<21 248 518 698 977 1113> 1450 20G<365 605 824 1064>
Fore
55.2363 -10 m 1,0,-1
 206.596 355 l 1,1,-1
 83.5957 355 l 1,2,-1
 125.914 595 l 1,3,-1
 287.914 595 l 1,4,-1
 400.522 865 l 1,5,-1
 173.522 865 l 1,6,-1
 215.842 1105 l 1,7,-1
 472.842 1105 l 1,8,-1
 624.201 1470 l 1,9,-1
 864.201 1470 l 1,10,-1
 712.842 1105 l 1,11,-1
 931.842 1105 l 1,12,-1
 1083.2 1470 l 1,13,-1
 1323.2 1470 l 1,14,-1
 1171.84 1105 l 1,15,-1
 1307.84 1105 l 1,16,-1
 1265.52 865 l 1,17,-1
 1090.35 864 l 1,18,-1
 976.914 595 l 1,19,-1
 1217.91 595 l 1,20,-1
 1175.6 355 l 1,21,-1
 904.596 355 l 1,22,-1
 761.236 -10 l 1,23,-1
 514.236 -10 l 1,24,-1
 664.596 355 l 1,25,-1
 446.596 355 l 1,26,-1
 295.236 -10 l 1,27,-1
 55.2363 -10 l 1,0,-1
518.914 595 m 1,28,-1
 736.914 595 l 1,29,-1
 850.522 865 l 1,30,-1
 631.522 865 l 1,31,-1
 518.914 595 l 1,28,-1
EndSplineSet
EndChar
StartChar: dollar
Encoding: 36 36 8
Width: 1139
Flags: HW
VStem: 106 210<986.354 1093.15> 462 202<-118 -37 153 599 840 1239 1429 1488> 830 212<262.5 467.851>
Fore
455.476 -37 m 1,0,1
 383.062 -28 383.062 -28 328.942 -6 c 0,2,3
 117.106 80 117.106 80 139.656 344 c 2,4,-1
 149.528 417 l 1,5,-1
 358.528 417 l 1,6,-1
 355.531 400 l 2,7,8
 343.364 331 343.364 331 354.077 284 c 0,9,10
 374.384 195 374.384 195 488.979 153 c 1,11,-1
 571.499 621 l 1,12,13
 461.378 643 461.378 643 387.192 710 c 0,14,15
 252.087 828.5 252.087 828.5 287.793 1031 c 0,16,17
 311.598 1166 311.598 1166 391.877 1264 c 0,18,19
 512.621 1410 512.621 1410 713.972 1429 c 1,20,-1
 724.375 1488 l 1,21,-1
 926.375 1488 l 1,22,-1
 915.972 1429 l 1,23,24
 1231.62 1393 1231.62 1393 1193.14 1050 c 1,25,-1
 990.144 1050 l 1,26,27
 992.609 1081 992.609 1081 984.781 1116 c 0,28,29
 964.355 1210 964.355 1210 882.469 1239 c 1,30,-1
 808.588 820 l 1,31,32
 912.062 800 912.062 800 979.127 755 c 0,33,34
 1155.03 641 1155.03 641 1112 397 c 0,35,36
 1081.5 224 1081.5 224 964.515 105 c 0,37,38
 835.769 -24 835.769 -24 657.828 -35 c 1,39,-1
 643.193 -118 l 1,40,-1
 441.193 -118 l 1,41,-1
 455.476 -37 l 1,0,1
680.822 1241 m 1,42,43
 660.116 1237 660.116 1237 650.588 1234 c 0,44,45
 548.769 1201 548.769 1201 511.373 1091 c 2,46,-1
 500.085 1044 l 2,47,48
 495.501 1018 495.501 1018 496.15 999 c 0,49,50
 494.578 888 494.578 888 610.114 840 c 1,51,-1
 680.822 1241 l 1,42,43
733.446 167 m 1,52,-1
 773.797 186 l 2,53,54
 872.848 243 872.848 243 898.062 386 c 0,55,56
 904.763 424 904.763 424 902.758 458 c 2,57,-1
 897.282 495 l 2,58,59
 876.506 570 876.506 570 769.62 599 c 1,60,-1
 690.979 153 l 1,61,-1
 733.446 167 l 1,52,-1
EndSplineSet
EndChar
StartChar: percent
Encoding: 37 37 9
Width: 1821
Flags: HW
HStem: -53 177<1335.5 1429.1> 546 175<1330.3 1427.8> 717 169<388.1 476.5> 1317 174<382.9 476.5>
VStem: 119 191<987.779 1209.53> 554 191<990.647 1214.66> 1067 190<224.802 443.612> 1507 189<226.729 444.668>
Fore
315.429 1114 m 0,0,1
 343.288 1272 343.288 1272 440.331 1380 c 0,2,3
 538.903 1491 538.903 1491 688.903 1491 c 0,4,5
 832.903 1491 832.903 1491 900.447 1392 c 0,6,7
 972.197 1288.5 972.197 1288.5 939.665 1104 c 0,8,9
 907.632 928 907.632 928 798.06 817 c 0,10,11
 695.427 717 695.427 717 554.427 717 c 0,12,13
 418.427 717 418.427 717 351.706 815 c 0,14,15
 281.045 919 281.045 919 315.429 1114 c 0,0,1
663.223 1317 m 0,16,17
 609.223 1317 609.223 1317 568.936 1270 c 0,18,19
 524.59 1217 524.59 1217 503.254 1096 c 0,20,21
 482.801 980 482.801 980 510.513 933 c 0,22,23
 537.226 886 537.226 886 587.226 886 c 0,24,25
 640.226 886 640.226 886 683.513 933 c 0,26,27
 727.153 982 727.153 982 749.194 1107 c 0,28,29
 769.647 1223 769.647 1223 742.936 1270 c 128,-1,30
 716.223 1317 716.223 1317 663.223 1317 c 0,16,17
1432.9 1491 m 1,31,-1
 1709.9 1491 l 1,32,-1
 686.236 -10 l 1,33,-1
 409.236 -10 l 1,34,-1
 1432.9 1491 l 1,31,-1
1127.66 344 m 0,35,36
 1155.52 502 1155.52 502 1252.56 610 c 0,37,38
 1351.63 721 1351.63 721 1503.13 721 c 0,39,40
 1645.63 721 1645.63 721 1713.68 622 c 0,41,42
 1786.98 516 1786.98 516 1754.89 334 c 0,43,44
 1722.98 153 1722.98 153 1612.29 47 c 0,45,46
 1506.65 -53 1506.65 -53 1366.65 -53 c 128,-1,47
 1226.65 -53 1226.65 -53 1163.11 46 c 0,48,49
 1093.8 152 1093.8 152 1127.66 344 c 0,35,36
1477.27 546 m 0,50,51
 1419.27 546 1419.27 546 1378.99 499 c 0,52,53
 1336.17 449 1336.17 449 1315.01 329 c 0,54,55
 1295.44 218 1295.44 218 1323.15 171 c 128,-1,56
 1350.86 124 1350.86 124 1402.86 124 c 0,57,58
 1457.86 124 1457.86 124 1502.15 171 c 0,59,60
 1545.44 218 1545.44 218 1566.95 340 c 0,61,62
 1586.79 452.5 1586.79 452.5 1558.99 499 c 0,63,64
 1531.27 546 1531.27 546 1477.27 546 c 0,50,51
EndSplineSet
EndChar
StartChar: ampersand
Encoding: 38 38 10
Width: 1366
Flags: HW
HStem: -21 206<467.802 617.565>
VStem: 88 239<336.9 511.1>
Fore
972.686 140 m 1,0,1
 939.22 109 939.22 109 897.635 83 c 0,2,3
 746.708 -13 746.708 -13 572.121 -22 c 2,4,-1
 505.297 -21 l 2,5,6
 311.59 -8 311.59 -8 217.394 127 c 0,7,8
 132.435 252 132.435 252 159.06 403 c 0,9,10
 211.781 702 211.781 702 557.23 852 c 1,11,12
 532.578 888 532.578 888 514.397 921 c 0,13,14
 454.322 1034 454.322 1034 477.068 1163 c 0,15,16
 501.666 1302.5 501.666 1302.5 623.329 1397 c 0,17,18
 745.903 1491 745.903 1491 899.903 1491 c 0,19,20
 1016.9 1491 1016.9 1491 1094.32 1431 c 2,21,-1
 1124.39 1403 l 2,22,23
 1208.52 1313 1208.52 1313 1184.71 1178 c 0,24,25
 1182.07 1163 1182.07 1163 1179.83 1156 c 0,26,27
 1133.86 952 1133.86 952 864.765 821 c 1,28,-1
 1018.04 522 l 1,29,30
 1078.03 607 1078.03 607 1123.19 727 c 1,31,-1
 1335.44 649 l 1,32,33
 1262.34 484 1262.34 484 1157.95 357 c 1,34,35
 1235.85 226 1235.85 226 1347.28 132 c 1,36,-1
 1161.19 -67 l 1,37,38
 1065.88 5 1065.88 5 972.686 140 c 1,0,1
782.329 983 m 1,39,40
 835.737 1008 835.737 1008 867.498 1035 c 0,41,42
 922.609 1081 922.609 1081 943.479 1171 c 1,43,44
 945.832 1173 945.832 1173 944.36 1176 c 1,45,46
 949.826 1207 949.826 1207 938.234 1232 c 0,47,48
 916.404 1284 916.404 1284 853.757 1286 c 0,49,50
 815.757 1286 815.757 1286 782.701 1263 c 0,51,52
 732.529 1228 732.529 1228 719.537 1177 c 2,53,-1
 717.773 1167 l 2,54,55
 703.491 1086 703.491 1086 782.329 983 c 1,39,40
648.315 671 m 1,56,57
 609.612 650 609.612 650 572.381 626 c 0,58,59
 419.748 526 419.748 526 399.471 411 c 0,60,61
 384.307 325 384.307 325 428.61 253 c 0,62,63
 450.263 217 450.263 217 489.441 201 c 0,64,65
 524.62 185 524.62 185 572.62 185 c 0,66,67
 629.62 185 629.62 185 689.5 207 c 0,68,69
 798.377 246 798.377 246 857.482 326 c 1,70,-1
 648.315 671 l 1,56,57
EndSplineSet
EndChar
StartChar: quotesingle
Encoding: 39 39 11
Width: 391
Flags: HW
HStem: 1446 20G<61 324>
VStem: 61 263<1185.93 1466>
Fore
273.981 947 m 1,0,-1
 276.295 1221 l 1,1,-1
 319.495 1466 l 1,2,-1
 582.495 1466 l 1,3,-1
 539.295 1221 l 1,4,-1
 442.981 947 l 1,5,-1
 273.981 947 l 1,0,-1
EndSplineSet
EndChar
StartChar: parenleft
Encoding: 40 40 12
Width: 682
Flags: HW
VStem: 81 276<360.7 768>
Fore
360.003 -431 m 1,0,1
 201.495 -173 201.495 -173 164.804 135 c 0,2,3
 139.981 334.5 139.981 334.5 174.63 531 c 0,4,5
 238.637 894 238.637 894 465.18 1209 c 0,6,7
 558.102 1339 558.102 1339 698.903 1491 c 1,8,-1
 918.903 1491 l 1,9,10
 741.819 1258 741.819 1258 665.25 1130 c 0,11,12
 514.815 878 514.815 878 453.804 549 c 2,13,-1
 450.453 530 l 2,14,15
 365.816 50 365.816 50 580.003 -431 c 1,16,-1
 360.003 -431 l 1,0,1
EndSplineSet
EndChar
StartChar: parenright
Encoding: 41 41 13
Width: 682
Flags: HW
VStem: 378 278<208.6 759.8>
Fore
225.003 -431 m 1,0,-1
 3.00293 -431 l 1,1,2
 386.816 50 386.816 50 471.453 530 c 0,3,4
 527.701 849 527.701 849 474.431 1097 c 0,5,6
 452.298 1204 452.298 1204 341.903 1491 c 1,7,-1
 563.903 1491 l 1,8,9
 709.94 1236 709.94 1236 751.206 1022 c 0,10,11
 796.532 797 796.532 797 749.63 531 c 0,12,13
 683.859 158 683.859 158 412.147 -209 c 0,14,15
 321.812 -330 321.812 -330 225.003 -431 c 1,0,-1
EndSplineSet
EndChar
StartChar: asterisk
Encoding: 42 42 14
Width: 797
Flags: HW
HStem: 858 633<306 510>
VStem: 303 185<1263.3 1491>
Fore
272.36 1176 m 1,0,-1
 346.275 1357 l 1,1,-1
 503.401 1301 l 2,2,3
 518.344 1295 518.344 1295 536.404 1284 c 1,4,5
 539.983 1344 539.983 1344 549.682 1399 c 2,6,-1
 568.903 1491 l 1,7,-1
 745.903 1491 l 1,8,-1
 725.865 1349 l 2,9,10
 718.046 1316 718.046 1316 708.051 1282 c 1,11,12
 773.518 1313 773.518 1313 905.57 1353 c 2,13,-1
 927.805 1360 l 1,14,-1
 928.89 1179 l 1,15,16
 805.013 1140 805.013 1140 736.426 1131 c 2,17,-1
 711.896 1128 l 1,18,19
 752.667 1087 752.667 1087 828.508 967 c 2,20,-1
 831.627 962 l 1,21,-1
 661.289 858 l 1,22,23
 615.924 941 615.924 941 575.557 1041 c 1,24,25
 514.216 954 514.216 954 436.229 869 c 2,26,-1
 428.994 862 l 1,27,-1
 296.685 968 l 1,28,29
 433.018 1106 433.018 1106 471.308 1136 c 1,30,-1
 307.773 1167 l 2,31,32
 284.832 1173 284.832 1173 272.36 1176 c 1,0,-1
EndSplineSet
EndChar
StartChar: plus
Encoding: 43 43 15
Width: 1196
Flags: HW
HStem: 611 226<114 483 713 1082>
VStem: 483 230<237 611 837 1206>
Fore
524.789 237 m 1,0,-1
 590.735 611 l 1,1,-1
 221.735 611 l 1,2,-1
 261.586 837 l 1,3,-1
 630.586 837 l 1,4,-1
 695.65 1206 l 1,5,-1
 925.65 1206 l 1,6,-1
 860.586 837 l 1,7,-1
 1229.59 837 l 1,8,-1
 1189.74 611 l 1,9,-1
 820.735 611 l 1,10,-1
 754.789 237 l 1,11,-1
 524.789 237 l 1,0,-1
EndSplineSet
EndChar
StartChar: comma
Encoding: 44 44 16
Width: 569
Flags: HW
VStem: 122 297<-22 231>
Fore
118.121 -22 m 1,0,-1
 162.731 231 l 1,1,-1
 459.731 231 l 1,2,-1
 415.121 -22 l 2,3,4
 387.438 -179 387.438 -179 305.624 -246 c 0,5,6
 272.099 -274.5 272.099 -274.5 215.102 -300 c 1,7,-1
 74.5 -207 l 1,8,9
 165.024 -170 165.024 -170 213.483 -88 c 0,10,11
 232.537 -56.5 232.537 -56.5 240.121 -22 c 1,12,-1
 118.121 -22 l 1,0,-1
EndSplineSet
EndChar
StartChar: hyphen
Encoding: 45 45 17
Width: 682
Flags: HW
HStem: 388 266<65 618>
Fore
133.415 388 m 1,0,-1
 180.317 654 l 1,1,-1
 733.318 654 l 1,2,-1
 686.415 388 l 1,3,-1
 133.415 388 l 1,0,-1
EndSplineSet
EndChar
StartChar: period
Encoding: 46 46 18
Width: 569
Flags: HW
HStem: 0 220<154 430>
VStem: 154 276<0 220>
Fore
154 0 m 1,0,-1
 192.792 220 l 1,1,-1
 468.792 220 l 1,2,-1
 430 0 l 1,3,-1
 154 0 l 1,0,-1
EndSplineSet
EndChar
StartChar: slash
Encoding: 47 47 19
Width: 595
Flags: HW
HStem: -10 21G<-110 130> 1450 20G<477 716>
VStem: -110 826<-10 1470>
Fore
-111.764 -10 m 1,0,-1
 736.201 1470 l 1,1,-1
 975.201 1470 l 1,2,-1
 128.236 -10 l 1,3,-1
 -111.764 -10 l 1,0,-1
EndSplineSet
EndChar
StartChar: zero
Encoding: 48 48 20
Width: 1139
Flags: HW
VStem: 86 254<320.3 950.311> 781 259<526.7 981.358>
Fore
215.776 736 m 0,0,1
 255.627 962 255.627 962 322.604 1115 c 0,2,3
 483.316 1482 483.316 1482 824.316 1482 c 0,4,5
 875.316 1482 875.316 1482 920.729 1473 c 0,6,7
 1286.86 1400 1286.86 1400 1169.78 736 c 0,8,9
 1127.46 496 1127.46 496 1052.42 337 c 0,10,11
 893.705 4 893.705 4 561.236 -10 c 0,12,13
 536.236 -10 536.236 -10 524.413 -9 c 0,14,15
 89.5264 20 89.5264 20 215.776 736 c 0,0,1
469.601 735 m 0,16,17
 385.316 257 385.316 257 605.316 257 c 0,18,19
 633.669 259 633.669 259 647.197 262 c 0,20,21
 834.956 306 834.956 306 910.601 735 c 0,22,23
 916.243 767 916.243 767 923.765 821 c 0,24,25
 972.885 1213 972.885 1213 772.885 1213 c 0,26,27
 703.885 1213 703.885 1213 650.479 1171 c 0,28,29
 529.728 1076 529.728 1076 469.601 735 c 0,16,17
EndSplineSet
EndChar
StartChar: one
Encoding: 49 49 21
Width: 1139
Flags: HW
HStem: 0 21G<525 763> 1452 20G<525 763>
VStem: 525 238<0 1045>
Fore
763 0 m 1,0,-1
 525 0 l 1,1,-1
 709.262 1045 l 1,2,3
 579.397 921 579.397 921 441.875 867 c 0,4,5
 402.055 851 402.055 851 371.82 844 c 1,6,-1
 417.665 1104 l 1,7,8
 566.126 1169 566.126 1169 645.938 1253 c 0,9,10
 724.396 1335 724.396 1335 784.554 1472 c 1,11,-1
 1022.55 1472 l 1,12,-1
 763 0 l 1,0,-1
EndSplineSet
EndChar
StartChar: two
Encoding: 50 50 22
Width: 1139
Flags: HW
HStem: 0 223<382 1031> 1273 209<524.992 629.928>
VStem: 794 235<995.618 1146>
Fore
1070.32 223 m 1,0,-1
 1031 0 l 1,1,-1
 62 0 l 1,2,3
 105.799 169 105.799 169 243.541 332 c 0,4,5
 298.178 398 298.178 398 359.347 450 c 0,6,7
 407.576 491 407.576 491 660.255 682 c 0,8,9
 740.835 742 740.835 742 758.832 759 c 0,10,11
 918.989 896 918.989 896 963.032 1004 c 0,12,13
 977.557 1041 977.557 1041 983.375 1074 c 2,14,-1
 984.257 1079 l 2,15,16
 1000.71 1178 1000.71 1178 911.116 1237 c 0,17,18
 855.288 1272 855.288 1272 792.464 1273 c 2,19,-1
 749.759 1269 l 2,20,21
 641.585 1251 641.585 1251 575.655 1172 c 2,22,-1
 551.836 1139 l 2,23,24
 526.607 1098 526.607 1098 514.204 1039 c 1,25,-1
 279.204 1039 l 1,26,27
 315.351 1244 315.351 1244 475.039 1367 c 0,28,29
 625.316 1482 625.316 1482 833.316 1482 c 0,30,31
 1045.32 1482 1045.32 1482 1150.69 1365 c 0,32,33
 1250.29 1255 1250.29 1255 1218.55 1075 c 0,34,35
 1191.4 921 1191.4 921 1031.83 742 c 2,36,-1
 997.311 705 l 2,37,38
 925.086 630 925.086 630 760.75 509 c 0,39,40
 586.504 380 586.504 380 520.953 323 c 0,41,42
 456.903 266 456.903 266 421.321 223 c 1,43,-1
 1070.32 223 l 1,0,-1
EndSplineSet
EndChar
StartChar: three
Encoding: 51 51 23
Width: 1139
Flags: HW
HStem: -10 216<485.4 670> 1070 21G<104 333> 1268 214<491.253 607.302>
VStem: 740 234<1019.93 1163.5> 805 241<370.9 533.4>
Fore
161.292 427 m 1,0,-1
 391.292 427 l 1,1,2
 385.601 321 385.601 321 456.14 256 c 0,3,4
 512.323 206 512.323 206 589.323 206 c 0,5,6
 723.323 206 723.323 206 810.545 298 c 0,7,8
 868.478 360 868.478 360 883.466 445 c 0,9,10
 901.451 547 901.451 547 823.089 613 c 0,11,12
 756.786 668 756.786 668 654.786 668 c 0,13,14
 606.786 668 606.786 668 556.318 654 c 1,15,-1
 596.521 882 l 1,16,-1
 671.696 883 l 2,17,18
 848.812 895 848.812 895 907.148 1016 c 0,19,20
 925.849 1054 925.849 1054 934.842 1105 c 0,21,22
 946.655 1172 946.655 1172 886.824 1224 c 0,23,24
 835.583 1268 835.583 1268 772.583 1268 c 0,25,26
 659.583 1268 659.583 1268 585.652 1189 c 2,27,-1
 561.187 1158 l 2,28,29
 535.662 1121 535.662 1121 521.67 1070 c 1,30,-1
 292.67 1070 l 1,31,32
 321.234 1232 321.234 1232 453.688 1348 c 0,33,34
 588.495 1466 588.495 1466 763.964 1480 c 0,35,36
 792.316 1482 792.316 1482 806.316 1482 c 0,37,38
 984.316 1482 984.316 1482 1088.51 1381 c 0,39,40
 1198.64 1274 1198.64 1274 1168.14 1101 c 0,41,42
 1137.28 926 1137.28 926 1050.88 850 c 2,43,-1
 1019.82 827 l 2,44,45
 990.473 808 990.473 808 952.004 794 c 1,46,47
 1118.07 766 1118.07 766 1134.85 606 c 2,48,-1
 1136.63 548 l 2,49,50
 1134.69 503 1134.69 503 1125.17 449 c 0,51,52
 1091.32 257 1091.32 257 937.746 129 c 0,53,54
 787.705 4 787.705 4 590.413 -9 c 0,55,56
 577.236 -10 577.236 -10 550.236 -10 c 0,57,58
 370.236 -10 370.236 -10 257.28 98 c 0,59,60
 144.5 207 144.5 207 154.828 379 c 0,61,62
 158.471 411 158.471 411 161.292 427 c 1,0,-1
EndSplineSet
EndChar
StartChar: four
Encoding: 52 52 24
Width: 1139
Flags: HW
HStem: 0 21G<662 892> 327 225<321 662 892 1070> 1452 20G<662 892>
VStem: 662 230<0 327 552 1077>
Fore
662 0 m 1,0,-1
 719.659 327 l 1,1,-1
 113.659 327 l 1,2,-1
 153.332 552 l 1,3,-1
 921.554 1472 l 1,4,-1
 1151.55 1472 l 1,5,-1
 989.332 552 l 1,6,-1
 1167.33 552 l 1,7,-1
 1127.66 327 l 1,8,-1
 949.659 327 l 1,9,-1
 892 0 l 1,10,-1
 662 0 l 1,0,-1
759.332 552 m 1,11,-1
 851.904 1077 l 1,12,-1
 418.332 552 l 1,13,-1
 759.332 552 l 1,11,-1
EndSplineSet
EndChar
StartChar: five
Encoding: 53 53 25
Width: 1139
Flags: HW
HStem: -10 214<478.609 663.9> 777 230<514.099 640.497> 1244 228<473 988>
VStem: 85 245<277.889 415> 817 240<386.8 579.223>
Fore
158.176 415 m 1,0,-1
 403.176 415 l 1,1,2
 385.727 265 385.727 265 501.792 220 c 0,3,4
 540.971 204 540.971 204 591.971 204 c 0,5,6
 716.471 204 716.471 204 802.84 294 c 0,7,8
 878.417 371 878.417 371 904.458 496 c 2,9,-1
 911.979 550 l 2,10,11
 924.019 692 924.019 692 821.893 748 c 0,12,13
 767.006 777 767.006 777 690.006 777 c 2,14,-1
 639.477 774 l 2,15,16
 550.009 760 550.009 760 475.96 686 c 1,17,-1
 241.84 708 l 1,18,-1
 518.554 1472 l 1,19,-1
 1247.55 1472 l 1,20,-1
 1207.35 1244 l 1,21,-1
 692.351 1244 l 1,22,-1
 569.747 940 l 1,23,24
 655.74 991 655.74 991 707.503 1001 c 0,25,26
 735.562 1007 735.562 1007 768.562 1007 c 0,27,28
 982.032 1004 982.032 1004 1084.17 863 c 0,29,30
 1185.01 726 1185.01 726 1147.28 512 c 0,31,32
 1108.13 290 1108.13 290 955.92 147 c 0,33,34
 796.471 -3 796.471 -3 573.236 -10 c 2,35,-1
 554.236 -10 l 2,36,37
 308.236 -10 308.236 -10 209.802 152 c 0,38,39
 146.963 255 146.963 255 158.176 415 c 1,0,-1
EndSplineSet
EndChar
StartChar: six
Encoding: 54 54 26
Width: 1139
Flags: HW
HStem: -10 210<505.7 698.1> 764 213<465.9 653.117> 1257 225<489.79 673.071>
VStem: 77 239<701 1001.52> 819 227<384.881 581.356>
Fore
1213.49 1103 m 1,0,-1
 1001.67 1104 l 1,1,2
 989.18 1209 989.18 1209 899.351 1244 c 0,3,4
 865.643 1257 865.643 1257 821.643 1257 c 0,5,6
 563.643 1257 563.643 1257 472.05 885 c 0,7,8
 468.875 867 468.875 867 466.288 858 c 1,9,10
 585.271 977 585.271 977 761.271 977 c 2,11,-1
 766.271 977 l 2,12,13
 949.095 976 949.095 976 1054.17 846 c 2,14,-1
 1082.12 806 l 2,15,16
 1146.25 699 1146.25 699 1139.57 559 c 0,17,18
 1136.63 514 1136.63 514 1130.46 479 c 0,19,20
 1092.73 273.5 1092.73 273.5 950.157 137 c 0,21,22
 802.295 -4 802.295 -4 600.236 -10 c 2,23,-1
 584.236 -10 l 2,24,25
 240.236 -10 240.236 -10 187.012 329 c 0,26,27
 161.989 482 161.989 482 200.605 701 c 0,28,29
 308.165 1311 308.165 1311 657.969 1446 c 0,30,31
 753.316 1482 753.316 1482 864.316 1482 c 0,32,33
 1035.32 1482 1035.32 1482 1135.86 1383 c 0,34,35
 1156.33 1363 1156.33 1363 1172.1 1339 c 0,36,37
 1237.47 1239 1237.47 1239 1213.49 1103 c 1,0,-1
437.224 489 m 0,38,39
 410.422 337 410.422 337 479.316 257 c 0,40,41
 529.266 200 529.266 200 620.266 200 c 0,42,43
 751.266 200 751.266 200 833.661 310 c 0,44,45
 886.004 380 886.004 380 903.813 481 c 0,46,47
 931.056 635.5 931.056 635.5 854.545 712 c 2,48,-1
 829.248 733 l 2,49,50
 782.714 764 782.714 764 713.714 764 c 0,51,52
 582.714 764 582.714 764 503.142 653 c 0,53,54
 454.327 586 454.327 586 437.224 489 c 0,38,39
EndSplineSet
EndChar
StartChar: seven
Encoding: 55 55 27
Width: 1139
Flags: HW
HStem: 0 21G<253 511> 1233 239<97 755>
Fore
314.411 1233 m 1,0,-1
 356.554 1472 l 1,1,-1
 1305.55 1472 l 1,2,-1
 1263.41 1233 l 1,3,4
 1158.01 1140 1158.01 1140 1010.57 973 c 0,5,6
 856.062 800 856.062 800 797.019 692 c 0,7,8
 605.656 344 605.656 344 541.746 129 c 0,9,10
 521.051 57 521.051 57 511 0 c 1,11,-1
 253 0 l 1,12,13
 318.007 363 318.007 363 582.83 776 c 0,14,15
 686.395 938 686.395 938 938.24 1198 c 2,16,-1
 972.411 1233 l 1,17,-1
 314.411 1233 l 1,0,-1
EndSplineSet
EndChar
StartChar: eight
Encoding: 56 56 28
Width: 1139
Flags: HW
HStem: -10 209<487.4 620.987> 1284 198<480.5 635.373>
VStem: 83 239<334.3 511.661> 142 227<1006.9 1166.6> 761 228<1033.96 1186.1> 812 237<360.745 535.4>
Fore
503.943 805 m 1,0,1
 298.226 886 298.226 886 336.665 1104 c 0,2,3
 368.228 1283 368.228 1283 514.742 1388 c 0,4,5
 646.316 1482 646.316 1482 824.316 1482 c 0,6,7
 1014.32 1482 1014.32 1482 1115.27 1374 c 2,8,-1
 1140.63 1342 l 2,9,10
 1208 1242 1208 1242 1182.78 1099 c 0,11,12
 1153.34 932 1153.34 932 989.291 841 c 0,13,14
 956.94 822 956.94 822 914.943 805 c 1,15,16
 1076.07 749 1076.07 749 1115.91 629 c 0,17,18
 1141.98 550 1141.98 550 1125.53 434 c 2,19,-1
 1114 380 l 2,20,21
 1070.79 228.5 1070.79 228.5 923.454 116 c 0,22,23
 776.882 5 776.882 5 607.59 -8 c 0,24,25
 577.236 -10 577.236 -10 564.236 -10 c 0,26,27
 349.736 -10 349.736 -10 237.925 113 c 0,28,29
 125.849 234.5 125.849 234.5 159.526 434 c 2,30,-1
 160.407 439 l 2,31,32
 198.494 655 198.494 655 377.303 756 c 0,33,34
 439.122 789 439.122 789 503.943 805 c 1,0,1
564.194 1107 m 0,35,36
 545.74 991 545.74 991 625.276 943 c 0,37,38
 666.868 918 666.868 918 728.868 918 c 0,39,40
 834.868 918 834.868 918 901.563 990 c 0,41,42
 943.675 1036 943.675 1036 954.783 1099 c 0,43,44
 972.593 1200 972.593 1200 903.585 1251 c 0,45,46
 860.404 1284 860.404 1284 791.404 1284 c 0,47,48
 693.404 1284 693.404 1284 624.767 1218 c 0,49,50
 575.479 1171 575.479 1171 564.194 1107 c 0,35,36
399.055 437 m 0,51,52
 378.072 318 378.072 318 453.082 250 c 0,53,54
 510.089 199 510.089 199 603.089 199 c 0,55,56
 735.089 199 735.089 199 817.605 287 c 0,57,58
 873.009 346 873.009 346 888.35 433 c 0,59,60
 911.978 567 911.978 567 811.852 623 c 0,61,62
 759.789 651 759.789 651 677.789 651 c 0,63,64
 529.789 651 529.789 651 452.214 557 c 2,65,-1
 430.571 525 l 2,66,67
 407.871 487 407.871 487 399.055 437 c 0,51,52
EndSplineSet
EndChar
StartChar: nine
Encoding: 57 57 29
Width: 1139
Flags: HW
HStem: -10 229<477.964 668.21> 495 227<512.5 691.9> 1257 224<471.1 647.039>
VStem: 113 244<920.815 1081.18> 825 256<432.1 771>
Fore
204.064 369 m 1,0,-1
 419.064 369 l 1,1,2
 411.14 256 411.14 256 524.202 228 c 0,3,4
 560.615 219 560.615 219 604.615 219 c 0,5,6
 761.615 219 761.615 219 837.541 332 c 0,7,8
 888.765 407 888.765 407 927.094 579 c 1,9,10
 861.219 523 861.219 523 782.222 506 c 0,11,12
 727.282 495 727.282 495 651.282 495 c 0,13,14
 468.282 495 468.282 495 365.146 619 c 0,15,16
 260.835 742 260.835 742 279.689 934 c 0,17,18
 282.979 964 282.979 964 285.977 981 c 0,19,20
 322.741 1189.5 322.741 1189.5 464.339 1329 c 0,21,22
 611.554 1472 611.554 1472 808.141 1481 c 0,23,24
 816.316 1482 816.316 1482 833.316 1482 c 0,25,26
 1167.32 1482 1167.32 1482 1227.54 1160 c 0,27,28
 1257.68 1002 1257.68 1002 1216.95 771 c 0,29,30
 1109.39 161 1109.39 161 759.584 26 c 0,31,32
 664.236 -10 664.236 -10 553.236 -10 c 0,33,34
 382.236 -10 382.236 -10 281.693 89 c 0,35,36
 175.384 195 175.384 195 204.064 369 c 1,0,-1
973.153 982 m 0,37,38
 999.25 1130 999.25 1130 930.474 1205 c 2,39,-1
 907.177 1226 l 2,40,41
 863.643 1257 863.643 1257 800.643 1257 c 0,42,43
 676.643 1257 676.643 1257 598.129 1152 c 0,44,45
 548.139 1084 548.139 1084 531.74 991 c 0,46,47
 505.468 842 505.468 842 580.596 769 c 0,48,49
 628.309 722 628.309 722 711.309 722 c 0,50,51
 837.309 722 837.309 722 910.999 828 c 0,52,53
 957.46 893 957.46 893 973.153 982 c 0,37,38
EndSplineSet
EndChar
StartChar: colon
Encoding: 58 58 30
Width: 569
Flags: HW
HStem: 0 230<160 415> 832 230<160 415>
VStem: 160 255<0 230 832 1062>
Fore
306.704 832 m 1,0,-1
 347.259 1062 l 1,1,-1
 602.26 1062 l 1,2,-1
 561.704 832 l 1,3,-1
 306.704 832 l 1,0,-1
160 0 m 1,4,-1
 200.556 230 l 1,5,-1
 455.556 230 l 1,6,-1
 415 0 l 1,7,-1
 160 0 l 1,4,-1
EndSplineSet
EndChar
StartChar: semicolon
Encoding: 59 59 31
Width: 569
Flags: HW
HStem: -20 20G<157 259> 832 230<157 412>
VStem: 157 255<0 205 832 1062> 259 153<-77.9798 0>
Fore
303.704 832 m 1,0,-1
 344.259 1062 l 1,1,-1
 599.26 1062 l 1,2,-1
 558.704 832 l 1,3,-1
 303.704 832 l 1,0,-1
157 0 m 1,4,-1
 193.147 205 l 1,5,-1
 448.147 205 l 1,6,-1
 412 0 l 2,7,8
 368.8 -245 368.8 -245 217.631 -297 c 1,9,-1
 107.442 -213 l 1,10,11
 200.143 -175 200.143 -175 238.48 -71 c 0,12,13
 251.652 -36 251.652 -36 259 0 c 1,14,-1
 157 0 l 1,4,-1
EndSplineSet
EndChar
StartChar: less
Encoding: 60 60 32
Width: 1196
Flags: HW
HStem: 226 993<1083 1083>
VStem: 112 971<641 1219>
Fore
225.025 641 m 1,0,-1
 254.648 809 l 1,1,-1
 1297.94 1219 l 1,2,-1
 1257.56 990 l 1,3,-1
 550.661 724 l 1,4,-1
 1163.23 455 l 1,5,-1
 1122.85 226 l 1,6,-1
 225.025 641 l 1,0,-1
EndSplineSet
EndChar
StartChar: equal
Encoding: 61 61 33
Width: 1196
Flags: HW
HStem: 417 218<114 1082> 812 218<114 1082>
Fore
1225.18 812 m 1,0,-1
 257.178 812 l 1,1,-1
 295.617 1030 l 1,2,-1
 1263.62 1030 l 1,3,-1
 1225.18 812 l 1,0,-1
1155.53 417 m 1,4,-1
 187.528 417 l 1,5,-1
 225.968 635 l 1,6,-1
 1193.97 635 l 1,7,-1
 1155.53 417 l 1,4,-1
EndSplineSet
EndChar
StartChar: greater
Encoding: 62 62 34
Width: 1196
Flags: HW
HStem: 226 993<112 112>
VStem: 112 971<226 641>
Fore
1196.03 641 m 1,0,-1
 151.85 226 l 1,1,-1
 192.229 455 l 1,2,-1
 877.661 724 l 1,3,-1
 286.563 990 l 1,4,-1
 326.942 1219 l 1,5,-1
 1225.65 809 l 1,6,-1
 1196.03 641 l 1,0,-1
EndSplineSet
EndChar
StartChar: question
Encoding: 63 63 35
Width: 1139
Flags: HW
HStem: 0 235<421 695> 1291 213<482.2 651.083>
VStem: 421 274<0 235> 432 242<361 513.1> 813 223<1024.31 1194.6>
Fore
495.654 361 m 1,0,1
 530.158 534 530.158 534 601.968 635 c 0,2,3
 631.373 677 631.373 677 675.779 719 c 0,4,5
 686.631 729.5 686.631 729.5 780.591 803 c 0,6,7
 927.221 920 927.221 920 975.914 1009 c 0,8,9
 998.144 1050 998.144 1050 1004.84 1088 c 0,10,11
 1026.71 1212 1026.71 1212 920.877 1264 c 0,12,13
 867.638 1291 867.638 1291 795.638 1291 c 0,14,15
 696.638 1291 696.638 1291 611.532 1211 c 2,16,-1
 580.537 1177 l 1,17,-1
 551.66 1138 l 2,18,19
 525.254 1096 525.254 1096 508.438 1046 c 1,20,-1
 274.438 1046 l 1,21,22
 322.585 1251 322.585 1251 474.803 1377 c 0,23,24
 627.195 1504 627.195 1504 830.195 1504 c 0,25,26
 1027.2 1504 1027.2 1504 1138.5 1398 c 0,27,28
 1260.23 1283 1260.23 1283 1227.14 1084 c 0,29,30
 1221.85 1054 1221.85 1054 1213.62 1030 c 0,31,32
 1172.99 913 1172.99 913 1032.89 782 c 2,33,-1
 914.197 676 l 2,34,35
 783.214 557 783.214 557 745.707 401 c 0,36,37
 742.415 388 742.415 388 737.654 361 c 1,38,-1
 495.654 361 l 1,0,1
421 0 m 1,39,-1
 462.437 235 l 1,40,-1
 736.437 235 l 1,41,-1
 695 0 l 1,42,-1
 421 0 l 1,39,-1
EndSplineSet
EndChar
StartChar: at
Encoding: 64 64 36
Width: 2079
Flags: HW
HStem: -431 200<943.615 1312.4> -3 241<850.156 1011.3> 849 235<925.346 1077.68> 1279 214<944.985 1244.57>
VStem: 111 221<305.675 751.5> 502 239<358.3 569.989> 1737 219<577.778 885>
Fore
1182.34 121 m 1,0,1
 1054.47 -3 1054.47 -3 853.471 -3 c 0,2,3
 691.471 -3 691.471 -3 618.333 138 c 0,4,5
 549.432 269 549.432 269 583.287 461 c 0,6,7
 619.61 667 619.61 667 763.467 842 c 0,8,9
 894.503 1001 894.503 1001 1058.55 1058 c 0,10,11
 1132.14 1084 1132.14 1084 1202.14 1084 c 0,12,13
 1346.14 1084 1346.14 1084 1412.68 1002 c 0,14,15
 1432.45 978 1432.45 978 1441.33 949 c 0,16,17
 1441.98 947 1441.98 947 1442.78 943 c 128,-1,18
 1443.57 939 1443.57 939 1443.39 938 c 1,19,-1
 1502.26 1079 l 1,20,-1
 1716.26 1079 l 1,21,-1
 1446.83 379 l 1,22,-1
 1402.25 285 l 1,23,-1
 1400.26 268 l 1,24,25
 1402.43 252 1402.43 252 1413.97 238 c 0,26,27
 1430.62 219 1430.62 219 1460.62 219 c 0,28,29
 1584.62 219 1584.62 219 1704.71 367 c 0,30,31
 1805.58 491 1805.58 491 1851.08 647 c 2,32,-1
 1865.37 711 l 1,33,-1
 1866.25 716 l 2,34,35
 1906.86 969 1906.86 969 1743.84 1122 c 0,36,37
 1595.88 1264 1595.88 1264 1325.52 1279 c 2,38,-1
 1318.52 1279 l 1,39,-1
 1240.52 1279 l 2,40,41
 957.701 1263 957.701 1263 741.201 1056 c 0,42,43
 735.319 1051 735.319 1051 732.791 1048 c 0,44,45
 471.651 792 471.651 792 417.519 485 c 0,46,47
 366.207 194 366.207 194 495.234 7 c 0,48,49
 523.828 -35 523.828 -35 560.01 -68 c 0,50,51
 697.057 -192.5 697.057 -192.5 911.031 -221 c 0,52,53
 982.269 -231 982.269 -231 1079.27 -231 c 0,54,55
 1301.27 -231 1301.27 -231 1439.79 -177 c 0,56,57
 1559.9 -131 1559.9 -131 1727 0 c 2,58,-1
 1751.35 19 l 1,59,-1
 2008.35 19 l 1,60,61
 1877.44 -179 1877.44 -179 1633.1 -300 c 0,62,63
 1368 -431 1368 -431 1047 -431 c 0,64,65
 610.003 -431 610.003 -431 378.855 -222 c 0,66,67
 172.828 -35 172.828 -35 174.138 273 c 0,68,69
 175.183 364 175.183 364 193.697 469 c 0,70,71
 256.117 823 256.117 823 482.667 1087 c 0,72,73
 733.214 1376.5 733.214 1376.5 1088.79 1462 c 0,74,75
 1219.26 1493 1219.26 1493 1365.26 1493 c 0,76,77
 1675.26 1493 1675.26 1493 1873.57 1336 c 0,78,79
 1972.05 1256.5 1972.05 1256.5 2029.25 1147 c 0,80,81
 2125.27 960 2125.27 960 2081.72 713 c 0,82,83
 2044.87 504 2044.87 504 1897.78 305 c 0,84,85
 1759.63 117 1759.63 117 1580.76 27 c 0,86,87
 1462.18 -33 1462.18 -33 1348.18 -33 c 0,88,89
 1280.18 -33 1280.18 -33 1239.88 -12 c 0,90,91
 1200.59 9 1200.59 9 1188.46 48 c 0,92,93
 1179.22 75 1179.22 75 1182.34 121 c 1,0,1
947.966 238 m 0,94,95
 1069.47 238 1069.47 238 1173.65 361 c 0,96,97
 1254.76 458 1254.76 458 1288.8 583 c 2,98,-1
 1301.38 643 l 2,99,100
 1323.59 786 1323.59 786 1240.53 831 c 0,101,102
 1209.2 849 1209.2 849 1162.7 849 c 0,103,104
 1032.7 849 1032.7 849 926.134 704 c 0,105,106
 894.376 660 894.376 660 868.03 607 c 0,107,108
 836.393 541 836.393 541 824.579 474 c 0,109,110
 801.039 340.5 801.039 340.5 855.666 276 c 0,111,112
 889.966 238 889.966 238 947.966 238 c 0,94,95
EndSplineSet
EndChar
StartChar: A
Encoding: 65 65 37
Width: 1366
Flags: HW
HStem: 0 21G<-2 273 1079 1368> 433 240<505 833> 1430 20G<559 768>
Back
559 1450 m 5,0,-1
 768 1450 l 1,1,-1
 1368 0 l 1,2,-1
 1149 0 l 1,3,-1
 948 471 l 1,4,-1
 392 471 l 1,5,-1
 203 0 l 1,6,-1
 -2 0 l 1,7,-1
 559 1450 l 5,0,-1
903 653 m 5,8,-1
 659 1237 l 1,9,-1
 435 653 l 1,10,-1
 903 653 l 5,8,-1
EndSplineSet
Fore
814.674 1450 m 1,0,-1
 1023.67 1450 l 1,1,-1
 1368 0 l 1,2,-1
 1079 0 l 1,3,-1
 954.35 433 l 1,4,-1
 538.35 433 l 1,5,-1
 273 0 l 1,6,-1
 -2 0 l 1,7,-1
 814.674 1450 l 1,0,-1
951.668 673 m 1,8,-1
 854.547 1109 l 1,9,-1
 623.668 673 l 1,10,-1
 951.668 673 l 1,8,-1
EndSplineSet
EndChar
StartChar: B
Encoding: 66 66 38
Width: 1366
Flags: HW
HStem: 0 220<384 864.776> 629 213<384 769.92> 1231 219<384 833.906>
VStem: 164 220<220 629 842 1231> 955 231<972.002 1149.6> 1016 241<336.361 510.7>
Fore
164 0 m 1,0,-1
 275.615 633 l 1,1,-1
 419.674 1450 l 1,2,-1
 955.674 1450 l 2,3,4
 1122.67 1450 1122.67 1450 1217.92 1406 c 0,5,6
 1326.75 1354 1326.75 1354 1365.17 1243 c 0,7,8
 1391.77 1167 1391.77 1167 1376.26 1079 c 0,9,10
 1337.99 862 1337.99 862 1169.18 778 c 0,11,12
 1160.48 774 1160.48 774 1157.12 772 c 1,13,14
 1380.96 703 1380.96 703 1331.23 421 c 0,15,16
 1305.84 277 1305.84 277 1200.92 164 c 0,17,18
 1114.34 70 1114.34 70 971.113 29 c 0,19,20
 965.938 28 965.938 28 950.231 24 c 0,21,22
 848.5 0 848.5 0 709 0 c 2,23,-1
 164 0 l 1,0,-1
532.467 842 m 1,24,-1
 809.467 842 l 2,25,26
 944.467 842 944.467 842 1015.58 871 c 0,27,28
 1029.64 877 1029.64 877 1037.87 884 c 0,29,30
 1092.63 928 1092.63 928 1115.39 972 c 0,31,32
 1132.74 1008 1132.74 1008 1141.2 1056 c 0,33,34
 1159.24 1164 1159.24 1164 1094.3 1204 c 0,35,36
 1049.06 1231 1049.06 1231 854.059 1231 c 2,37,-1
 601.059 1231 l 1,38,-1
 532.467 842 l 1,24,-1
422.792 220 m 1,39,-1
 747.792 220 l 2,40,41
 918.792 220 918.792 220 984.316 257 c 2,42,-1
 1000.08 267 l 2,43,44
 1051.78 305 1051.78 305 1072.6 355 c 0,45,46
 1083.62 383.5 1083.62 383.5 1090.23 421 c 0,47,48
 1108.4 524 1108.4 524 1067.98 567 c 2,49,-1
 1055.09 579 l 2,50,51
 1001.26 622.5 1001.26 622.5 886.557 627 c 2,52,-1
 793.91 629 l 1,53,-1
 494.91 629 l 1,54,-1
 422.792 220 l 1,39,-1
EndSplineSet
EndChar
StartChar: C
Encoding: 67 67 39
Width: 1479
Flags: HW
HStem: -10 220<725.275 916.7> 1257 220<664.939 902.554>
VStem: 102 238<553.6 934.5>
Fore
1252.64 480 m 1,0,-1
 1482.64 480 l 1,1,2
 1346.09 165 1346.09 165 1085.64 49 c 0,3,4
 949.236 -10 949.236 -10 789.236 -10 c 0,5,6
 444.236 -10 444.236 -10 300.969 221 c 0,7,8
 180.528 417 180.528 417 230.895 731 c 2,9,-1
 233.363 745 l 2,10,11
 286.085 1044 286.085 1044 482.822 1241 c 0,12,13
 672.5 1432 672.5 1432 938.024 1469 c 0,14,15
 998.435 1477 998.435 1477 1054.43 1477 c 0,16,17
 1354.43 1477 1354.43 1477 1483.64 1274 c 2,18,-1
 1510.18 1226 l 2,19,20
 1546.78 1150 1546.78 1150 1558.14 1050 c 1,21,-1
 1328.14 1050 l 1,22,23
 1310.36 1176 1310.36 1176 1184.53 1228 c 0,24,25
 1111.64 1257 1111.64 1257 1011.64 1257 c 0,26,27
 791.143 1257 791.143 1257 642.136 1101 c 0,28,29
 509.803 963 509.803 963 471.54 746 c 0,30,31
 432.571 525 432.571 525 524.77 373 c 0,32,33
 611.908 232 611.908 232 776.558 213 c 0,34,35
 800.028 210 800.028 210 825.028 210 c 0,36,37
 973.028 210 973.028 210 1103.19 296 c 0,38,39
 1220.95 374 1220.95 374 1252.64 480 c 1,0,-1
EndSplineSet
EndChar
StartChar: D
Encoding: 68 68 40
Width: 1479
Flags: HW
HStem: 0 213<390 864.8> 1237 213<390 787>
VStem: 168 222<213 1237> 1143 237<530.6 812.946>
Fore
168 0 m 1,0,-1
 423.674 1450 l 1,1,-1
 928.674 1450 l 2,2,3
 1417.67 1450 1417.67 1450 1507.49 1120 c 0,4,5
 1550.51 967 1550.51 967 1509.25 733 c 0,6,7
 1423.82 248.5 1423.82 248.5 1085.46 82 c 0,8,9
 920 0 920 0 697 0 c 2,10,-1
 168 0 l 1,0,-1
427.558 213 m 1,11,-1
 712.558 213 l 2,12,13
 930.558 213 930.558 213 1084.3 359 c 0,14,15
 1228.63 497 1228.63 497 1272.78 736 c 2,16,-1
 1282.88 816 l 2,17,18
 1305.37 1091 1305.37 1091 1115.65 1189 c 0,19,20
 1024.12 1237 1024.12 1237 888.116 1237 c 2,21,-1
 608.116 1237 l 1,22,-1
 427.558 213 l 1,11,-1
EndSplineSet
EndChar
StartChar: E
Encoding: 69 69 41
Width: 1366
Flags: HW
HStem: 0 229<401 1222> 621 230<401 1021> 1218 232<401 1222>
VStem: 162 239<229 621 851 1218>
Fore
162 0 m 1,0,-1
 417.674 1450 l 1,1,-1
 1477.67 1450 l 1,2,-1
 1436.77 1218 l 1,3,-1
 615.767 1218 l 1,4,-1
 551.055 851 l 1,5,-1
 1171.05 851 l 1,6,-1
 1130.5 621 l 1,7,-1
 510.499 621 l 1,8,-1
 441.379 229 l 1,9,-1
 1262.38 229 l 1,10,-1
 1222 0 l 1,11,-1
 162 0 l 1,0,-1
EndSplineSet
EndChar
StartChar: F
Encoding: 70 70 42
Width: 1251
Flags: HW
HStem: 0 21G<167 406> 621 230<406 1008> 1218 232<406 1158>
VStem: 167 239<0 621 851 1218>
Fore
167 0 m 1,0,-1
 422.674 1450 l 1,1,-1
 1413.67 1450 l 1,2,-1
 1372.77 1218 l 1,3,-1
 620.767 1218 l 1,4,-1
 556.055 851 l 1,5,-1
 1158.05 851 l 1,6,-1
 1117.5 621 l 1,7,-1
 515.499 621 l 1,8,-1
 406 0 l 1,9,-1
 167 0 l 1,0,-1
EndSplineSet
EndChar
StartChar: G
Encoding: 71 71 43
Width: 1479
Flags: HW
HStem: -10 220<617.7 903.7> 464 220<905 1164> 1236 241<736.253 929.1>
VStem: 102 237<548.397 887.822>
Fore
1524.61 684 m 1,0,1
 1523.32 671 1523.32 671 1518.55 644 c 2,2,-1
 1500.27 546 l 2,3,4
 1371.24 -10 1371.24 -10 789.236 -10 c 0,5,6
 765.236 -10 765.236 -10 754.413 -9 c 0,7,8
 430.529 3 430.529 3 295.084 233 c 0,9,10
 178.702 435 178.702 435 233.363 745 c 0,11,12
 244.648 809 244.648 809 260.994 862 c 0,13,14
 343.308 1136 343.308 1136 549.578 1302 c 0,15,16
 767.435 1477 767.435 1477 1054.43 1477 c 0,17,18
 1229.43 1477 1229.43 1477 1347.09 1407 c 0,19,20
 1530.05 1299 1530.05 1299 1558.14 1050 c 1,21,-1
 1300.14 1050 l 1,22,23
 1292.67 1087 1292.67 1087 1273.13 1118 c 2,24,-1
 1251.07 1146 l 2,25,26
 1167.94 1236 1167.94 1236 1007.94 1236 c 0,27,28
 993.94 1236 993.94 1236 965.588 1234 c 0,29,30
 793.942 1219 793.942 1219 657.726 1093 c 0,31,32
 507.393 955 507.393 955 470.54 746 c 0,33,34
 465.955 720 465.955 720 464.663 707 c 0,35,36
 437.987 499 437.987 499 530.478 360 c 0,37,38
 628.528 210 628.528 210 825.028 210 c 0,39,40
 960.028 210 960.028 210 1066.67 259 c 0,41,42
 1197.42 320 1197.42 320 1234.94 425 c 2,43,-1
 1245.82 464 l 1,44,-1
 986.815 464 l 1,45,-1
 1025.61 684 l 1,46,-1
 1524.61 684 l 1,0,1
EndSplineSet
EndChar
StartChar: H
Encoding: 72 72 44
Width: 1479
Flags: HW
HStem: 0 21G<164 404 1074 1314> 619 244<404 1074> 1430 20G<164 404 1074 1314>
VStem: 164 240<0 619 863 1450> 1074 240<0 619 863 1450>
Fore
164 0 m 1,0,-1
 419.674 1450 l 1,1,-1
 659.674 1450 l 1,2,-1
 556.17 863 l 1,3,-1
 1226.17 863 l 1,4,-1
 1329.67 1450 l 1,5,-1
 1569.67 1450 l 1,6,-1
 1314 0 l 1,7,-1
 1074 0 l 1,8,-1
 1183.15 619 l 1,9,-1
 513.146 619 l 1,10,-1
 404 0 l 1,11,-1
 164 0 l 1,0,-1
EndSplineSet
EndChar
StartChar: I
Encoding: 73 73 45
Width: 650
Flags: HW
HStem: 0 210<25 205 445 625> 1250 200<25 205 445 625>
VStem: 205 240<210 1250>
Fore
662.028 210 m 1,0,-1
 625 0 l 1,1,-1
 25 0 l 1,2,-1
 62.0283 210 l 1,3,-1
 242.028 210 l 1,4,-1
 425.409 1250 l 1,5,-1
 245.409 1250 l 1,6,-1
 280.674 1450 l 1,7,-1
 880.674 1450 l 1,8,-1
 845.408 1250 l 1,9,-1
 665.408 1250 l 1,10,-1
 482.028 210 l 1,11,-1
 662.028 210 l 1,0,-1
EndSplineSet
EndChar
StartChar: J
Encoding: 74 74 46
Width: 1024
Flags: HW
HStem: -10 225<414.622 547.3> 1235 215<408 645>
VStem: 64 237<330.85 455> 645 220<374.452 1235>
Fore
1120.67 1450 m 1,0,-1
 945.405 456 l 2,1,2
 911.903 266 911.903 266 838.623 168 c 0,3,4
 828.331 155 828.331 155 805.746 129 c 0,5,6
 675.236 -10 675.236 -10 461.236 -10 c 0,7,8
 268.236 -10 268.236 -10 189.222 92 c 0,9,10
 122.21 177 122.21 177 133.125 358 c 0,11,12
 135.589 406 135.589 406 144.229 455 c 1,13,-1
 381.229 455 l 1,14,15
 359.722 299 359.722 299 428.495 241 c 0,16,17
 460.91 215 460.91 215 505.91 215 c 0,18,19
 597.91 215 597.91 215 662.956 306 c 0,20,21
 710.858 373.5 710.858 373.5 728.05 471 c 2,22,-1
 862.764 1235 l 1,23,-1
 625.764 1235 l 1,24,-1
 663.674 1450 l 1,25,-1
 1120.67 1450 l 1,0,-1
EndSplineSet
EndChar
StartChar: K
Encoding: 75 75 47
Width: 1366
Flags: HW
HStem: 0 21G<150 376> 1430 20G<150 376 1022 1316>
VStem: 150 226<0 499 825 1450>
Fore
150 0 m 1,0,-1
 405.674 1450 l 1,1,-1
 631.674 1450 l 1,2,-1
 521.47 825 l 1,3,-1
 1277.67 1450 l 1,4,-1
 1571.67 1450 l 1,5,-1
 801.119 806 l 1,6,-1
 1346 0 l 1,7,-1
 1052.82 -1 l 1,8,-1
 586.56 610 l 1,9,-1
 463.987 499 l 1,10,-1
 376 0 l 1,11,-1
 150 0 l 1,0,-1
EndSplineSet
EndChar
StartChar: L
Encoding: 76 76 48
Width: 1139
Flags: HW
HStem: 0 219<380 1060> 1430 20G<150 380>
VStem: 150 230<219 1450>
Fore
150 0 m 1,0,-1
 405.674 1450 l 1,1,-1
 635.674 1450 l 1,2,-1
 418.615 219 l 1,3,-1
 1098.62 219 l 1,4,-1
 1060 0 l 1,5,-1
 150 0 l 1,0,-1
EndSplineSet
EndChar
StartChar: M
Encoding: 77 77 49
Width: 1706
Flags: HW
HStem: 0 21G<152 372 676 1026 1330 1550> 1430 20G<152 360 1340 1550>
VStem: 152 220<0 762> 1330 220<0 762>
Fore
152 0 m 1,0,-1
 407.674 1450 l 1,1,-1
 615.674 1450 l 1,2,-1
 886.618 202 l 1,3,-1
 1595.67 1450 l 1,4,-1
 1805.67 1450 l 1,5,-1
 1550 0 l 1,6,-1
 1330 0 l 1,7,-1
 1464.36 762 l 1,8,-1
 1026 0 l 1,9,-1
 676 0 l 1,10,-1
 506.361 762 l 1,11,-1
 372 0 l 1,12,-1
 152 0 l 1,0,-1
EndSplineSet
EndChar
StartChar: N
Encoding: 78 78 50
Width: 1479
Flags: HW
HStem: 0 21G<156 395 1071 1311> 1430 20G<156 395 1071 1311>
VStem: 156 239<0 975> 1071 240<471 1450>
Fore
156 0 m 1,0,-1
 411.674 1450 l 1,1,-1
 650.674 1450 l 1,2,-1
 1154.05 471 l 1,3,-1
 1326.67 1450 l 1,4,-1
 1566.67 1450 l 1,5,-1
 1311 0 l 1,6,-1
 1071 0 l 1,7,-1
 566.919 975 l 1,8,-1
 395 0 l 1,9,-1
 156 0 l 1,0,-1
EndSplineSet
EndChar
StartChar: O
Encoding: 79 79 51
Width: 1593
Flags: HW
HStem: -8 228<636.2 970.899> 1246 232<521.5 962.9>
VStem: 104 246<576.119 861.888> 1252 243<564.6 941.209>
Fore
229.897 714 m 0,0,1
 293.552 1075 293.552 1075 520.698 1280 c 0,2,3
 740.082 1475 740.082 1475 1061.61 1478 c 0,4,5
 1368.61 1478 1368.61 1478 1521.46 1290 c 0,6,7
 1673.67 1104 1673.67 1104 1633.95 788 c 0,8,9
 1631.6 769 1631.6 769 1624.89 731 c 0,10,11
 1569.71 418 1569.71 418 1370.44 218 c 0,12,13
 1165.64 15 1165.64 15 864.59 -8 c 0,14,15
 820.236 -10 820.236 -10 798.236 -10 c 0,16,17
 513.236 -10 513.236 -10 356.036 159 c 0,18,19
 201.13 324 201.13 324 216.973 601 c 0,20,21
 219.142 653 219.142 653 229.897 714 c 0,0,1
475.545 712 m 0,22,23
 430.229 455 430.229 455 552.307 325 c 0,24,25
 648.792 220 648.792 220 838.792 220 c 0,26,27
 1100.79 220 1100.79 220 1249.82 413 c 0,28,29
 1347.04 539 1347.04 539 1380.89 731 c 0,30,31
 1429.21 1005 1429.21 1005 1304.37 1142 c 0,32,33
 1206.7 1246 1206.7 1246 1022.7 1246 c 0,34,35
 684.703 1246 684.703 1246 544.1 942 c 0,36,37
 498.644 843 498.644 843 475.545 712 c 0,22,23
EndSplineSet
EndChar
StartChar: P
Encoding: 80 80 52
Width: 1366
Flags: HW
HStem: 0 21G<158 402> 580 212<402 881.075> 1236 214<402 825.711>
VStem: 158 244<0 580 792 1236> 1023 254<943.112 1135.7>
Fore
158 0 m 1,0,-1
 413.674 1450 l 1,1,-1
 966.674 1450 l 2,2,3
 1335.67 1450 1335.67 1450 1430.58 1285 c 0,4,5
 1449.11 1254 1449.11 1254 1458.71 1212 c 0,6,7
 1476.78 1133 1476.78 1133 1457.91 1026 c 0,8,9
 1397.78 685 1397.78 685 1056.5 604 c 0,10,11
 954.77 580 954.77 580 830.27 580 c 2,12,-1
 504.27 580 l 1,13,-1
 402 0 l 1,14,-1
 158 0 l 1,0,-1
541.651 792 m 1,15,-1
 816.651 792 l 2,16,17
 1065.65 792 1065.65 792 1151.69 900 c 0,18,19
 1189.89 946.5 1189.89 946.5 1202.85 1020 c 0,20,21
 1226.48 1154 1226.48 1154 1120.95 1202 c 0,22,23
 1046.94 1236 1046.94 1236 890.94 1236 c 2,24,-1
 619.94 1236 l 1,25,-1
 541.651 792 l 1,15,-1
EndSplineSet
EndChar
StartChar: Q
Encoding: 81 81 53
Width: 1659
Flags: HW
HStem: -14 189<1341.67 1446.99> -10 174<734.308 923.444> 298 205<865.392 980.3> 1251 227<521.5 967.1>
VStem: 104 233<576.119 857.87> 1262 234<523.5 826.977>
Fore
1236.12 392 m 1,0,1
 1340.46 496 1340.46 496 1385.25 699 c 2,2,-1
 1391.78 736 l 2,3,4
 1439.91 1009 1439.91 1009 1312.07 1146 c 0,5,6
 1213.58 1251 1213.58 1251 1022.58 1251 c 0,7,8
 675.585 1251 675.585 1251 533.981 947 c 0,9,10
 486.525 848 486.525 848 463.427 717 c 0,11,12
 416.7 452 416.7 452 553.777 322 c 0,13,14
 578.045 298 578.045 298 609.371 280 c 1,15,16
 659.208 392.5 659.208 392.5 781.053 454 c 0,17,18
 842.695 486 842.695 486 907.458 496 c 0,19,20
 943.692 503 943.692 503 982.692 503 c 0,21,22
 1118.69 503 1118.69 503 1204.94 425 c 0,23,24
 1222.47 411 1222.47 411 1236.12 392 c 1,0,1
1352.97 204 m 1,25,26
 1373.21 177 1373.21 177 1422.86 175 c 0,27,28
 1442.86 175 1442.86 175 1466.92 181 c 0,29,30
 1525.21 194 1525.21 194 1573.2 228 c 1,31,-1
 1674.87 90 l 1,32,33
 1544.53 -14 1544.53 -14 1396.53 -14 c 0,34,35
 1277.53 -14 1277.53 -14 1203.82 50 c 0,36,37
 1185.81 67 1185.81 67 1171.52 88 c 1,38,39
 1039.26 10 1039.26 10 903.118 -5 c 0,40,41
 850.236 -10 850.236 -10 798.236 -10 c 0,42,43
 513.236 -10 513.236 -10 356.036 159 c 0,44,45
 201.13 324 201.13 324 216.973 601 c 0,46,47
 219.142 653 219.142 653 229.897 714 c 0,48,49
 293.552 1075 293.552 1075 520.698 1280 c 0,50,51
 740.082 1475 740.082 1475 1061.61 1478 c 0,52,53
 1364.61 1478 1364.61 1478 1517.81 1292 c 0,54,55
 1667.72 1110 1667.72 1110 1635.12 806 c 0,56,57
 1631.51 768.5 1631.51 768.5 1624.89 731 c 0,58,59
 1557.19 347 1557.19 347 1352.97 204 c 1,25,26
1089.85 226 m 1,60,61
 1042.37 297 1042.37 297 966.545 298 c 0,62,63
 945.545 298 945.545 298 927.84 294 c 0,64,65
 819.401 274.5 819.401 274.5 768.681 174 c 1,66,67
 800.918 164 800.918 164 849.918 164 c 0,68,69
 958.918 164 958.918 164 1053.32 206 c 0,70,71
 1079.62 219 1079.62 219 1089.85 226 c 1,60,61
EndSplineSet
EndChar
StartChar: R
Encoding: 82 82 54
Width: 1400
Flags: HW
HStem: 0 21G<158 384 1072 1387> 580 206<384 663> 1239 211<384 807.555>
VStem: 158 226<0 580 786 1239> 1011 266<939.585 1147.4>
Fore
765.27 580 m 1,0,-1
 486.27 580 l 1,1,-1
 384 0 l 1,2,-1
 158 0 l 1,3,-1
 413.674 1450 l 1,4,-1
 966.674 1450 l 2,5,6
 1354.67 1450 1354.67 1450 1440.52 1262 c 0,7,8
 1483.3 1170 1483.3 1170 1457.91 1026 c 0,9,10
 1419.03 805.5 1419.03 805.5 1251.14 687 c 0,11,12
 1153.97 618 1153.97 618 1029.09 596 c 1,13,-1
 1387 0 l 1,14,-1
 1072 0 l 1,15,-1
 765.27 580 l 1,0,-1
522.593 786 m 1,16,-1
 803.593 786 l 2,17,18
 1064.59 786 1064.59 786 1149.81 912 c 0,19,20
 1179.57 956 1179.57 956 1190.85 1020 c 0,21,22
 1216.77 1167 1216.77 1167 1085.88 1213 c 0,23,24
 1010.47 1239 1010.47 1239 879.469 1239 c 2,25,-1
 602.469 1239 l 1,26,-1
 522.593 786 l 1,16,-1
EndSplineSet
EndChar
StartChar: S
Encoding: 83 83 55
Width: 1366
Flags: HW
HStem: -10 224<593.674 857.5> 1250 221<527.7 714.23>
VStem: 1022 237<353.2 484.5>
Fore
180.517 502 m 1,0,-1
 413.517 502 l 1,1,2
 405.307 325 405.307 325 541.963 255 c 0,3,4
 622.734 214 622.734 214 745.734 214 c 0,5,6
 918.734 214 918.734 214 1020.02 295 c 0,7,8
 1082.66 344 1082.66 344 1094.82 413 c 0,9,10
 1107.46 496 1107.46 496 1052.04 539 c 0,11,12
 1030.04 556 1030.04 556 996.859 572 c 0,13,14
 922.678 605 922.678 605 715.61 667 c 128,-1,15
 508.542 729 508.542 729 445.948 771 c 0,16,17
 323.23 852 323.23 852 330.619 1013 c 0,18,19
 330.675 1036 330.675 1036 336.141 1067 c 0,20,21
 369.996 1259 369.996 1259 545.568 1370 c 0,22,23
 706.377 1471 706.377 1471 923.377 1471 c 0,24,25
 1295.38 1471 1295.38 1471 1374.71 1195 c 0,26,27
 1396.96 1117 1396.96 1117 1394.68 1019 c 1,28,-1
 1160.68 1019 l 1,29,30
 1156.94 1236 1156.94 1236 925.232 1249 c 0,31,32
 914.408 1250 914.408 1250 892.408 1250 c 0,33,34
 726.408 1250 726.408 1250 636.89 1179 c 2,35,-1
 613.011 1157 l 2,36,37
 582.839 1122 582.839 1122 575.434 1080 c 0,38,39
 564.09 1010 564.09 1010 610.214 971 c 0,40,41
 626.921 958 626.921 958 655.276 943 c 0,42,43
 709.163 914 709.163 914 1016.88 816 c 0,44,45
 1105.12 789 1105.12 789 1145.3 773 c 0,46,47
 1301.84 708 1301.84 708 1333.03 590 c 0,48,49
 1351.04 522 1351.04 522 1334.64 429 c 0,50,51
 1301.14 239 1301.14 239 1129.45 116 c 0,52,53
 969.177 1 969.177 1 753.413 -9 c 0,54,55
 740.236 -10 740.236 -10 715.236 -10 c 0,56,57
 350.736 -10 350.736 -10 228.149 188 c 0,58,59
 151.014 312 151.014 312 180.517 502 c 1,0,-1
EndSplineSet
EndChar
StartChar: T
Encoding: 84 84 56
Width: 1251
Flags: HW
HStem: 0 21G<508 748> 1231 219<48 508 748 1210>
VStem: 508 240<0 1231>
Fore
508 0 m 1,0,-1
 725.059 1231 l 1,1,-1
 265.059 1231 l 1,2,-1
 303.674 1450 l 1,3,-1
 1465.67 1450 l 1,4,-1
 1427.06 1231 l 1,5,-1
 965.059 1231 l 1,6,-1
 748 0 l 1,7,-1
 508 0 l 1,0,-1
EndSplineSet
EndChar
StartChar: U
Encoding: 85 85 57
Width: 1479
Flags: HW
HStem: -10 250<633 911.2> 1430 20G<161 411 1065 1314>
VStem: 161 250<419.59 1450> 1065 249<491.79 1450>
Fore
1320.67 1450 m 1,0,-1
 1569.67 1450 l 1,1,-1
 1413.98 567 l 2,2,3
 1312.24 -10 1312.24 -10 739.236 -10 c 0,4,5
 284.236 -10 284.236 -10 248.128 341 c 0,6,7
 238.231 438 238.231 438 260.978 567 c 2,8,-1
 416.674 1450 l 1,9,-1
 666.674 1450 l 1,10,-1
 511.153 568 l 2,11,12
 478.004 380 478.004 380 588.84 294 c 0,13,14
 658.318 240 658.318 240 779.318 240 c 0,15,16
 980.318 240 980.318 240 1086.83 379 c 0,17,18
 1145.32 455.5 1145.32 455.5 1165.15 568 c 2,19,-1
 1320.67 1450 l 1,0,-1
EndSplineSet
EndChar
StartChar: V
Encoding: 86 86 58
Width: 1366
Flags: HW
HStem: 0 21G<577 776> 1430 20G<9 344 1023 1350>
Fore
577 0 m 1,0,-1
 264.674 1450 l 1,1,-1
 599.674 1450 l 1,2,-1
 760.05 471 l 1,3,-1
 1278.67 1450 l 1,4,-1
 1605.67 1450 l 1,5,-1
 776 0 l 1,6,-1
 577 0 l 1,0,-1
EndSplineSet
EndChar
StartChar: W
Encoding: 87 87 59
Width: 1933
Flags: HW
HStem: 0 21G<366 618 1299 1566> 1430 20G<25 279 822 1092 1626 1897>
Fore
366 0 m 1,0,-1
 280.674 1450 l 1,1,-1
 534.674 1450 l 1,2,-1
 604.514 519 l 1,3,-1
 1077.67 1450 l 1,4,-1
 1347.67 1450 l 1,5,-1
 1500.51 519 l 1,6,-1
 1881.67 1450 l 1,7,-1
 2152.67 1450 l 1,8,-1
 1566 0 l 1,9,-1
 1299 0 l 1,10,-1
 1137.15 999 l 1,11,-1
 618 0 l 1,12,-1
 366 0 l 1,0,-1
EndSplineSet
EndChar
StartChar: X
Encoding: 88 88 60
Width: 1366
Flags: HW
HStem: 0 21G<9 319 1043 1353> 1430 20G<76 386 1003 1313>
Fore
9 0 m 1,0,-1
 627.303 756 l 1,1,-1
 331.674 1450 l 1,2,-1
 641.674 1450 l 1,3,-1
 852.39 972 l 1,4,-1
 1258.67 1450 l 1,5,-1
 1568.67 1450 l 1,6,-1
 1001.3 756 l 1,7,-1
 1353 0 l 1,8,-1
 1043 0 l 1,9,-1
 776.922 544 l 1,10,-1
 319 0 l 1,11,-1
 9 0 l 1,0,-1
EndSplineSet
EndChar
StartChar: Y
Encoding: 89 89 61
Width: 1366
Flags: HW
HStem: 0 21G<526 810> 1431 20G<6 326 1030 1350>
VStem: 526 284<0 621>
Fore
526 0 m 1,0,-1
 635.499 621 l 1,1,-1
 261.851 1451 l 1,2,-1
 581.851 1451 l 1,3,-1
 824.402 887 l 1,4,-1
 1285.85 1451 l 1,5,-1
 1605.85 1451 l 1,6,-1
 919.499 621 l 1,7,-1
 810 0 l 1,8,-1
 526 0 l 1,0,-1
EndSplineSet
EndChar
StartChar: Z
Encoding: 90 90 62
Width: 1251
Flags: HW
HStem: 0 230<375 1200> 1220 230<45 885>
Fore
41 0 m 1,0,-1
 82.7891 237 l 1,1,-1
 1100.12 1220 l 1,2,-1
 260.119 1220 l 1,3,-1
 300.674 1450 l 1,4,-1
 1468.67 1450 l 1,5,-1
 1428.12 1220 l 1,6,-1
 415.556 230 l 1,7,-1
 1240.55 230 l 1,8,-1
 1200 0 l 1,9,-1
 41 0 l 1,0,-1
EndSplineSet
EndChar
StartChar: bracketleft
Encoding: 91 91 63
Width: 569
Flags: HW
HStem: -407 188<359 536> 1278 188<359 536>
VStem: 139 220<-219 1278> 139 397<-407 -219 1278 1466>
Fore
67.2354 -407 m 1,0,-1
 397.495 1466 l 1,1,-1
 794.495 1466 l 1,2,-1
 761.346 1278 l 1,3,-1
 584.346 1278 l 1,4,-1
 320.385 -219 l 1,5,-1
 497.385 -219 l 1,6,-1
 464.235 -407 l 1,7,-1
 67.2354 -407 l 1,0,-1
EndSplineSet
EndChar
StartChar: backslash
Encoding: 92 92 64
Width: 569
Flags: HW
VStem: -39 648<-25 1491>
Fore
381.592 -25 m 1,0,-1
 223.903 1491 l 1,1,-1
 447.903 1491 l 1,2,-1
 604.592 -25 l 1,3,-1
 381.592 -25 l 1,0,-1
EndSplineSet
EndChar
StartChar: bracketright
Encoding: 93 93 65
Width: 569
Flags: HW
HStem: -407 188<39 218> 1277 189<39 218>
VStem: 39 397<-407 -219 1277 1466> 218 218<-219 1277>
Fore
364.235 -407 m 1,0,-1
 -32.7646 -407 l 1,1,-1
 0.384766 -219 l 1,2,-1
 179.385 -219 l 1,3,-1
 443.17 1277 l 1,4,-1
 264.17 1277 l 1,5,-1
 297.495 1466 l 1,6,-1
 694.495 1466 l 1,7,-1
 364.235 -407 l 1,0,-1
EndSplineSet
EndChar
StartChar: asciicircum
Encoding: 94 94 66
Width: 961
Flags: HW
HStem: 690 801<288 387>
VStem: 54 853<690 690>
Fore
409.666 690 m 1,0,-1
 175.666 690 l 1,1,-1
 649.903 1491 l 1,2,-1
 834.903 1491 l 1,3,-1
 1028.67 690 l 1,4,-1
 797.666 690 l 1,5,-1
 692.18 1209 l 1,6,-1
 409.666 690 l 1,0,-1
EndSplineSet
EndChar
StartChar: underscore
Encoding: 95 95 67
Width: 1139
Flags: HW
HStem: -427 190<-31 1162>
Fore
-106.292 -427 m 1,0,-1
 -72.7891 -237 l 1,1,-1
 1120.21 -237 l 1,2,-1
 1086.71 -427 l 1,3,-1
 -106.292 -427 l 1,0,-1
EndSplineSet
EndChar
StartChar: grave
Encoding: 96 96 68
Width: 682
Flags: HW
HStem: 1454 20G<60 360>
VStem: 60 435<1194 1474>
Fore
705.534 1194 m 1,0,-1
 501.534 1194 l 1,1,-1
 319.906 1474 l 1,2,-1
 619.906 1474 l 1,3,-1
 705.534 1194 l 1,0,-1
EndSplineSet
EndChar
StartChar: a
Encoding: 97 97 69
Width: 1139
Flags: HW
HStem: -24 179<407.781 566.716> 876 210<457.9 645.119>
VStem: 74 228<213.6 342.473> 776 219<325.938 487 674 740.56>
Fore
808.928 96 m 1,0,1
 681.529 3 681.529 3 548.179 -16 c 0,2,3
 493.769 -24 493.769 -24 432.769 -24 c 0,4,5
 258.769 -24 258.769 -24 178.933 62 c 0,6,7
 99.9199 147 99.9199 147 123.371 280 c 0,8,9
 161.458 496 161.458 496 409.035 573 c 0,10,11
 489.443 598 489.443 598 599.912 612 c 0,12,13
 770.438 632 770.438 632 894.845 674 c 1,14,-1
 901.132 721 l 2,15,16
 908.173 846 908.173 846 779.404 870 c 0,17,18
 748.463 876 748.463 876 712.463 876 c 0,19,20
 597.463 876 597.463 876 515.53 814 c 0,21,22
 470.535 780 470.535 780 446.542 729 c 1,23,-1
 238.832 759 l 1,24,25
 334.737 1008 334.737 1008 591.141 1067 c 0,26,27
 671.491 1086 671.491 1086 775.491 1086 c 0,28,29
 1050.49 1086 1050.49 1086 1114.81 946 c 2,30,-1
 1128.1 908 l 2,31,32
 1134.11 882.5 1134.11 882.5 1136.05 851 c 0,33,34
 1136.77 804 1136.77 804 1115.78 685 c 2,35,-1
 1073.47 445 l 2,36,37
 1029.74 197 1029.74 197 1028.57 128 c 0,38,39
 1028.76 61 1028.76 61 1052 0 c 1,40,-1
 814 0 l 1,41,42
 804.816 50 804.816 50 808.928 96 c 1,0,1
860.871 487 m 1,43,44
 769.229 455 769.229 455 597.35 433 c 0,45,46
 454.411 413.5 454.411 413.5 404.299 376 c 0,47,48
 362.744 344.5 362.744 344.5 352.959 289 c 0,49,50
 337.618 202 337.618 202 423.976 170 c 0,51,52
 461.831 155 461.831 155 514.331 155 c 0,53,54
 658.331 155 658.331 155 755.318 240 c 0,55,56
 780.021 261 780.021 261 801.312 291 c 0,57,58
 834.599 338 834.599 338 851.525 434 c 2,59,-1
 860.871 487 l 1,43,44
EndSplineSet
EndChar
StartChar: b
Encoding: 98 98 70
Width: 1139
Flags: HW
HStem: -10 208<505.3 715.9> 870 216<491.9 614.633> 1446 20G<134 358>
VStem: 134 224<990 1466> 134 211<0 84 372.9 648.5> 848 207<423.506 705.2>
Fore
345 0 m 1,0,-1
 134 0 l 1,1,-1
 392.495 1466 l 1,2,-1
 616.495 1466 l 1,3,-1
 532.563 990 l 1,4,5
 666.491 1086 666.491 1086 796.491 1086 c 0,6,7
 1009.49 1086 1009.49 1086 1105.28 926 c 2,8,-1
 1127.34 881 l 2,9,10
 1185.83 742 1185.83 742 1151.45 547 c 0,11,12
 1105.78 288 1105.78 288 950.98 136 c 0,13,14
 802.236 -10 802.236 -10 594.236 -10 c 0,15,16
 459.236 -10 459.236 -10 378.638 66 c 0,17,18
 366.4 76 366.4 76 359.812 84 c 1,19,-1
 345 0 l 1,0,-1
440.864 538 m 0,20,21
 407.361 348 407.361 348 480.316 257 c 0,22,23
 528.913 198 528.913 198 616.913 198 c 0,24,25
 772.266 200 772.266 200 864.717 333 c 0,26,27
 920.999 414 920.999 414 941.63 531 c 0,28,29
 977.071 732 977.071 732 887.412 819 c 0,30,31
 857.701 849 857.701 849 807.17 863 c 2,32,-1
 762.229 869 l 2,33,34
 756.404 870 756.404 870 742.404 870 c 0,35,36
 629.404 870 629.404 870 538.832 759 c 0,37,38
 463.081 664 463.081 664 440.864 538 c 0,20,21
EndSplineSet
EndChar
StartChar: c
Encoding: 99 99 71
Width: 1024
Flags: HW
HStem: -10 210<466.1 677.496> 879 207<434.5 643.36>
VStem: 80 225<387.7 589.586> 788 217<332.599 403 696 775.3>
Fore
859.06 403 m 1,0,-1
 1076.06 403 l 1,1,2
 1027.27 166 1027.27 166 842.403 59 c 0,3,4
 772.174 18 772.174 18 681.177 1 c 0,5,6
 621.236 -10 621.236 -10 561.236 -10 c 0,7,8
 347.236 -10 347.236 -10 239.804 135 c 128,-1,9
 132.371 280 132.371 280 171.337 518 c 2,10,-1
 172.924 527 l 2,11,12
 223.53 814 223.53 814 401.803 963 c 0,13,14
 547.491 1086 547.491 1086 755.491 1086 c 0,15,16
 959.491 1086 959.491 1086 1062.51 967 c 0,17,18
 1154.64 860 1154.64 860 1125.72 696 c 1,19,-1
 910.724 696 l 1,20,21
 924.945 788 924.945 788 849.467 842 c 0,22,23
 797.991 879 797.991 879 725.991 879 c 0,24,25
 568.991 879 568.991 879 474.424 734 c 0,26,27
 430.258 665 430.258 665 408.74 577 c 0,28,29
 401.451 547 401.451 547 398.806 532 c 0,30,31
 369.712 367 369.712 367 433.49 275 c 0,32,33
 486.266 200 486.266 200 596.266 200 c 0,34,35
 744.266 200 744.266 200 815.369 297 c 0,36,37
 845.951 340 845.951 340 859.06 403 c 1,0,-1
EndSplineSet
EndChar
StartChar: d
Encoding: 100 100 72
Width: 1139
Flags: HW
HStem: -10 208<407.1 617.7> 870 216<454.7 631.1> 1446 20G<765 989>
VStem: 68 207<423.506 705.2> 765 224<990 1466> 778 211<0 84 372.9 648.5>
Fore
792.812 84 m 1,0,1
 783.4 76 783.4 76 767.638 66 c 0,2,3
 660.236 -10 660.236 -10 525.236 -10 c 0,4,5
 317.236 -10 317.236 -10 219.98 136 c 0,6,7
 118.782 288 118.782 288 164.451 547 c 0,8,9
 205.183 778 205.183 778 344.278 926 c 0,10,11
 496.491 1086 496.491 1086 709.491 1086 c 0,12,13
 839.491 1086 839.491 1086 939.563 990 c 1,14,-1
 1023.5 1466 l 1,15,-1
 1247.5 1466 l 1,16,-1
 989 0 l 1,17,-1
 778 0 l 1,18,-1
 792.812 84 l 1,0,1
871.864 538 m 0,19,20
 894.081 664 894.081 664 851.832 759 c 0,21,22
 801.404 870 801.404 870 687.404 870 c 0,23,24
 595.404 870 595.404 870 524.412 819 c 0,25,26
 404.071 732 404.071 732 368.63 531 c 0,27,28
 347.999 414 347.999 414 375.717 333 c 0,29,30
 421.266 200 421.266 200 575.913 198 c 0,31,32
 663.913 198 663.913 198 733.316 257 c 0,33,34
 838.361 348 838.361 348 871.864 538 c 0,19,20
EndSplineSet
EndChar
StartChar: e
Encoding: 101 101 73
Width: 1139
Flags: HW
HStem: -10 214<498.8 705.5> 485 190<318 816> 875 211<460.2 615.53>
VStem: 75 243<522 691.656>
Fore
865.717 333 m 1,0,-1
 1106.72 333 l 1,1,2
 1036.21 143 1036.21 143 859.346 53 c 0,3,4
 736.236 -10 736.236 -10 579.236 -10 c 0,5,6
 290.236 -10 290.236 -10 195.62 185 c 0,7,8
 130.543 315 130.543 315 167.043 522 c 0,9,10
 215.974 799.5 215.974 799.5 389.687 951 c 0,11,12
 543.491 1086 543.491 1086 762.491 1086 c 0,13,14
 1002.49 1086 1002.49 1086 1103.52 916 c 0,15,16
 1189.12 772 1189.12 772 1150.04 539 c 0,17,18
 1146.87 521 1146.87 521 1138.52 485 c 1,19,-1
 397.519 485 l 1,20,21
 381.422 337 381.422 337 463.845 260 c 0,22,23
 521.971 204 521.971 204 617.971 204 c 0,24,25
 759.971 204 759.971 204 834.605 287 c 0,26,27
 853.133 307 853.133 307 865.717 333 c 1,0,-1
437.021 675 m 1,28,-1
 935.021 675 l 1,29,30
 948.112 857 948.112 857 760.109 874 c 0,31,32
 749.286 875 749.286 875 726.286 875 c 0,33,34
 597.286 875 597.286 875 511.532 797 c 2,35,-1
 484.596 769 l 2,36,37
 453.983 731.5 453.983 731.5 440.312 688 c 0,38,39
 438.607 684 438.607 684 437.021 675 c 1,28,-1
EndSplineSet
EndChar
StartChar: f
Encoding: 102 102 74
Width: 569
Flags: HW
HStem: 0 21G<153 380> 757 198<19 153 380 536> 1304 211<462 578.218>
VStem: 153 227<0 757 955 1215>
Fore
153 0 m 1,0,-1
 286.479 757 l 1,1,-1
 152.479 757 l 1,2,-1
 187.393 955 l 1,3,-1
 321.393 955 l 1,4,-1
 360.185 1175 l 2,5,6
 398.095 1390 398.095 1390 556.906 1474 c 0,7,8
 635.136 1515 635.136 1515 729.136 1515 c 0,9,10
 831.136 1515 831.136 1515 902.375 1488 c 1,11,-1
 865.17 1277 l 1,12,13
 792.754 1303 792.754 1303 765.931 1304 c 2,14,-1
 753.931 1304 l 2,15,16
 719.695 1305.5 719.695 1305.5 692.344 1295 c 0,17,18
 602.524 1262 602.524 1262 577.662 1121 c 2,19,-1
 548.393 955 l 1,20,-1
 704.393 955 l 1,21,-1
 669.479 757 l 1,22,-1
 513.479 757 l 1,23,-1
 380 0 l 1,24,-1
 153 0 l 1,0,-1
EndSplineSet
EndChar
StartChar: g
Encoding: 103 103 75
Width: 1139
Flags: HW
HStem: -435 219<439.1 697> 0 247<345 658.9> 839 247<414.5 610.617>
VStem: 66 249<335.5 649.937> 773 229<-96.5469 75> 836 166<974 1062>
Fore
88.9521 -74 m 1,0,-1
 301.952 -74 l 1,1,2
 292.606 -127 292.606 -127 337.201 -169 c 0,3,4
 387.913 -216 387.913 -216 482.913 -216 c 0,5,6
 718.913 -216 718.913 -216 775.821 16 c 2,7,-1
 787.225 75 l 1,8,9
 679.5 0 679.5 0 525 0 c 0,10,11
 306 0 306 0 210.036 159 c 0,12,13
 119.779 305 119.779 305 160.688 537 c 0,14,15
 204.417 785 204.417 785 354.689 934 c 0,16,17
 506.491 1086 506.491 1086 717.491 1086 c 128,-1,18
 928.491 1086 928.491 1086 1007.74 974 c 1,19,-1
 1023.26 1062 l 1,20,-1
 1189.26 1062 l 1,21,-1
 1027.39 144 l 2,22,23
 960.916 -233 960.916 -233 783.228 -356 c 0,24,25
 680.532 -428 680.532 -428 501.474 -434 c 2,26,-1
 445.298 -435 l 2,27,28
 185.298 -435 185.298 -435 108.336 -293 c 0,29,30
 64.2656 -214 64.2656 -214 85.7783 -92 c 2,31,-1
 88.9521 -74 l 1,0,-1
411.274 546 m 0,32,33
 358.553 247 358.553 247 583.553 247 c 0,34,35
 800.553 247 800.553 247 852.393 541 c 0,36,37
 891.185 761 891.185 761 776.588 820 c 0,38,39
 740.938 839 740.938 839 685.938 839 c 0,40,41
 542.938 839 542.938 839 464.958 703 c 0,42,43
 427.144 636 427.144 636 411.274 546 c 0,32,33
EndSplineSet
EndChar
StartChar: h
Encoding: 104 104 76
Width: 1139
Flags: HW
HStem: 0 21G<135 365 770 1000> 1446 20G<135 365>
VStem: 135 230<0 601 1008 1466> 770 230<0 757.9>
Fore
135 0 m 1,0,-1
 393.495 1466 l 1,1,-1
 623.495 1466 l 1,2,-1
 542.737 1008 l 1,3,4
 635.078 1095 635.078 1095 793.078 1095 c 0,5,6
 1018.08 1095 1018.08 1095 1093.92 941 c 0,7,8
 1147.06 834 1147.06 834 1118.67 673 c 2,9,-1
 1000 0 l 1,10,-1
 770 0 l 1,11,-1
 880.028 624 l 2,12,13
 907.183 778 907.183 778 826.06 817 c 0,14,15
 794.704 832 794.704 832 742.704 832 c 0,16,17
 627.704 832 627.704 832 541.779 719 c 0,18,19
 476.791 634 476.791 634 458.806 532 c 2,20,-1
 365 0 l 1,21,-1
 135 0 l 1,0,-1
EndSplineSet
EndChar
StartChar: i
Encoding: 105 105 77
Width: 455
Flags: HW
HStem: 0 21G<106 346> 1042 20G<106 346> 1218 248<111 342>
VStem: 111 231<0 1062 1218 1466>
Fore
325.767 1218 m 1,0,-1
 369.495 1466 l 1,1,-1
 600.495 1466 l 1,2,-1
 556.767 1218 l 1,3,-1
 325.767 1218 l 1,0,-1
106 0 m 1,4,-1
 293.259 1062 l 1,5,-1
 533.26 1062 l 1,6,-1
 346 0 l 1,7,-1
 106 0 l 1,4,-1
EndSplineSet
EndChar
StartChar: j
Encoding: 106 106 78
Width: 455
Flags: HW
HStem: -428 215<-67.8438 65> 1042 20G<112 340> 1220 246<112 340>
VStem: 112 228<-117.5 1062 1220 1466>
Fore
327.119 1220 m 1,0,-1
 370.495 1466 l 1,1,-1
 598.495 1466 l 1,2,-1
 555.119 1220 l 1,3,-1
 327.119 1220 l 1,0,-1
-166.646 -412 m 1,4,-1
 -130.147 -205 l 1,5,6
 -75.5576 -213 -75.5576 -213 -66.5576 -213 c 0,7,8
 23.4424 -213 23.4424 -213 62.1982 -152 c 0,9,10
 93.8379 -103 93.8379 -103 108.474 -20 c 2,11,-1
 299.259 1062 l 1,12,-1
 527.26 1062 l 1,13,-1
 329.773 -58 l 2,14,15
 280.049 -340 280.049 -340 114.411 -406 c 0,16,17
 59.5322 -428 59.5322 -428 -10.4678 -428 c 0,18,19
 -98.4678 -428 -98.4678 -428 -166.646 -412 c 1,4,-1
EndSplineSet
EndChar
StartChar: k
Encoding: 107 107 79
Width: 1024
Flags: HW
HStem: 0 21G<136 356 740 1016> 1042 20G<696 975> 1446 20G<136 356>
VStem: 136 220<0 390 684 1466>
Fore
136 0 m 1,0,-1
 394.495 1466 l 1,1,-1
 614.495 1466 l 1,2,-1
 476.607 684 l 1,3,-1
 883.26 1062 l 1,4,-1
 1162.26 1062 l 1,5,-1
 704.144 636 l 1,6,-1
 1016 0 l 1,7,-1
 740 0 l 1,8,-1
 528.342 484 l 1,9,-1
 424.768 390 l 1,10,-1
 356 0 l 1,11,-1
 136 0 l 1,0,-1
EndSplineSet
EndChar
StartChar: l
Encoding: 108 108 80
Width: 455
Flags: HW
HStem: 0 21G<104 340> 1446 20G<104 340>
VStem: 104 236<0 1466>
Fore
104 0 m 1,0,-1
 362.495 1466 l 1,1,-1
 598.495 1466 l 1,2,-1
 340 0 l 1,3,-1
 104 0 l 1,0,-1
EndSplineSet
EndChar
StartChar: m
Encoding: 109 109 81
Width: 1706
Flags: HW
HStem: 0 21G<135 362 742 986 1356 1574> 842 244<468.5 643.723 1139.37 1329.5>
VStem: 135 227<0 634.78> 742 244<0 682.324> 1356 218<0 815.9>
Fore
135 0 m 1,0,-1
 322.259 1062 l 1,1,-1
 530.26 1062 l 1,2,-1
 515.447 978 l 1,3,4
 636.491 1086 636.491 1086 809.491 1086 c 0,5,6
 978.991 1086 978.991 1086 1055.15 999 c 0,7,8
 1076.68 976.5 1076.68 976.5 1085.16 948 c 1,9,10
 1152.15 1033 1152.15 1033 1297.49 1069 c 0,11,12
 1370.49 1086 1370.49 1086 1437.49 1086 c 0,13,14
 1728.49 1086 1728.49 1086 1711.59 803 c 0,15,16
 1710.12 772 1710.12 772 1702.54 729 c 2,17,-1
 1574 0 l 1,18,-1
 1356 0 l 1,19,-1
 1473.96 669 l 2,20,21
 1496.59 837 1496.59 837 1354.47 842 c 0,22,23
 1162.47 842 1162.47 842 1106.79 668 c 0,24,25
 1099.55 644 1099.55 644 1094.79 617 c 2,26,-1
 986 0 l 1,27,-1
 742 0 l 1,28,-1
 863.666 690 l 2,29,30
 882.356 796 882.356 796 794.352 830 c 0,31,32
 764.467 842 764.467 842 726.467 842 c 0,33,34
 545.467 842 545.467 842 480.144 636 c 0,35,36
 467.268 597 467.268 597 459.156 551 c 2,37,-1
 362 0 l 1,38,-1
 135 0 l 1,0,-1
EndSplineSet
EndChar
StartChar: n
Encoding: 110 110 82
Width: 1139
Flags: HW
HStem: 0 21G<135 368 776 1000> 828 267<495.647 674.201>
VStem: 135 233<0 613.705 1012 1064> 776 224<0 770.9>
Fore
135 0 m 1,0,-1
 322.612 1064 l 1,1,-1
 555.612 1064 l 1,2,-1
 546.443 1012 l 1,3,4
 617.317 1068 617.317 1068 691.314 1085 c 0,5,6
 734.078 1095 734.078 1095 793.078 1095 c 0,7,8
 1018.08 1095 1018.08 1095 1093.92 941 c 0,9,10
 1147.06 834 1147.06 834 1118.67 673 c 2,11,-1
 1000 0 l 1,12,-1
 776 0 l 1,13,-1
 886.028 624 l 2,14,15
 915.827 793 915.827 793 801.94 822 c 0,16,17
 775.999 828 775.999 828 741.999 828 c 0,18,19
 598.999 828 598.999 828 521.605 701 c 0,20,21
 479.438 632 479.438 632 461.806 532 c 2,22,-1
 368 0 l 1,23,-1
 135 0 l 1,0,-1
EndSplineSet
EndChar
StartChar: o
Encoding: 111 111 83
Width: 1139
Flags: HW
HStem: -11 217<483.124 707.7> 864 222<421.7 642.7>
VStem: 68 241<349 643.608> 821 242<417.813 704.3>
Fore
161.63 531 m 0,0,1
 212.06 817 212.06 817 393.979 964 c 0,2,3
 545.491 1086 545.491 1086 757.491 1086 c 0,4,5
 1000.49 1086 1000.49 1086 1106.93 924 c 0,6,7
 1200.36 779 1200.36 779 1159.27 546 c 0,8,9
 1095.8 186 1095.8 186 852.874 56 c 0,10,11
 729.061 -11 729.061 -11 564.061 -11 c 0,12,13
 280.561 -11 280.561 -11 187.973 187 c 0,14,15
 124.425 320 124.425 320 161.63 531 c 0,0,1
402.277 529 m 0,16,17
 360.487 292 360.487 292 493.202 228 c 0,18,19
 537.323 206 537.323 206 602.323 206 c 0,20,21
 787.323 206 787.323 206 871.238 387 c 0,22,23
 900.611 451.5 900.611 451.5 915.158 534 c 0,24,25
 949.895 731 949.895 731 859.706 815 c 0,26,27
 807.347 864 807.347 864 718.347 864 c 0,28,29
 551.847 864 551.847 864 462.84 708 c 0,30,31
 420.438 632 420.438 632 402.277 529 c 0,16,17
EndSplineSet
EndChar
StartChar: p
Encoding: 112 112 84
Width: 1139
Flags: HW
HStem: -10 216<477.9 655.3> 878 208<492.3 702.9>
VStem: 120 224<-390 86> 120 211<427.5 703.1 992 1076> 834 207<370.8 652.494>
Fore
505.916 992 m 1,0,-1
 531.09 1010 l 2,1,2
 638.491 1086 638.491 1086 773.491 1086 c 0,3,4
 982.491 1086 982.491 1086 1078.75 940 c 0,5,6
 1179.95 788 1179.95 788 1134.28 529 c 0,7,8
 1093.54 298 1093.54 298 954.449 150 c 0,9,10
 803.236 -10 803.236 -10 589.236 -10 c 0,11,12
 459.236 -10 459.236 -10 359.164 86 c 1,13,-1
 275.232 -390 l 1,14,-1
 51.2324 -390 l 1,15,-1
 309.728 1076 l 1,16,-1
 520.728 1076 l 1,17,-1
 505.916 992 l 1,0,-1
426.864 538 m 0,18,19
 404.646 412 404.646 412 446.896 317 c 0,20,21
 498.323 206 498.323 206 612.323 206 c 0,22,23
 703.823 206 703.823 206 774.316 257 c 0,24,25
 894.656 344 894.656 344 930.099 545 c 0,26,27
 950.729 662 950.729 662 923.011 743 c 0,28,29
 877.639 877 877.639 877 723.815 878 c 0,30,31
 635.815 878 635.815 878 566.412 819 c 0,32,33
 460.542 729 460.542 729 426.864 538 c 0,18,19
EndSplineSet
EndChar
StartChar: q
Encoding: 113 113 85
Width: 1139
Flags: HW
HStem: -10 216<473.7 650.1> 878 208<426.1 636.7>
VStem: 87 207<370.8 652.494> 784 224<-390 86> 797 211<427.5 703.1 992 1076>
Fore
986.728 1076 m 1,0,-1
 1197.73 1076 l 1,1,-1
 939.232 -390 l 1,2,-1
 715.232 -390 l 1,3,-1
 799.164 86 l 1,4,5
 665.236 -10 665.236 -10 535.236 -10 c 0,6,7
 322.236 -10 322.236 -10 226.449 150 c 0,8,9
 139.546 298 139.546 298 180.277 529 c 0,10,11
 225.945 788 225.945 788 380.747 940 c 0,12,13
 529.491 1086 529.491 1086 737.491 1086 c 0,14,15
 872.491 1086 872.491 1086 953.09 1010 c 0,16,17
 965.327 1000 965.327 1000 971.916 992 c 1,18,-1
 986.728 1076 l 1,0,-1
890.864 538 m 0,19,20
 924.366 728 924.366 728 851.412 819 c 0,21,22
 802.815 878 802.815 878 714.815 878 c 0,23,24
 559.463 876 559.463 876 467.011 743 c 0,25,26
 410.729 662 410.729 662 390.099 545 c 0,27,28
 354.656 344 354.656 344 444.316 257 c 0,29,30
 496.323 206 496.323 206 589.323 206 c 0,31,32
 702.323 206 702.323 206 792.896 317 c 0,33,34
 868.646 412 868.646 412 890.864 538 c 0,19,20
EndSplineSet
EndChar
StartChar: r
Encoding: 114 114 86
Width: 682
Flags: HW
HStem: 0 21G<133 380> 1042 20G<133 362>
VStem: 133 229<947 1062> 133 247<0 602.494>
Fore
133 0 m 1,0,-1
 320.259 1062 l 1,1,-1
 549.26 1062 l 1,2,-1
 528.981 947 l 1,3,4
 572.737 1008 572.737 1008 605.617 1030 c 0,5,6
 622.557 1041 622.557 1041 648.496 1052 c 0,7,8
 651.672 1053 651.672 1053 660.789 1056.5 c 128,-1,9
 669.906 1060 669.906 1060 675.26 1062 c 0,10,11
 716.904 1077 716.904 1077 769.904 1077 c 0,12,13
 820.904 1077 820.904 1077 854.025 1055 c 2,14,-1
 891.264 1028 l 1,15,-1
 787.122 789 l 1,16,-1
 743.117 823 l 1,17,-1
 723.999 828 l 1,18,-1
 710.999 828 l 2,19,20
 677.999 828 677.999 828 645.06 817 c 0,21,22
 618.296 807 618.296 807 596.651 792 c 0,23,24
 525.363 745 525.363 745 490.502 604 c 0,25,26
 478.92 561 478.92 561 465.342 484 c 2,27,-1
 380 0 l 1,28,-1
 133 0 l 1,0,-1
EndSplineSet
EndChar
StartChar: s
Encoding: 115 115 87
Width: 1024
Flags: HW
HStem: -11 212<426.138 608.3> 875 211<399.5 588.552>
Fore
126.125 358 m 1,0,-1
 354.125 358 l 1,1,2
 350.079 267 350.079 267 428.85 226 c 0,3,4
 475.441 201 475.441 201 551.441 201 c 0,5,6
 659.441 201 659.441 201 726.963 255 c 0,7,8
 759.371 280 759.371 280 763.956 306 c 0,9,10
 777.181 381 777.181 381 730.941 408 c 0,11,12
 705.586 423 705.586 423 601.113 443 c 0,13,14
 394.989 482 394.989 482 319.63 531 c 0,15,16
 212.62 599 212.62 599 225.306 739 c 0,17,18
 227.891 765 227.891 765 230.535 780 c 0,19,20
 260.219 937 260.219 937 406.854 1020 c 0,21,22
 521.491 1086 521.491 1086 675.491 1086 c 0,23,24
 931.491 1086 931.491 1086 1013.04 953 c 0,25,26
 1058.05 876.5 1058.05 876.5 1039.71 764 c 1,27,-1
 813.714 764 l 1,28,29
 819.996 845 819.996 845 729.875 867 c 0,30,31
 696.286 875 696.286 875 651.286 875 c 0,32,33
 536.934 873 536.934 873 487.765 821 c 0,34,35
 470.767 804 470.767 804 467.064 783 c 2,36,-1
 466.183 778 l 2,37,38
 459.192 710 459.192 710 510.784 685 c 0,39,40
 531.845 674 531.845 674 632.318 654 c 0,41,42
 828.205 616.5 828.205 616.5 905.506 570 c 0,43,44
 977.336 526.5 977.336 526.5 999.405 456 c 0,45,46
 1015.35 399 1015.35 399 1002.31 325 c 0,47,48
 973.918 164 973.918 164 822.52 71 c 0,49,50
 690.061 -11 690.061 -11 515.061 -11 c 0,51,52
 249.561 -11 249.561 -11 161.567 145 c 0,53,54
 112.556 230 112.556 230 126.125 358 c 1,0,-1
EndSplineSet
EndChar
StartChar: t
Encoding: 116 116 88
Width: 569
Flags: HW
HStem: -13 204<411 526.316> 892 196<18 140 372 497>
VStem: 140 232<227.921 892 1088 1433>
Fore
563.089 199 m 1,0,-1
 554.353 2 l 1,1,2
 479.708 -13 479.708 -13 408.708 -13 c 0,3,4
 288.708 -13 288.708 -13 244.645 15 c 2,5,-1
 240.998 17 l 2,6,7
 185.227 58 185.227 58 178.923 130 c 0,8,9
 173.149 188 173.149 188 194.838 311 c 2,10,-1
 297.283 892 l 1,11,-1
 175.283 892 l 1,12,-1
 209.844 1088 l 1,13,-1
 331.844 1088 l 1,14,-1
 392.677 1433 l 1,15,-1
 624.677 1433 l 1,16,-1
 563.844 1088 l 1,17,-1
 688.844 1088 l 1,18,-1
 654.283 892 l 1,19,-1
 529.283 892 l 1,20,-1
 425.074 301 l 2,21,22
 416.61 253 416.61 253 422.966 238 c 2,23,-1
 424.908 232 l 2,24,25
 431.263 217 431.263 217 449.147 205 c 0,26,27
 469.679 191 469.679 191 507.679 191 c 1,28,-1
 525.119 193.5 l 2,29,30
 542.561 196 542.561 196 563.089 199 c 1,0,-1
EndSplineSet
EndChar
StartChar: u
Encoding: 117 117 89
Width: 1139
Flags: HW
HStem: -10 253<461.502 632.977> 1065 20G<104 330 726 969>
VStem: 104 226<331 1085> 726 243<390.939 1085>
Fore
1160.31 1085 m 1,0,-1
 969 0 l 1,1,-1
 789 0 l 1,2,-1
 800.285 64 l 1,3,4
 743.027 11.5 743.027 11.5 611.118 -5 c 0,5,6
 568.236 -10 568.236 -10 535.236 -10 c 0,7,8
 281.236 -10 281.236 -10 200.92 147 c 0,9,10
 148.082 250 148.082 250 176.646 412 c 2,11,-1
 295.314 1085 l 1,12,-1
 521.314 1085 l 1,13,-1
 411.287 461 l 2,14,15
 384.661 310 384.661 310 488.021 261 c 0,16,17
 524.848 243 524.848 243 576.848 243 c 0,18,19
 738.848 243 738.848 243 789.768 390 c 0,20,21
 800.586 423 800.586 423 806.405 456 c 2,22,-1
 917.314 1085 l 1,23,-1
 1160.31 1085 l 1,0,-1
EndSplineSet
EndChar
StartChar: v
Encoding: 118 118 90
Width: 1024
Flags: HW
HStem: 0 21G<429 599> 1042 20G<26 268 760 1000>
VStem: 26 974<1062 1062>
Fore
429 0 m 1,0,-1
 213.259 1062 l 1,1,-1
 455.259 1062 l 1,2,-1
 583.478 360 l 1,3,-1
 947.26 1062 l 1,4,-1
 1187.26 1062 l 1,5,-1
 599 0 l 1,6,-1
 429 0 l 1,0,-1
EndSplineSet
EndChar
StartChar: w
Encoding: 119 119 91
Width: 1479
Flags: HW
HStem: 0 21G<296 544 956 1200> 1042 20G<6 256 648 832 1236 1463>
Fore
296 0 m 1,0,-1
 193.259 1062 l 1,1,-1
 443.259 1062 l 1,2,-1
 488.183 364 l 1,3,-1
 835.26 1062 l 1,4,-1
 1019.26 1062 l 1,5,-1
 1133.18 364 l 1,6,-1
 1423.26 1062 l 1,7,-1
 1650.26 1062 l 1,8,-1
 1200 0 l 1,9,-1
 956 0 l 1,10,11
 933.969 221 933.969 221 859.197 676 c 1,12,-1
 544 0 l 1,13,-1
 296 0 l 1,0,-1
EndSplineSet
EndChar
StartChar: x
Encoding: 120 120 92
Width: 1024
Flags: HW
HStem: 0 21G<15 284 732 1009> 1042 20G<44 324 700 981>
VStem: 15 994<0 0>
Fore
15 0 m 1,0,-1
 443.332 552 l 1,1,-1
 231.259 1062 l 1,2,-1
 511.259 1062 l 1,3,-1
 630.188 744 l 1,4,-1
 887.26 1062 l 1,5,-1
 1168.26 1062 l 1,6,-1
 756.096 562 l 1,7,-1
 1009 0 l 1,8,-1
 732 0 l 1,9,-1
 570.064 369 l 1,10,-1
 284 0 l 1,11,-1
 15 0 l 1,0,-1
EndSplineSet
EndChar
StartChar: y
Encoding: 121 121 93
Width: 1024
Flags: HW
HStem: -422 216<159.564 296.712> 1042 20G<33 292 744 1006>
VStem: 33 973<1062 1062>
Fore
54.8818 -409 m 1,0,-1
 73.1455 -192 l 1,1,2
 123.677 -206 123.677 -206 177.677 -206 c 0,3,4
 247.677 -206 247.677 -206 294.732 -183 c 0,5,6
 392.667 -138 392.667 -138 407.479 -54 c 0,7,8
 411.975 -28.5 411.975 -28.5 408 0 c 2,9,-1
 220.259 1062 l 1,10,-1
 479.259 1062 l 1,11,-1
 590.594 372 l 1,12,-1
 931.26 1062 l 1,13,-1
 1193.26 1062 l 1,14,-1
 624 0 l 1,15,16
 572.732 -183 572.732 -183 457.749 -302 c 0,17,18
 416.167 -345 416.167 -345 353.877 -375 c 0,19,20
 265.648 -416 265.648 -416 164.59 -422 c 2,21,-1
 110.767 -421 l 2,22,23
 78.2949 -418 78.2949 -418 54.8818 -409 c 1,0,-1
EndSplineSet
EndChar
StartChar: z
Encoding: 122 122 94
Width: 1024
Flags: HW
HStem: 0 212<344 980> 864 198<60 664>
Fore
40 0 m 1,0,-1
 77.3809 212 l 1,1,-1
 816.347 864 l 1,2,-1
 212.347 864 l 1,3,-1
 247.259 1062 l 1,4,-1
 1135.26 1062 l 1,5,-1
 1100.35 864 l 1,6,-1
 381.381 212 l 1,7,-1
 1017.38 212 l 1,8,-1
 980 0 l 1,9,-1
 40 0 l 1,0,-1
EndSplineSet
EndChar
StartChar: braceleft
Encoding: 123 123 95
Width: 684
Flags: HW
VStem: 264 220<-127.625 271.056 795.1 1212.14> 277 211.343<1031.07 1270>
Fore
164.912 612 m 1,0,1
 241.677 613.5 241.677 613.5 298.317 654 c 0,2,3
 352.371 694 352.371 694 381.361 762 c 0,4,5
 407.822 827 407.822 827 442.267 1011 c 0,6,7
 476.534 1194 476.534 1194 500.936 1270 c 0,8,9
 527.865 1349 527.865 1349 579.034 1401 c 0,10,11
 629.026 1452 629.026 1452 698.082 1475 c 0,12,13
 742.903 1491 742.903 1491 842.903 1491 c 2,14,-1
 898.903 1491 l 1,15,-1
 861.698 1280 l 1,16,-1
 830.698 1280 l 2,17,18
 788.698 1280 788.698 1280 774.464 1273 c 1,19,-1
 749.114 1254 l 2,20,21
 712.354 1227 712.354 1227 693.539 1160 c 0,22,23
 681.134 1118 681.134 1118 656.977 981 c 0,24,25
 619.243 767 619.243 767 556.197 676 c 2,26,-1
 518.852 623 l 2,27,28
 469.92 561 469.92 561 401.453 530 c 1,29,30
 438.456 513 438.456 513 455.695 486 c 2,31,-1
 486.115 426 l 2,32,33
 521.654 361 521.654 361 518.905 249 c 0,34,35
 516.003 181.5 516.003 181.5 482.942 -6 c 0,36,37
 459.843 -137 459.843 -137 487.319 -174 c 2,38,-1
 501.439 -196 l 2,39,40
 513.619 -212 513.619 -212 567.619 -212 c 2,41,-1
 598.619 -212 l 1,42,-1
 560.003 -431 l 1,43,-1
 504.003 -431 l 2,44,45
 419.003 -431 419.003 -431 381.942 -420 c 0,46,47
 327.94 -403 327.94 -403 298.054 -374 c 0,48,49
 267.52 -343 267.52 -343 251.513 -292 c 0,50,51
 236.24 -242.5 236.24 -242.5 242.316 -157 c 0,52,53
 246.838 -103 246.838 -103 275.108 63 c 0,54,55
 303.437 235 303.437 235 299.546 298 c 0,56,57
 295.712 367 295.712 367 254.765 407 c 0,58,59
 212.406 447.5 212.406 447.5 136.171 449 c 1,60,-1
 164.912 612 l 1,0,1
EndSplineSet
EndChar
StartChar: bar
Encoding: 124 124 96
Width: 532
Flags: HW
VStem: 140 250<-431 1491>
Fore
64.0029 -431 m 1,0,-1
 402.903 1491 l 1,1,-1
 652.903 1491 l 1,2,-1
 314.003 -431 l 1,3,-1
 64.0029 -431 l 1,0,-1
EndSplineSet
EndChar
StartChar: braceright
Encoding: 125 125 97
Width: 684
Flags: HW
VStem: 199 220<-127.625 271.056 795.1 1212.14>
Fore
733.912 612 m 1,0,-1
 705.171 449 l 1,1,2
 628.406 447.5 628.406 447.5 571.765 407 c 0,3,4
 516.712 367 516.712 367 488.546 298 c 0,5,6
 462.437 235 462.437 235 430.108 63 c 0,7,8
 398.485 -105 398.485 -105 385.316 -157 c 0,9,10
 361.24 -242.5 361.24 -242.5 328.513 -292 c 0,11,12
 294.52 -343 294.52 -343 253.054 -374 c 0,13,14
 212.94 -403 212.94 -403 152.942 -420 c 0,15,16
 112.003 -431 112.003 -431 27.0029 -431 c 2,17,-1
 -28.9971 -431 l 1,18,-1
 9.61914 -212 l 1,19,-1
 40.6191 -212 l 2,20,21
 94.6191 -212 94.6191 -212 112.439 -196 c 2,22,-1
 134.319 -174 l 2,23,24
 174.843 -137 174.843 -137 197.942 -6 c 0,25,26
 231.003 181.5 231.003 181.5 251.905 249 c 0,27,28
 288.654 361 288.654 361 347.115 426 c 2,29,-1
 398.695 486 l 2,30,31
 425.456 513 425.456 513 468.453 530 c 1,32,33
 409.096 562 409.096 562 384.676 622 c 1,34,35
 381.557 627 381.557 627 365.197 676 c 0,36,37
 334.243 767 334.243 767 371.977 981 c 0,38,39
 396.134 1118 396.134 1118 398.539 1160 c 0,40,41
 403.354 1227 403.354 1227 376.114 1254 c 2,42,-1
 357.464 1273 l 1,43,-1
 338.346 1278 l 2,44,45
 322.698 1280 322.698 1280 303.698 1280 c 2,46,-1
 272.698 1280 l 1,47,-1
 309.903 1491 l 1,48,-1
 365.903 1491 l 2,49,50
 465.903 1491 465.903 1491 505.082 1475 c 0,51,52
 566.026 1452 566.026 1452 598.034 1401 c 0,53,54
 630.865 1349 630.865 1349 629.936 1270 c 0,55,56
 627.534 1194 627.534 1194 597.267 1011 c 0,57,58
 566.822 827 566.822 827 570.361 762 c 0,59,60
 575.371 694 575.371 694 615.318 654 c 0,61,62
 657.677 613.5 657.677 613.5 733.912 612 c 1,0,-1
EndSplineSet
EndChar
StartChar: asciitilde
Encoding: 126 126 98
Width: 1196
Flags: HW
HStem: 531 237<777.939 918.62> 665 237<271.961 421.282>
VStem: 87 1023<645 782 529 905>
Fore
180.277 529 m 1,0,-1
 224.888 782 l 1,1,2
 353.047 902 353.047 902 524.047 902 c 0,3,4
 584.047 902 584.047 902 646.873 884 c 0,5,6
 710.875 867 710.875 867 822.706 815 c 0,7,8
 890.417 785 890.417 785 919.006 777 c 0,9,10
 951.419 768 951.419 768 987.419 768 c 0,11,12
 1052.42 768 1052.42 768 1128.3 807 c 0,13,14
 1204 845 1204 845 1269.58 905 c 1,15,-1
 1223.73 645 l 1,16,17
 1148.15 585 1148.15 585 1078.39 558 c 0,18,19
 1009.13 531 1009.13 531 926.63 531 c 0,20,21
 869.63 531 869.63 531 814.099 545 c 0,22,23
 768.214 557 768.214 557 653.912 612 c 0,24,25
 543.258 665 543.258 665 465.258 665 c 0,26,27
 400.758 665 400.758 665 340.497 638 c 0,28,29
 277.383 609 277.383 609 180.277 529 c 1,0,-1
EndSplineSet
EndChar
StartChar: exclamdown
Encoding: 161 161 100
Width: 680
Flags: HW
HStem: 0 21G<228 452> 1059 20G<256 422> 1278 211<238 442>
VStem: 228 224<0 220.979> 238 204<1278 1489> 256 166<858.021 1079>
Fore
667.346 1278 m 1,0,-1
 463.346 1278 l 1,1,-1
 500.551 1489 l 1,2,-1
 704.551 1489 l 1,3,-1
 667.346 1278 l 1,0,-1
452 0 m 1,4,-1
 228 0 l 1,5,-1
 446.257 1079 l 1,6,-1
 612.257 1079 l 1,7,-1
 452 0 l 1,4,-1
EndSplineSet
EndChar
StartChar: cent
Encoding: 162 162 101
Width: 1118
Flags: HW
HStem: 1455 20G<557 671>
VStem: 114 193<394.5 716.9> 557 114<-361 1 146 971 1116 1475>
Fore
557.353 2 m 1,0,1
 346.938 28 346.938 28 258.152 171 c 0,2,3
 169.543 315 169.543 315 212.214 557 c 0,4,5
 254.18 795 254.18 795 398.276 943 c 128,-1,6
 542.373 1091 542.373 1091 753.604 1115 c 1,7,-1
 817.082 1475 l 1,8,-1
 931.082 1475 l 1,9,-1
 867.781 1116 l 1,10,11
 953.252 1113 953.252 1113 1030.2 1090 c 0,12,13
 1105.96 1066 1105.96 1066 1157.85 1037 c 1,14,-1
 1122.59 837 l 1,15,-1
 1112.59 837 l 1,16,17
 1058.75 889 1058.75 889 996.279 926 c 0,18,19
 932.391 963.5 932.391 963.5 843.271 977 c 1,20,-1
 695.862 141 l 1,21,22
 742.567 145 742.567 145 798.918 164 c 0,23,24
 849.092 182 849.092 182 888.618 202 c 0,25,26
 926.145 222 926.145 222 960.023 244 c 0,27,28
 984.669 259 984.669 259 1014.55 281 c 1,29,-1
 1024.55 281 l 1,30,-1
 989.635 83 l 1,31,32
 919.346 53 919.346 53 845.29 30 c 0,33,34
 766.882 5 766.882 5 671.177 1 c 1,35,-1
 607.346 -361 l 1,36,-1
 493.346 -361 l 1,37,-1
 557.353 2 l 1,0,1
582.744 146 m 1,38,-1
 728.214 971 l 1,39,40
 609.511 950 609.511 950 523.173 846 c 0,41,42
 437.835 742 437.835 742 405.214 557 c 0,43,44
 371.889 368 371.889 368 423.256 268 c 0,45,46
 473.271 166 473.271 166 582.744 146 c 1,38,-1
EndSplineSet
EndChar
StartChar: sterling
Encoding: 163 163 102
Width: 1118
Flags: HW
HStem: 0 171<261 1031> 613 138<130 291 483 847> 1351 167<620.4 812.8>
VStem: 291 192<474 613 751 1149>
Fore
1031 0 m 1,0,-1
 89 0 l 1,1,-1
 125.5 207 l 1,2,3
 241.318 240 241.318 240 305.069 335 c 0,4,5
 366.82 430 366.82 430 399.089 613 c 1,6,-1
 238.089 613 l 1,7,-1
 262.422 751 l 1,8,-1
 423.422 751 l 1,9,-1
 479.846 1071 l 2,10,11
 515.111 1271 515.111 1271 652.977 1395 c 0,12,13
 789.664 1518 789.664 1518 975.664 1518 c 0,14,15
 1074.66 1518 1074.66 1518 1138.84 1502 c 0,16,17
 1195.55 1489 1195.55 1489 1260.2 1470 c 1,18,-1
 1223.88 1264 l 1,19,-1
 1213.88 1264 l 1,20,21
 1160.28 1306 1160.28 1306 1096.16 1328 c 0,22,23
 1028.22 1351 1028.22 1351 965.218 1351 c 0,24,25
 842.218 1351 842.218 1351 768.641 1274 c 0,26,27
 694.24 1198 694.24 1198 668.496 1052 c 2,28,-1
 615.422 751 l 1,29,-1
 979.422 751 l 1,30,-1
 955.089 613 l 1,31,-1
 591.089 613 l 1,32,-1
 580.332 552 l 2,33,34
 559.35 433 559.35 433 483.951 340 c 0,35,36
 410.023 244 410.023 244 293.092 182 c 1,37,-1
 291.152 171 l 1,38,-1
 1061.15 171 l 1,39,-1
 1031 0 l 1,0,-1
EndSplineSet
EndChar
StartChar: currency
Encoding: 164 164 103
Width: 1118
Flags: HW
HStem: 326 138<491.1 626.3> 858 138<493.7 628.9>
VStem: 225 143<592.1 732.5> 752 144<589.5 729.9>
Fore
1104.96 272 m 1,0,-1
 980.271 166 l 1,1,-1
 803.651 378 l 1,2,3
 756.067 352 756.067 352 712.599 338 c 0,4,5
 671.482 326 671.482 326 617.482 326 c 0,6,7
 570.482 326 570.482 326 528.128 341 c 0,8,9
 486.596 355 486.596 355 451.828 379 c 1,10,-1
 198.918 164 l 1,11,-1
 113.138 273 l 1,12,-1
 362.695 486 l 1,13,14
 346.866 521 346.866 521 338.859 572 c 0,15,16
 335.028 624 335.028 624 341.552 661 c 0,17,18
 348.605 701 348.605 701 370.245 750 c 0,19,20
 394.532 797 394.532 797 425.233 835 c 1,21,-1
 250.319 1051 l 1,22,-1
 376.011 1157 l 1,23,-1
 552.453 944 l 1,24,25
 596.861 969 596.861 969 642.153 982 c 0,26,27
 692.622 996 692.622 996 735.622 996 c 0,28,29
 788.622 996 788.622 996 830.801 980 c 0,30,31
 871.332 966 871.332 966 902.629 945 c 1,32,-1
 1152.01 1157 l 1,33,-1
 1242.5 1052 l 1,34,-1
 990.409 836 l 1,35,36
 1009.83 793 1009.83 793 1015.77 753 c 0,37,38
 1021.9 714 1021.9 714 1012.55 661 c 0,39,40
 1004.79 617 1004.79 617 982.506 570 c 0,41,42
 960.571 525 960.571 525 928.695 486 c 1,43,-1
 1104.96 272 l 1,0,-1
868.552 661 m 0,44,45
 882.306 739 882.306 739 837.062 800 c 0,46,47
 789.289 858 789.289 858 711.289 858 c 0,48,49
 634.289 858 634.289 858 567.062 800 c 0,50,51
 499.011 743 499.011 743 484.552 661 c 0,52,53
 470.799 583 470.799 583 516.043 522 c 0,54,55
 563.815 464 563.815 464 641.815 464 c 0,56,57
 718.815 464 718.815 464 786.043 522 c 0,58,59
 854.094 579 854.094 579 868.552 661 c 0,44,45
EndSplineSet
EndChar
StartChar: yen
Encoding: 165 165 104
Width: 1118
Flags: HW
HStem: 0 21G<465 653> 440 138<125 465 653 993>
VStem: 467 184<0 440 578 657>
Fore
1321.55 1489 m 1,0,-1
 770.55 678 l 1,1,-1
 752.917 578 l 1,2,-1
 1094.92 578 l 1,3,-1
 1070.58 440 l 1,4,-1
 730.584 440 l 1,5,-1
 653 0 l 1,6,-1
 465 0 l 1,7,-1
 542.584 440 l 1,8,-1
 202.584 440 l 1,9,-1
 226.917 578 l 1,10,-1
 568.917 578 l 1,11,-1
 582.847 657 l 1,12,-1
 318.551 1489 l 1,13,-1
 528.551 1489 l 1,14,-1
 709.878 850 l 1,15,-1
 1120.55 1489 l 1,16,-1
 1321.55 1489 l 1,0,-1
EndSplineSet
EndChar
StartChar: brokenbar
Encoding: 166 166 105
Width: 783
Flags: HW
VStem: 308 167<-392 406 758 1556>
Fore
608.656 758 m 1,0,-1
 441.656 758 l 1,1,-1
 582.365 1556 l 1,2,-1
 749.365 1556 l 1,3,-1
 608.656 758 l 1,0,-1
405.88 -392 m 1,4,-1
 238.88 -392 l 1,5,-1
 379.589 406 l 1,6,-1
 546.589 406 l 1,7,-1
 405.88 -392 l 1,4,-1
EndSplineSet
EndChar
StartChar: section
Encoding: 167 167 106
Width: 1118
Flags: HW
HStem: -385 165<391.233 609.091> 1355 164<507.927 720.629>
VStem: 119 189<503.28 615.722> 148 192<1103.12 1252.7> 776 193<-90.4251 36.2955> 810 188<507.4 629.787>
Fore
829.707 401 m 0,0,1
 861.055 437 861.055 437 878.521 468 c 0,2,3
 897.987 499 897.987 499 907.861 555 c 0,4,5
 916.325 603 916.325 603 908.85 640 c 0,6,7
 899.373 677 899.373 677 879.253 699 c 0,8,9
 860.132 721 860.132 721 830.129 738 c 0,10,11
 805.422 751 805.422 751 761.066 766 c 0,12,13
 729.83 776 729.83 776 687.945 788 c 2,14,-1
 594.412 819 l 1,15,16
 572.796 807 572.796 807 547.122 789 c 0,17,18
 521.771 770 521.771 770 491.129 738 c 0,19,20
 469.074 715 469.074 715 441.786 668 c 0,21,22
 417.676 622 417.676 622 410.094 579 c 0,23,24
 395.987 499 395.987 499 425.347 450 c 0,25,26
 453.884 402 453.884 402 557.064 369 c 2,27,-1
 631.009 346 l 1,28,-1
 722.543 315 l 1,29,30
 740.307 325 740.307 325 772.361 348 c 0,31,32
 800.889 368 800.889 368 829.707 401 c 0,0,1
158.549 -133 m 1,33,34
 166.667 -138 166.667 -138 217.435 -162 c 0,35,36
 247.967 -176 247.967 -176 287.498 -190 c 0,37,38
 336.5 -207 336.5 -207 370.619 -212 c 0,39,40
 405.208 -220 405.208 -220 470.208 -220 c 0,41,42
 581.208 -220 581.208 -220 669.319 -174 c 0,43,44
 753.959 -125 753.959 -125 769.652 -36 c 0,45,46
 779.174 18 779.174 18 767.169 52 c 0,47,48
 753.164 86 753.164 86 717.572 111 c 0,49,50
 680.98 136 680.98 136 621.154 154 c 2,51,-1
 493.854 192 l 2,52,53
 408.439 218 408.439 218 356.848 243 c 0,54,55
 302.256 268 302.256 268 263.014 312 c 0,56,57
 225.891 351 225.891 351 212.765 407 c 0,58,59
 200.11 460 200.11 460 212.982 533 c 0,60,61
 229.557 627 229.557 627 293.545 712 c 0,62,63
 358.532 797 358.532 797 469.288 858 c 1,64,-1
 470.522 865 l 1,65,66
 389.163 914 389.163 914 361.858 986 c 0,67,68
 334.201 1056 334.201 1056 350.247 1147 c 0,69,70
 379.87 1315 379.87 1315 525.855 1417 c 128,-1,71
 671.841 1519 671.841 1519 895.841 1519 c 0,72,73
 983.841 1519 983.841 1519 1050.55 1506 c 0,74,75
 1126.9 1491 1126.9 1491 1203.79 1462 c 1,76,-1
 1169.58 1268 l 1,77,-1
 1159.58 1268 l 1,78,79
 1077.52 1313 1077.52 1313 1003.22 1334 c 0,80,81
 930.923 1355 930.923 1355 845.923 1355 c 0,82,83
 733.423 1355 733.423 1355 648.988 1310 c 0,84,85
 562.877 1264 562.877 1264 547.36 1176 c 0,86,87
 537.486 1120 537.486 1120 550.962 1083 c 0,88,89
 565.438 1046 565.438 1046 600.559 1024 c 0,90,91
 634.503 1001 634.503 1001 692.977 981 c 0,92,93
 747.627 962 747.627 962 823.1 942 c 0,94,95
 996.46 893 996.46 893 1063.53 814 c 0,96,97
 1127.51 734.5 1127.51 734.5 1103.97 601 c 0,98,99
 1084.93 493 1084.93 493 1016.65 412 c 0,100,101
 946.188 330 946.188 330 847.843 277 c 1,102,-1
 846.608 270 l 1,103,104
 926.321 223 926.321 223 955.154 154 c 0,105,106
 983.635 83 983.635 83 967.236 -10 c 0,107,108
 954.541 -82 954.541 -82 910.669 -155 c 0,109,110
 863.798 -228 863.798 -228 799.687 -274 c 0,111,112
 727.165 -328 727.165 -328 637.228 -356 c 0,113,114
 543.114 -385 543.114 -385 422.114 -385 c 0,115,116
 346.114 -385 346.114 -385 267.583 -371 c 0,117,118
 193.875 -358 193.875 -358 114.341 -327 c 1,119,-1
 148.549 -133 l 1,120,-1
 158.549 -133 l 1,33,34
EndSplineSet
EndChar
StartChar: dieresis
Encoding: 168 168 107
Width: 1118
Flags: HW
HStem: 1304 195<253 454 666 867>
VStem: 253 201<1304 1499> 666 201<1304 1499>
Fore
1096.93 1304 m 1,0,-1
 895.931 1304 l 1,1,-1
 930.314 1499 l 1,2,-1
 1131.31 1499 l 1,3,-1
 1096.93 1304 l 1,0,-1
683.931 1304 m 1,4,-1
 482.931 1304 l 1,5,-1
 517.314 1499 l 1,6,-1
 718.314 1499 l 1,7,-1
 683.931 1304 l 1,4,-1
EndSplineSet
EndChar
StartChar: copyright
Encoding: 169 169 108
Width: 1902
Flags: HW
HStem: -210 110<682.9 1221.1> 180 147<872.9 1072.79> 996 147<879.4 1066.8> 1409 110<682.9 1221.1>
VStem: 86 117<383.3 926.7> 531 185<519.6 809.5> 1701 115<383.3 926.7>
Fore
1931.49 655 m 0,0,1
 1868.02 295 1868.02 295 1569.76 44 c 0,2,3
 1273.97 -210 1273.97 -210 913.972 -210 c 128,-1,4
 553.972 -210 553.972 -210 347.759 44 c 0,5,6
 138.017 295 138.017 295 201.494 655 c 0,7,8
 264.619 1013 264.619 1013 563.23 1266 c 0,9,10
 859.841 1519 859.841 1519 1218.84 1519 c 128,-1,11
 1577.84 1519 1577.84 1519 1785.23 1266 c 0,12,13
 1994.62 1013 1994.62 1013 1931.49 655 c 0,0,1
1816.49 655 m 0,14,15
 1871.86 969 1871.86 969 1691.48 1188 c 0,16,17
 1510.44 1409 1510.44 1409 1200.44 1409 c 128,-1,18
 890.444 1409 890.444 1409 631.477 1188 c 0,19,20
 373.861 969 373.861 969 318.494 655 c 0,21,22
 263.216 341.5 263.216 341.5 443.336 121 c 0,23,24
 625.367 -100 625.367 -100 934.367 -100 c 128,-1,25
 1243.37 -100 1243.37 -100 1503.34 121 c 0,26,27
 1761.22 341.5 1761.22 341.5 1816.49 655 c 0,14,15
1318.96 255 m 1,28,29
 1254.2 228 1254.2 228 1175.62 202 c 0,30,31
 1100.74 180 1100.74 180 1013.74 180 c 0,32,33
 804.739 180 804.739 180 705.604 304 c 0,34,35
 606.115 426 606.115 426 647.376 660 c 0,36,37
 687.755 889 687.755 889 835.148 1016 c 0,38,39
 981.542 1143 981.542 1143 1183.54 1143 c 0,40,41
 1267.54 1143 1267.54 1143 1338.66 1121 c 128,-1,42
 1409.78 1099 1409.78 1099 1462.67 1070 c 1,43,-1
 1430.75 889 l 1,44,-1
 1414.75 889 l 1,45,46
 1378.28 926 1378.28 926 1308.63 962 c 0,47,48
 1235.62 996 1235.62 996 1161.62 996 c 0,49,50
 1037.62 996 1037.62 996 951.163 914 c 0,51,52
 862.881 833 862.881 833 832.376 660 c 0,53,54
 803.811 498 803.811 498 858.646 412 c 0,55,56
 914.659 327 914.659 327 1043.66 327 c 0,57,58
 1128.66 327 1128.66 327 1209.18 364 c 0,59,60
 1292.71 401 1292.71 401 1334.53 434 c 1,61,-1
 1350.53 434 l 1,62,-1
 1318.96 255 l 1,28,29
EndSplineSet
EndChar
StartChar: ordfeminine
Encoding: 170 170 109
Width: 1010
Flags: HW
HStem: 541 155<381.049 518.441> 1030.26 132.744<389.974 751.319> 1365 154<379.788 595.933>
VStem: 114 172<784 913.86> 708 166<566 657 802 1045 1184 1257.94>
Fore
973.801 566 m 1,0,-1
 807.801 566 l 1,1,-1
 823.847 657 l 1,2,-1
 765.97 618 l 2,3,4
 726.562 593 726.562 593 696.446 581 c 0,5,6
 650.92 561 650.92 561 611.332 552 c 0,7,8
 572.393 541 572.393 541 499.393 541 c 0,9,10
 375.393 541 375.393 541 307.028 624 c 0,11,12
 239.016 709 239.016 709 261.938 839 c 0,13,14
 280.453 944 280.453 944 334.737 1008 c 0,15,16
 390.552 1075 390.552 1075 476.075 1112 c 0,17,18
 557.424 1148 557.424 1148 674.068 1163 c 128,-1,19
 790.713 1178 790.713 1178 916.771 1184 c 1,20,-1
 920.121 1203 l 2,21,22
 928.938 1253 928.938 1253 918.933 1287 c 0,23,24
 905.752 1320 905.752 1320 878.749 1337 c 128,-1,25
 851.747 1354 851.747 1354 810.805 1360 c 0,26,27
 763.687 1365 763.687 1365 722.687 1365 c 0,28,29
 645.687 1365 645.687 1365 560.631 1342 c 0,30,31
 485.928 1321 485.928 1321 433.931 1304 c 1,32,-1
 418.931 1304 l 1,33,-1
 448.906 1474 l 1,34,35
 484.846 1485 484.846 1485 585.02 1503 c 0,36,37
 673.841 1519 673.841 1519 750.841 1519 c 0,38,39
 943.841 1519 943.841 1519 1028.26 1442 c 0,40,41
 1115.04 1367 1115.04 1367 1084.53 1194 c 2,42,-1
 973.801 566 l 1,0,-1
849.414 802 m 1,43,-1
 892.262 1045 l 1,44,45
 822.38 1040 822.38 1040 739.146 1033 c 0,46,47
 653.911 1026 653.911 1026 598.09 1010 c 0,48,49
 536.27 994 536.27 994 491.216 954 c 0,50,51
 447.691 917 447.691 917 435.701 849 c 0,52,53
 422.478 774 422.478 774 459.601 735 c 128,-1,54
 496.724 696 496.724 696 583.724 696 c 0,55,56
 658.724 696 658.724 696 726.542 729 c 0,57,58
 795.714 764 795.714 764 849.414 802 c 1,43,-1
EndSplineSet
EndChar
StartChar: guillemotleft
Encoding: 171 171 110
Width: 1174
Flags: HW
HStem: 162 980<613 613>
VStem: 103 940<191 608>
Fore
1076.68 191 m 1,0,-1
 662.56 610 l 1,1,-1
 677.547 695 l 1,2,-1
 1239.25 1113 l 1,3,-1
 1206.1 925 l 1,4,-1
 840.965 652 l 1,5,-1
 1109.83 379 l 1,6,-1
 1076.68 191 l 1,0,-1
641.564 162 m 1,7,-1
 210.207 608 l 1,8,-1
 225.9 697 l 1,9,-1
 814.365 1142 l 1,10,-1
 779.806 946 l 1,11,-1
 396.965 652 l 1,12,-1
 676.125 358 l 1,13,-1
 641.564 162 l 1,7,-1
EndSplineSet
EndChar
StartChar: logicalnot
Encoding: 172 172 111
Width: 1490
Flags: HW
HStem: 602 160<157 1152>
VStem: 1152 171<57 602>
Fore
1333.05 57 m 1,0,-1
 1162.05 57 l 1,1,-1
 1258.15 602 l 1,2,-1
 263.148 602 l 1,3,-1
 291.361 762 l 1,4,-1
 1457.36 762 l 1,5,-1
 1333.05 57 l 1,0,-1
EndSplineSet
EndChar
StartChar: registered
Encoding: 174 174 113
Width: 1902
Flags: HW
HStem: -210 110<682.9 1221.1> 570 126<815 938> 1005 125<815 1032.72> 1409 110<682.9 1221.1>
VStem: 86 117<383.3 926.7> 650 165<215 570 696 1005> 1120 182<793.085 929.294> 1701 115<383.3 926.7>
Fore
1931.49 655 m 0,0,1
 1868.02 295 1868.02 295 1569.76 44 c 0,2,3
 1273.97 -210 1273.97 -210 913.972 -210 c 128,-1,4
 553.972 -210 553.972 -210 347.759 44 c 0,5,6
 138.017 295 138.017 295 201.494 655 c 0,7,8
 264.619 1013 264.619 1013 563.23 1266 c 0,9,10
 859.841 1519 859.841 1519 1218.84 1519 c 128,-1,11
 1577.84 1519 1577.84 1519 1785.23 1266 c 0,12,13
 1994.62 1013 1994.62 1013 1931.49 655 c 0,0,1
1816.49 655 m 0,14,15
 1871.86 969 1871.86 969 1691.48 1188 c 0,16,17
 1510.44 1409 1510.44 1409 1200.44 1409 c 128,-1,18
 890.444 1409 890.444 1409 631.477 1188 c 0,19,20
 373.861 969 373.861 969 318.494 655 c 0,21,22
 263.216 341.5 263.216 341.5 443.336 121 c 0,23,24
 625.367 -100 625.367 -100 934.367 -100 c 128,-1,25
 1243.37 -100 1243.37 -100 1503.34 121 c 0,26,27
 1761.22 341.5 1761.22 341.5 1816.49 655 c 0,14,15
1485.91 215 m 1,28,-1
 1258.91 215 l 1,29,-1
 1038.51 570 l 1,30,-1
 915.506 570 l 1,31,-1
 852.91 215 l 1,32,-1
 687.91 215 l 1,33,-1
 849.25 1130 l 1,34,-1
 1128.25 1130 l 2,35,36
 1225.25 1130 1225.25 1130 1276.02 1123 c 0,37,38
 1329.6 1115 1329.6 1115 1379.14 1084 c 0,39,40
 1432.97 1049 1432.97 1049 1451.68 1002 c 0,41,42
 1470.22 954 1470.22 954 1456.99 879 c 0,43,44
 1439.18 778 1439.18 778 1372.07 715 c 0,45,46
 1307.96 652 1307.96 652 1210.44 615 c 1,47,-1
 1485.91 215 l 1,28,-1
1273.05 868 m 0,48,49
 1279.58 905 1279.58 905 1272.34 932 c 0,50,51
 1264.92 958 1264.92 958 1238.45 978 c 0,52,53
 1216.27 994 1216.27 994 1186.33 1000 c 0,54,55
 1152.21 1005 1152.21 1005 1107.21 1005 c 2,56,-1
 992.209 1005 l 1,57,-1
 937.724 696 l 1,58,-1
 1035.72 696 l 2,59,60
 1085.72 696 1085.72 696 1127.49 706 c 0,61,62
 1171.07 715 1171.07 715 1201.13 738 c 0,63,64
 1232.36 762 1232.36 762 1247.47 791 c 0,65,66
 1264.76 821 1264.76 821 1273.05 868 c 0,48,49
EndSplineSet
EndChar
StartChar: macron
Encoding: 175 175 114
Width: 1118
Flags: HW
HStem: 1659 130<-16 1134>
Fore
1426.53 1659 m 1,0,-1
 276.526 1659 l 1,1,-1
 299.449 1789 l 1,2,-1
 1449.45 1789 l 1,3,-1
 1426.53 1659 l 1,0,-1
EndSplineSet
EndChar
StartChar: degree
Encoding: 176 176 115
Width: 964
Flags: HW
HStem: 755 152<401.4 565.2> 1363 152<398.8 565.2>
VStem: 101 157<1050.5 1218.2> 706 157<1053.1 1218.2>
Fore
1063.13 1135 m 128,-1,1
 1034.92 975 1034.92 975 905.522 865 c 128,-1,2
 776.127 755 776.127 755 615.127 755 c 0,3,4
 455.127 755 455.127 755 364.347 864 c 0,5,6
 272.742 974 272.742 974 301.131 1135 c 0,7,8
 329.344 1295 329.344 1295 458.739 1405 c 128,-1,9
 588.136 1515 588.136 1515 749.136 1515 c 128,-1,10
 910.136 1515 910.136 1515 1000.74 1405 c 128,-1,0
 1091.34 1295 1091.34 1295 1063.13 1135 c 128,-1,1
906.131 1135 m 0,11,12
 923.234 1232 923.234 1232 870.696 1297 c 0,13,14
 818.334 1363 818.334 1363 722.334 1363 c 128,-1,15
 626.334 1363 626.334 1363 550.696 1297 c 0,16,17
 475.234 1232 475.234 1232 458.131 1135 c 0,18,19
 440.675 1036 440.675 1036 495.39 972 c 0,20,21
 548.929 907 548.929 907 641.929 907 c 0,22,23
 737.929 907 737.929 907 813.742 974 c 0,24,25
 889.204 1039 889.204 1039 906.131 1135 c 0,11,12
EndSplineSet
EndChar
StartChar: plusminus
Encoding: 177 177 116
Width: 1490
Flags: HW
HStem: 159 158<162 662 828 1328> 739 158<162 662 828 1328>
VStem: 662 166<317 739 897 1402>
Fore
1356.04 159 m 1,0,-1
 190.036 159 l 1,1,-1
 217.896 317 l 1,2,-1
 717.896 317 l 1,3,-1
 792.306 739 l 1,4,-1
 292.306 739 l 1,5,-1
 320.165 897 l 1,6,-1
 820.165 897 l 1,7,-1
 909.211 1402 l 1,8,-1
 1075.21 1402 l 1,9,-1
 986.165 897 l 1,10,-1
 1486.17 897 l 1,11,-1
 1458.31 739 l 1,12,-1
 958.306 739 l 1,13,-1
 883.896 317 l 1,14,-1
 1383.9 317 l 1,15,-1
 1356.04 159 l 1,0,-1
EndSplineSet
EndChar
StartChar: uni00B2
Encoding: 178 178 117
Width: 1010
Flags: HW
HStem: 566 144<373 866> 1371 148<377.984 527.709>
VStem: 619 185<1153.87 1288.38>
Fore
965.801 566 m 1,0,-1
 284.801 566 l 1,1,-1
 311.603 718 l 1,2,-1
 478.704 832 l 2,3,4
 560.226 886 560.226 886 610.808 929 c 0,5,6
 733.617 1030 733.617 1030 777.844 1088 c 0,7,8
 821.07 1146 821.07 1146 835.354 1227 c 0,9,10
 847.344 1295 847.344 1295 811.221 1334 c 0,11,12
 772.744 1371 772.744 1371 698.744 1371 c 0,13,14
 628.744 1371 628.744 1371 554.454 1341 c 0,15,16
 479.341 1312 479.341 1312 431.522 1279 c 1,17,-1
 416.522 1279 l 1,18,-1
 448.085 1458 l 1,19,20
 517.021 1486 517.021 1486 594.843 1502 c 0,21,22
 677.841 1519 677.841 1519 748.841 1519 c 0,23,24
 905.841 1519 905.841 1519 973.911 1440 c 0,25,26
 1044.16 1362 1044.16 1362 1022.47 1239 c 0,27,28
 1007.3 1153 1007.3 1153 953.728 1076 c 0,29,30
 901.975 998 901.975 998 775.694 900 c 0,31,32
 720.289 858 720.289 858 637.414 802 c 2,33,-1
 498.192 710 l 1,34,-1
 991.192 710 l 1,35,-1
 965.801 566 l 1,0,-1
EndSplineSet
EndChar
StartChar: uni00B3
Encoding: 179 179 118
Width: 1010
Flags: HW
HStem: 542 139<378.14 553.376> 968 139<334 521.018> 1380 139<394.157 554.152>
VStem: 641 173<1205.6 1303.04> 665 172<763.6 888.4>
Fore
982.999 828 m 0,0,1
 970.479 757 970.479 757 930.429 700 c 0,2,3
 890.555 644 890.555 644 836.735 611 c 0,4,5
 779.388 575 779.388 575 712.391 558 c 0,6,7
 651.569 542 651.569 542 569.569 542 c 128,-1,8
 487.569 542 487.569 542 418.214 557 c 0,9,10
 346.035 573 346.035 573 289.796 600 c 1,11,-1
 320.653 775 l 1,12,-1
 337.653 775 l 1,13,14
 369.482 740 369.482 740 440.192 710 c 0,15,16
 513.079 681 513.079 681 591.079 681 c 0,17,18
 675.079 681 675.079 681 736.603 718 c 0,19,20
 797.95 754 797.95 754 810.646 826 c 128,-1,21
 823.342 898 823.342 898 786.513 933 c 0,22,23
 746.685 968 746.685 968 644.685 968 c 2,24,-1
 504.685 968 l 1,25,-1
 529.194 1107 l 1,26,-1
 654.194 1107 l 2,27,28
 740.194 1107 740.194 1107 795.895 1145 c 0,29,30
 849.595 1183 849.595 1183 861.232 1249 c 0,31,32
 871.812 1309 871.812 1309 836.983 1344 c 0,33,34
 803.331 1380 803.331 1380 715.331 1380 c 0,35,36
 647.331 1380 647.331 1380 567.865 1349 c 0,37,38
 487.575 1319 487.575 1319 442.228 1283 c 1,39,-1
 425.228 1283 l 1,40,-1
 456.085 1458 l 1,41,42
 529.021 1486 529.021 1486 602.843 1502 c 0,43,44
 682.841 1519 682.841 1519 759.841 1519 c 0,45,46
 911.841 1519 911.841 1519 984.498 1449 c 128,-1,47
 1057.16 1379 1057.16 1379 1039.88 1281 c 0,48,49
 1024.53 1194 1024.53 1194 966.66 1138 c 0,50,51
 906.434 1080 906.434 1080 826.025 1055 c 1,52,-1
 824.614 1047 l 1,53,54
 904.617 1030 904.617 1030 950.095 976 c 0,55,56
 999.75 923 999.75 923 982.999 828 c 0,0,1
EndSplineSet
EndChar
StartChar: acute
Encoding: 180 180 119
Width: 1118
Flags: HW
HStem: 1302 374<598 871>
VStem: 449 422<1302 1676>
Fore
1166.52 1676 m 1,0,-1
 827.578 1302 l 1,1,-1
 678.578 1302 l 1,2,-1
 923.524 1676 l 1,3,-1
 1166.52 1676 l 1,0,-1
EndSplineSet
EndChar
StartChar: mu
Encoding: 181 181 120
Width: 1163
Flags: HW
HStem: -17 181<489.251 666.626>
VStem: 136 188<-412 115 275 1117> 839 188<275 1117> 855 172<0 116>
Fore
1027 0 m 1,0,-1
 855 0 l 1,1,-1
 875.454 116 l 1,2,-1
 869.454 116 l 1,3,4
 795.992 51 795.992 51 731.174 18 c 0,5,6
 664.002 -17 664.002 -17 575.002 -17 c 0,7,8
 483.002 -17 483.002 -17 436.174 18 c 128,-1,9
 389.346 53 389.346 53 344.277 115 c 1,10,-1
 251.354 -412 l 1,11,-1
 63.3535 -412 l 1,12,-1
 332.957 1117 l 1,13,-1
 520.957 1117 l 1,14,-1
 372.49 275 l 1,15,16
 405.762 225.5 405.762 225.5 463.207 194 c 0,17,18
 520.918 164 520.918 164 606.918 164 c 0,19,20
 694.918 164 694.918 164 764.031 193 c 0,21,22
 829.145 222 829.145 222 887.49 275 c 1,23,-1
 1035.96 1117 l 1,24,-1
 1223.96 1117 l 1,25,-1
 1027 0 l 1,0,-1
EndSplineSet
EndChar
StartChar: paragraph
Encoding: 182 182 121
Width: 1118
Flags: HW
HStem: 1359 130<655 842>
VStem: 515 140<-363 593> 842 140<-363 1359>
Fore
917.993 -363 m 1,0,-1
 777.993 -363 l 1,1,-1
 1081.63 1359 l 1,2,-1
 894.628 1359 l 1,3,-1
 590.993 -363 l 1,4,-1
 450.993 -363 l 1,5,-1
 619.562 593 l 1,6,7
 414.443 598 414.443 598 310.308 722 c 128,-1,8
 206.173 846 206.173 846 242.144 1050 c 0,9,10
 278.819 1258 278.819 1258 429.097 1373 c 0,11,12
 580.551 1489 580.551 1489 822.551 1489 c 2,13,-1
 1244.55 1489 l 1,14,-1
 917.993 -363 l 1,0,-1
EndSplineSet
EndChar
StartChar: periodcentered
Encoding: 183 183 122
Width: 724
Flags: HW
HStem: 832 285<243 482>
VStem: 243 239<832 1117>
Fore
628.704 832 m 1,0,-1
 389.704 832 l 1,1,-1
 439.957 1117 l 1,2,-1
 678.957 1117 l 1,3,-1
 628.704 832 l 1,0,-1
EndSplineSet
EndChar
StartChar: cedilla
Encoding: 184 184 123
Width: 1118
Flags: HW
HStem: -423 150<364.259 524.825>
VStem: 614 159<-185.915 -8.19973>
Fore
770.526 20 m 1,0,1
 769.177 1 769.177 1 765.416 -26 c 0,2,3
 763.654 -53 763.654 -53 757.307 -89 c 0,4,5
 728.565 -252 728.565 -252 626.578 -337 c 0,6,7
 523.414 -423 523.414 -423 391.414 -423 c 0,8,9
 353.914 -423 353.914 -423 305.472 -417 c 128,-1,10
 257.029 -411 257.029 -411 218.646 -399 c 1,11,-1
 246.857 -239 l 1,12,-1
 255.857 -239 l 1,13,14
 281.742 -251 281.742 -251 314.803 -262 c 0,15,16
 353.862 -273 353.862 -273 391.862 -273 c 0,17,18
 485.862 -273 485.862 -273 532.739 -234 c 0,19,20
 579.793 -194 579.793 -194 595.133 -107 c 0,21,22
 601.48 -71 601.48 -71 604.184 -50 c 0,23,24
 608.179 -16 608.179 -16 613.526 20 c 1,25,-1
 770.526 20 l 1,0,1
EndSplineSet
EndChar
StartChar: uni0E01
Encoding: 3585 3585 124
Width: 1417
VWidth: 2045
Flags: HW
HStem: 0 21G<260 480 1041 1262> 701 220<480 591> 1062 222<486.3 873.7>
VStem: 260 220<0 701> 1041 221<0 896.3>
Fore
557.397 921 m 0,0,-1
 753.397 921 l 1,1,-1
 714.605 701 l 1,2,-1
 603.605 701 l 1,3,-1
 480 0 l 1,4,-1
 260 0 l 1,5,-1
 383.605 701 l 1,6,-1
 223.605 701 l 1,7,8
 251.642 860 251.642 860 353.269 994 c 128,-1,9
 454.896 1128 454.896 1128 602.65 1206 c 128,-1,10
 750.404 1284 750.404 1284 908.404 1284 c 128,-1,11
 1066.4 1284 1066.4 1284 1186.65 1206 c 128,-1,12
 1306.9 1128 1306.9 1128 1360.53 995.5 c 128,-1,13
 1414.17 863 1414.17 863 1385.78 702 c 2,14,-1
 1262 0 l 1,15,-1
 1041 0 l 1,16,-1
 1164.43 700 l 2,17,18
 1191.05 851 1191.05 851 1103.66 956.5 c 128,-1,19
 1016.26 1062 1016.26 1062 867.26 1062 c 128,-1,20
 718.26 1062 718.26 1062 594.568 956 c 0,21,22
 574.747 940 574.747 940 557.397 921 c 0,0,-1
EndSplineSet
EndChar
StartChar: uni0E02
Encoding: 3586 3586 125
Width: 1410
VWidth: 2045
Flags: HW
HStem: 0 220<411 521 741 1035> 618 188<294 398> 982 287<301.05 496>
VStem: 74 183<846.05 940.95> 437 185<847.2 940.8> 521 220<220 538.1> 686 218<748.306 1001.31> 1035 220<220 1254>
Back
-164 1640 m 132,-1,0
 -164 1708 -164 1708 -116 1756 c 132,-1,1
 -68 1804 -68 1804 0 1804 c 132,-1,2
 68 1804 68 1804 116 1756 c 132,-1,3
 164 1708 164 1708 164 1640 c 132,-1,4
 164 1572 164 1572 116 1524 c 132,-1,5
 68 1476 68 1476 0 1476 c 132,-1,6
 -68 1476 -68 1476 -116 1524 c 132,-1,7
 -164 1572 -164 1572 -164 1640 c 132,-1,0
-384 1640 m 132,-1,7
 -384 1799 -384 1799 -271.5 1911.5 c 132,-1,8
 -159 2024 -159 2024 0 2024 c 132,-1,9
 159 2024 159 2024 271.5 1911.5 c 132,-1,10
 384 1799 384 1799 384 1640 c 132,-1,11
 384 1481 384 1481 271.5 1368.5 c 132,-1,12
 159 1256 159 1256 0 1256 c 132,-1,13
 -159 1256 -159 1256 -271.5 1368.5 c 132,-1,14
 -384 1481 -384 1481 -384 1640 c 132,-1,7
EndSplineSet
Fore
741.375 1074 m 5,0,1
 796.211 988 796.211 988 779.283 892 c 4,2,3
 759.358 779 759.358 779 664.664 698.5 c 132,-1,4
 569.97 618 569.97 618 456.97 618 c 132,-1,5
 343.97 618 343.97 618 277.664 698.5 c 132,-1,6
 211.358 779 211.358 779 231.283 892 c 28,7,8
 262.317 1068 262.317 1068 413.215 1169.5 c 132,-1,9
 564.111 1271 564.111 1271 719.759 1269 c 4,10,11
 900.406 1267 900.406 1267 994.069 1154.5 c 132,-1,12
 1087.73 1042 1087.73 1042 1058.82 878 c 4,13,14
 1032.89 731 1032.89 731 891.446 581 c 4,15,16
 831.279 512 831.279 512 815.939 425 c 6,17,-1
 779.792 220 l 5,18,-1
 1073.79 220 l 5,19,-1
 1256.11 1254 l 5,20,-1
 1476.11 1254 l 5,21,-1
 1255 0 l 5,22,-1
 411 0 l 5,23,-1
 449.792 220 l 5,24,-1
 559.792 220 l 5,25,-1
 595.939 425 l 6,26,27
 620.625 565 620.625 565 758.486 706 c 4,28,29
 827.006 777 827.006 777 839.698 874.5 c 132,-1,30
 852.39 972 852.39 972 814.561 1015.5 c 132,-1,31
 776.73 1059 776.73 1059 741.375 1074 c 5,0,1
414.548 893.5 m 132,-1,33
 408.112 857 408.112 857 428.292 832.5 c 132,-1,34
 448.473 808 448.473 808 488.119 806 c 132,-1,35
 527.767 804 527.767 804 558.027 831 c 132,-1,36
 588.289 858 588.289 858 594.637 894 c 132,-1,37
 600.984 930 600.984 930 579.568 956 c 132,-1,38
 558.153 982 558.153 982 521.653 982 c 132,-1,39
 485.153 982 485.153 982 453.068 956 c 132,-1,32
 420.984 930 420.984 930 414.548 893.5 c 132,-1,33
EndSplineSet
EndChar
StartChar: uni0E03
Encoding: 3587 3587 126
Width: 1542
VWidth: 2045
Flags: HW
HStem: 0 220<531 641 861 1165> 468 190<332 436> 834 184<317 433.95> 1234 20G<1165 1385>
VStem: 52 243<698.05 860> 475 187<699.2 792.8> 641 220<220 503.07> 818 213<731.905 967.947> 1165 220<220 1254>
Back
104 733 m 4,0,1
 104 846 104 846 184.5 926.5 c 4,2,3
 265 1007 265 1007 378 1007 c 4,4,5
 491 1007 491 1007 571.5 926.5 c 4,6,7
 652 846 652 846 652 733 c 4,8,9
 652 620 652 620 571.5 539.5 c 4,10,11
 491 459 491 459 378 459 c 4,12,13
 265 459 265 459 184.5 539.5 c 4,14,15
 104 620 104 620 104 733 c 4,0,1
287 735 m 4,55,-1
 287 698 287 698 314 671 c 4,56,57
 340 645 340 645 378 645 c 4,58,59
 416 645 416 645 441 671 c 4,60,61
 467 699 467 699 467 735 c 4,62,63
 467 771 467 771 441 797 c 4,64,65
 415 823 415 823 378 823 c 4,66,67
 342 823 342 823 314 797 c 4,68,69
 287 771 287 771 287 735 c 4,55,-1
EndSplineSet
Fore
496.501 1018 m 5,0,1
 677.501 1018 677.501 1018 745.482 938.5 c 132,-1,2
 813.465 859 813.465 859 793.54 746 c 132,-1,3
 773.615 633 773.615 633 673.892 549.5 c 132,-1,4
 574.168 466 574.168 466 463.521 468 c 4,5,6
 358.874 470 358.874 470 263.742 568.5 c 132,-1,7
 168.61 667 168.61 667 203.642 860 c 28,8,9
 234.617 1030 234.617 1030 357.396 1136.5 c 132,-1,10
 480.175 1243 480.175 1243 600.877 1264 c 5,11,-1
 752.36 1176 l 5,12,-1
 928.877 1264 l 5,13,14
 1015.76 1252 1015.76 1252 1113.22 1144 c 132,-1,15
 1210.67 1036 1210.67 1036 1183.41 861.5 c 132,-1,16
 1156.14 687 1156.14 687 1049.74 577 c 132,-1,17
 943.345 467 943.345 467 921.833 345 c 6,18,-1
 899.792 220 l 1,19,-1
 1203.79 220 l 1,20,-1
 1386.11 1254 l 1,21,-1
 1606.11 1254 l 1,22,-1
 1385 0 l 1,23,-1
 531 0 l 1,24,-1
 569.792 220 l 1,25,-1
 679.792 220 l 1,26,-1
 705.359 365 l 6,27,28
 726.519 485 726.519 485 839.176 622 c 132,-1,29
 951.832 759 951.832 759 967.878 850 c 132,-1,30
 983.924 941 983.924 941 962.24 991 c 132,-1,31
 940.557 1041 940.557 1041 885.728 1076 c 5,32,-1
 717.327 1000 l 5,33,-1
 574.199 1073 l 5,34,35
 504.906 1060 504.906 1060 496.501 1018 c 5,0,1
426.452 745.5 m 132,-1,37
 420.016 709 420.016 709 440.195 684.5 c 132,-1,38
 460.376 660 460.376 660 500.023 658 c 132,-1,39
 539.671 656 539.671 656 569.932 683 c 132,-1,40
 600.192 710 600.192 710 606.54 746 c 132,-1,41
 612.888 782 612.888 782 591.473 808 c 132,-1,42
 570.057 834 570.057 834 533.557 834 c 132,-1,43
 497.057 834 497.057 834 464.973 808 c 132,-1,36
 432.888 782 432.888 782 426.452 745.5 c 132,-1,37
EndSplineSet
EndChar
StartChar: uni0E04
Encoding: 3588 3588 127
Width: 1460
VWidth: 2045
Flags: HW
HStem: 0 21G<141 361 1082 1303> 330 186<670.6 769.4> 694 184<673.2 768.1> 1062 222<527.3 914.7>
VStem: 141 220<452 895.7> 809 185<559.2 652.8> 1082 221<0 896.3>
Fore
735.854 606 m 0,0,1
 729.33 569 729.33 569 751.569 542 c 0,2,3
 772.984 516 772.984 516 810.984 516 c 128,-1,4
 848.984 516 848.984 516 878.569 542 c 0,5,6
 909.506 570 909.506 570 915.854 606 c 128,-1,7
 922.202 642 922.202 642 900.786 668 c 128,-1,8
 879.371 694 879.371 694 842.371 694 c 0,9,10
 806.371 694 806.371 694 773.786 668 c 0,11,12
 742.202 642 742.202 642 735.854 606 c 0,0,1
361 0 m 17,13,-1
 141 0 l 1,14,-1
 264.781 702 l 2,15,16
 292.642 860 292.642 860 394.269 994 c 128,-1,17
 495.896 1128 495.896 1128 643.65 1206 c 128,-1,18
 791.404 1284 791.404 1284 949.404 1284 c 128,-1,19
 1107.4 1284 1107.4 1284 1227.65 1206 c 128,-1,20
 1347.9 1128 1347.9 1128 1401.53 995.5 c 128,-1,21
 1455.17 863 1455.17 863 1426.78 702 c 2,22,-1
 1303 0 l 1,23,-1
 1082 0 l 1,24,-1
 1205.43 700 l 2,25,26
 1232.05 851 1232.05 851 1144.66 956.5 c 128,-1,27
 1057.26 1062 1057.26 1062 908.26 1062 c 128,-1,28
 759.26 1062 759.26 1062 635.156 956.5 c 128,-1,29
 511.055 851 511.055 851 484.781 702 c 2,30,-1
 440.7 452 l 1,31,-1
 602.014 726 l 2,32,33
 620.656 758 620.656 758 666.709 798 c 0,34,35
 761.815 878 761.815 878 874.815 878 c 128,-1,36
 987.815 878 987.815 878 1054.12 797.5 c 128,-1,37
 1120.43 717 1120.43 717 1100.5 604 c 128,-1,38
 1080.58 491 1080.58 491 985.882 410.5 c 128,-1,39
 891.188 330 891.188 330 778.188 330 c 128,-1,40
 665.188 330 665.188 330 598.294 410 c 9,41,-1
 361 0 l 17,13,-1
EndSplineSet
EndChar
StartChar: uni0E05
Encoding: 3589 3589 128
Width: 1452
VWidth: 2045
Flags: HW
HStem: 0 21G<141 361 1082 1303> 330 186<670.6 769.4> 694 184<673.05 767.95>
VStem: 141 220<452 1031.12> 809 185<559.2 652.8> 1082 221<0 1061.95>
Fore
735.766 605.5 m 128,-1,1
 729.33 569 729.33 569 751.157 542.5 c 128,-1,2
 772.984 516 772.984 516 810.984 516 c 128,-1,3
 848.984 516 848.984 516 879.245 543 c 128,-1,4
 909.506 570 909.506 570 915.854 606 c 128,-1,5
 922.202 642 922.202 642 900.786 668 c 128,-1,6
 879.371 694 879.371 694 842.871 694 c 128,-1,7
 806.371 694 806.371 694 774.286 668 c 128,-1,0
 742.202 642 742.202 642 735.766 605.5 c 128,-1,1
1214.4 1284 m 1,8,9
 1376.65 1223 1376.65 1223 1427.72 1110 c 128,-1,10
 1478.8 997 1478.8 997 1440.89 782 c 2,11,-1
 1303 0 l 1,12,-1
 1082 0 l 1,13,-1
 1219.54 780 l 2,14,15
 1257.8 997 1257.8 997 1128.67 1036 c 1,16,-1
 885.691 917 l 1,17,-1
 688.675 1036 l 1,18,19
 537.68 1002 537.68 1002 498.888 782 c 2,20,-1
 440.7 452 l 1,21,-1
 602.014 726 l 2,22,23
 620.656 758 620.656 758 666.709 798 c 0,24,25
 761.815 878 761.815 878 874.815 878 c 128,-1,26
 987.815 878 987.815 878 1054.12 797.5 c 128,-1,27
 1120.43 717 1120.43 717 1100.5 604 c 128,-1,28
 1080.58 491 1080.58 491 985.882 410.5 c 128,-1,29
 891.188 330 891.188 330 778.188 330 c 128,-1,30
 665.188 330 665.188 330 598.294 410 c 9,31,-1
 361 0 l 17,32,-1
 141 0 l 1,33,-1
 278.888 782 l 2,34,35
 312.742 974 312.742 974 416.929 1114 c 128,-1,36
 521.114 1254 521.114 1254 697.757 1286 c 1,37,-1
 933.955 1134 l 1,38,-1
 1214.4 1284 l 1,8,9
EndSplineSet
EndChar
StartChar: uni0E06
Encoding: 3590 3590 129
Width: 1623
VWidth: 2045
Flags: HW
HStem: -20 186<532.6 631.4> 344 188<535.2 630.1> 549 159<292 396> 1234 20G<1250 1470>
VStem: 308 183<207.9 302.8> 435 167<749.2 842.8> 829 212<799.839 975.581> 1250 220<226 1254>
Fore
536.14 256 m 0,0,1
 529.615 219 529.615 219 551.854 192 c 0,2,3
 573.271 166 573.271 166 611.271 166 c 128,-1,4
 649.271 166 649.271 166 678.854 192 c 0,5,6
 709.792 220 709.792 220 716.14 256 c 128,-1,7
 722.487 292 722.487 292 701.072 318 c 128,-1,8
 679.656 344 679.656 344 642.656 344 c 0,9,10
 606.656 344 606.656 344 574.072 318 c 0,11,12
 542.487 292 542.487 292 536.14 256 c 0,0,1
767.043 522 m 1,13,14
 781.325 603 781.325 603 877.457 711.5 c 128,-1,15
 973.588 820 973.588 820 985.49 887.5 c 128,-1,16
 997.393 955 997.393 955 980.531 1012.5 c 128,-1,17
 963.67 1070 963.67 1070 899.254 1096 c 1,18,-1
 730.854 1020 l 1,19,-1
 587.726 1093 l 1,20,21
 507.846 1071 507.846 1071 484.911 1026 c 1,22,23
 593.849 1054 593.849 1054 679.123 987.5 c 128,-1,24
 764.397 921 764.397 921 744.736 809.5 c 128,-1,25
 725.076 698 725.076 698 643.264 622.5 c 128,-1,26
 561.451 547 561.451 547 433.392 549.5 c 128,-1,27
 305.332 552 305.332 552 243.232 636.5 c 128,-1,28
 181.132 721 181.132 721 202.762 838 c 24,29,30
 238.146 1033 238.146 1033 365.042 1143 c 128,-1,31
 491.938 1253 491.938 1253 612.641 1274 c 1,32,-1
 764.124 1186 l 1,33,-1
 940.641 1274 l 1,34,35
 1027.52 1262 1027.52 1262 1124.98 1154 c 128,-1,36
 1222.44 1046 1222.44 1046 1196.34 881 c 128,-1,37
 1170.25 716 1170.25 716 1073.53 624 c 128,-1,38
 976.806 532 976.806 532 963.994 448 c 9,39,-1
 1289.85 226 l 1,40,-1
 1471.11 1254 l 1,41,-1
 1691.11 1254 l 1,42,-1
 1470 0 l 25,43,-1
 1250 0 l 25,44,-1
 926.437 235 l 17,45,46
 909.804 135 909.804 135 816.639 57.5 c 128,-1,47
 723.474 -20 723.474 -20 594.474 -20 c 128,-1,48
 465.474 -20 465.474 -20 399.168 60.5 c 128,-1,49
 332.862 141 332.862 141 352.787 254 c 0,50,51
 374.651 378 374.651 378 472.729 455 c 128,-1,52
 570.806 532 570.806 532 675.806 532 c 0,53,54
 741.806 532 741.806 532 767.043 522 c 1,13,14
395.269 795.5 m 128,-1,56
 388.832 759 388.832 759 409.012 734.5 c 128,-1,57
 429.192 710 429.192 710 468.84 708 c 128,-1,58
 508.487 706 508.487 706 538.748 733 c 128,-1,59
 569.009 760 569.009 760 575.356 796 c 128,-1,60
 581.704 832 581.704 832 560.289 858 c 128,-1,61
 538.873 884 538.873 884 502.373 884 c 128,-1,62
 465.873 884 465.873 884 433.788 858 c 128,-1,55
 401.704 832 401.704 832 395.269 795.5 c 128,-1,56
EndSplineSet
EndChar
StartChar: uni0E07
Encoding: 3591 3591 130
Width: 1081
VWidth: 2045
Flags: HW
HStem: 0 21G<704 924> 726 186<600.6 699.4> 1090 184<603.05 697.95>
VStem: 376 183<954.05 1048.95> 705 219<262.091 730.986> 739 185<955.2 1048.8>
Fore
751.197 262 m 29,0,-1
 832.895 731 l 5,1,2
 806.014 726 806.014 726 778.014 726 c 4,3,4
 665.014 726 665.014 726 598.708 806.5 c 132,-1,5
 532.402 887 532.402 887 552.327 1000 c 132,-1,6
 572.252 1113 572.252 1113 666.946 1193.5 c 132,-1,7
 761.641 1274 761.641 1274 874.641 1274 c 132,-1,8
 987.641 1274 987.641 1274 1053.95 1193.5 c 132,-1,9
 1120.25 1113 1120.25 1113 1100.33 1000 c 14,10,-1
 924 0 l 5,11,-1
 704 0 l 13,12,-1
 213.091 596 l 1,13,-1
 368.366 728 l 1,14,-1
 751.197 262 l 29,0,-1
735.592 1001.5 m 132,-1,16
 729.155 965 729.155 965 750.982 938.5 c 132,-1,17
 772.811 912 772.811 912 810.811 912 c 132,-1,18
 848.811 912 848.811 912 879.071 939 c 132,-1,19
 909.332 966 909.332 966 915.68 1002 c 132,-1,20
 922.027 1038 922.027 1038 900.612 1064 c 132,-1,21
 879.196 1090 879.196 1090 842.696 1090 c 132,-1,22
 806.196 1090 806.196 1090 774.112 1064 c 132,-1,15
 742.027 1038 742.027 1038 735.592 1001.5 c 132,-1,16
EndSplineSet
EndChar
StartChar: uni0E08
Encoding: 3592 3592 131
Width: 1368
VWidth: 2045
Flags: HW
HStem: 0 21G<848 1068> 352 186<590.6 689.4> 716 184<593.2 688.1> 1064 220<479.9 836.1>
VStem: 106 220<732 910.1> 366 183<579.9 674.8> 990 220<646.35 910.1>
Fore
235.071 732 m 21,0,1
 261.521 882 261.521 882 357.914 1009 c 132,-1,2
 454.308 1136 454.308 1136 594.355 1210 c 132,-1,3
 734.404 1284 734.404 1284 884.404 1284 c 132,-1,4
 1034.4 1284 1034.4 1284 1148.36 1210 c 132,-1,5
 1262.31 1136 1262.31 1136 1313.91 1009 c 132,-1,6
 1365.52 882 1365.52 882 1339.07 732 c 4,7,8
 1328.14 670 1328.14 670 1304.91 612 c 10,9,-1
 1068 0 l 1,10,-1
 848 0 l 1,11,-1
 844.415 388 l 17,12,13
 777.067 352 777.067 352 702.067 352 c 0,14,15
 589.067 352 589.067 352 522.762 432.5 c 128,-1,16
 456.456 513 456.456 513 476.381 626 c 128,-1,17
 496.306 739 496.306 739 591 819.5 c 128,-1,18
 685.694 900 685.694 900 798.694 900 c 128,-1,19
 911.694 900 911.694 900 978.588 820 c 0,20,21
 1028.66 758 1028.66 758 1028.55 678 c 10,22,-1
 1031.52 485 l 1,23,-1
 1099.55 661 l 18,24,25
 1112.55 695 1112.55 695 1119.07 732 c 4,26,27
 1143.23 869 1143.23 869 1062.92 966.5 c 132,-1,28
 982.612 1064 982.612 1064 845.612 1064 c 132,-1,29
 708.612 1064 708.612 1064 593.92 966.5 c 132,-1,30
 479.229 869 479.229 869 455.071 732 c 13,31,-1
 235.071 732 l 21,0,1
659.733 628 m 0,32,33
 653.209 591 653.209 591 675.448 564 c 0,34,35
 696.864 538 696.864 538 734.864 538 c 128,-1,36
 772.864 538 772.864 538 802.448 564 c 0,37,38
 833.386 592 833.386 592 839.733 628 c 128,-1,39
 846.081 664 846.081 664 824.666 690 c 128,-1,40
 803.25 716 803.25 716 766.25 716 c 4,41,42
 730.25 716 730.25 716 697.666 690 c 0,43,44
 666.081 664 666.081 664 659.733 628 c 0,32,33
EndSplineSet
EndChar
StartChar: uni0E09
Encoding: 3593 3593 132
Width: 1466
VWidth: 2045
Flags: HW
HStem: -20 186<1050.6 1149.4> 254 186<300.6 399.4> 618 184<303.05 397.95> 1064 220<479.9 836.1>
VStem: 76 183<482.05 576.95> 439 185<483.2 576.8> 992 220<506.531 910.961> 1189 185<209.2 302.8>
Fore
313.1 942 m 17,0,1
 333.095 976 333.095 976 357.914 1009 c 0,2,3
 454.308 1136 454.308 1136 594.355 1210 c 128,-1,4
 734.404 1284 734.404 1284 884.404 1284 c 128,-1,5
 1034.4 1284 1034.4 1284 1148.36 1210 c 128,-1,6
 1262.31 1136 1262.31 1136 1314.91 1009 c 128,-1,7
 1367.52 882 1367.52 882 1341.07 732 c 2,8,-1
 1301.04 505 l 21,9,10
 1341.52 485 1341.52 485 1372.99 448 c 4,11,12
 1438.71 367 1438.71 367 1418.79 254 c 132,-1,13
 1398.86 141 1398.86 141 1304.17 60.5 c 132,-1,14
 1209.47 -20 1209.47 -20 1096.47 -20 c 132,-1,15
 983.474 -20 983.474 -20 916.58 60 c 4,16,17
 881.338 104 881.338 104 870.684 157 c 13,18,-1
 624 0 l 9,19,-1
 405 0 l 25,20,-1
 450.669 259 l 1,21,22
 423.787 254 423.787 254 394.787 254 c 0,23,24
 281.787 254 281.787 254 215.481 334.5 c 128,-1,25
 149.176 415 149.176 415 169.101 528 c 128,-1,26
 189.025 641 189.025 641 283.72 721.5 c 128,-1,27
 378.414 802 378.414 802 491.414 802 c 128,-1,28
 604.414 802 604.414 802 670.72 721.5 c 128,-1,29
 737.025 641 737.025 641 717.101 528 c 2,30,-1
 666.318 240 l 25,31,-1
 1013.87 470 l 6,32,33
 1052.28 495 1052.28 495 1081.4 507 c 13,34,-1
 1120.54 729 l 2,35,36
 1145.23 869 1145.23 869 1063.92 966.5 c 128,-1,37
 982.612 1064 982.612 1064 845.612 1064 c 128,-1,38
 708.612 1064 708.612 1064 594.332 966 c 0,39,40
 536.868 918 536.868 918 501.465 859 c 9,41,-1
 313.1 942 l 17,0,1
1054.14 256 m 4,42,43
 1047.62 219 1047.62 219 1069.85 192 c 4,44,45
 1091.27 166 1091.27 166 1129.27 166 c 132,-1,46
 1167.27 166 1167.27 166 1196.85 192 c 4,47,48
 1227.79 220 1227.79 220 1234.14 256 c 132,-1,49
 1240.49 292 1240.49 292 1219.07 318 c 132,-1,50
 1197.66 344 1197.66 344 1160.66 344 c 4,51,52
 1124.66 344 1124.66 344 1092.07 318 c 4,53,54
 1060.49 292 1060.49 292 1054.14 256 c 4,42,43
352.365 529.5 m 128,-1,56
 345.93 493 345.93 493 367.757 466.5 c 128,-1,57
 389.584 440 389.584 440 427.584 440 c 128,-1,58
 465.584 440 465.584 440 495.845 467 c 128,-1,59
 526.105 494 526.105 494 532.453 530 c 128,-1,60
 538.801 566 538.801 566 517.386 592 c 128,-1,61
 495.97 618 495.97 618 459.47 618 c 128,-1,62
 422.97 618 422.97 618 390.886 592 c 128,-1,55
 358.801 566 358.801 566 352.365 529.5 c 128,-1,56
EndSplineSet
EndChar
StartChar: uni0E0A
Encoding: 3594 3594 133
Width: 1435
VWidth: 2045
Flags: HW
HStem: 0 220<411 521 741 1035> 618 188<294 398> 982 287<301.05 496>
VStem: 74 183<846.05 940.95> 437 185<847.2 940.8> 521 220<220 516.592> 686 218<748.306 1001.31> 1035 219<220 771.505> 1143 219<1173 1368>
Fore
1093.3 756 m 5,0,-1
 1132.09 976 l 5,1,2
 1197.56 1007 1197.56 1007 1261.37 1091 c 4,3,4
 1357.77 1218 1357.77 1218 1384.21 1368 c 5,5,-1
 1603.21 1368 l 5,6,7
 1575.53 1211 1575.53 1211 1489.32 1068 c 4,8,9
 1425.8 963 1425.8 963 1342.99 879 c 5,10,11
 1395.77 804 1395.77 804 1377.78 702 c 6,12,-1
 1255 0 l 5,13,-1
 411 0 l 5,14,-1
 449.792 220 l 5,15,-1
 559.792 220 l 5,16,-1
 595.939 425 l 6,17,18
 620.625 565 620.625 565 758.486 706 c 0,19,20
 827.006 777 827.006 777 839.698 874.5 c 128,-1,21
 852.39 972 852.39 972 814.561 1015.5 c 128,-1,22
 776.73 1059 776.73 1059 741.375 1074 c 1,23,24
 796.211 988 796.211 988 779.283 892 c 0,25,26
 759.358 779 759.358 779 664.664 698.5 c 128,-1,27
 569.97 618 569.97 618 456.97 618 c 128,-1,28
 343.97 618 343.97 618 277.664 698.5 c 128,-1,29
 211.358 779 211.358 779 231.283 892 c 0,30,31
 262.317 1068 262.317 1068 413.215 1169.5 c 128,-1,32
 564.111 1271 564.111 1271 719.759 1269 c 0,33,34
 900.406 1267 900.406 1267 994.069 1154.5 c 128,-1,35
 1087.73 1042 1087.73 1042 1058.82 878 c 0,36,37
 1033.6 735 1033.6 735 891.446 581 c 0,38,39
 832.161 517 832.161 517 815.939 425 c 6,40,-1
 779.792 220 l 5,41,-1
 1073.79 220 l 5,42,-1
 1159.13 704 l 22,43,44
 1168.3 756 1168.3 756 1093.3 756 c 5,0,-1
414.548 893.5 m 128,-1,46
 408.112 857 408.112 857 428.292 832.5 c 128,-1,47
 448.473 808 448.473 808 488.119 806 c 128,-1,48
 527.767 804 527.767 804 558.027 831 c 128,-1,49
 588.289 858 588.289 858 594.637 894 c 128,-1,50
 600.984 930 600.984 930 579.568 956 c 128,-1,51
 558.153 982 558.153 982 521.653 982 c 128,-1,52
 485.153 982 485.153 982 453.068 956 c 128,-1,45
 420.984 930 420.984 930 414.548 893.5 c 128,-1,46
EndSplineSet
EndChar
StartChar: uni0E0B
Encoding: 3595 3595 134
Width: 1572
VWidth: 2045
Flags: HW
HStem: 0 220<531 641 861 1155> 468 190<332 436> 834 184<317 433.95>
VStem: 52 243<698.05 860> 475 187<699.2 792.8> 641 220<220 503.07> 818 213<731.905 967.947> 1155 220<220 756> 1263 219<1173 1368>
Fore
705.359 365 m 2,0,1
 726.519 485 726.519 485 839.176 622 c 128,-1,2
 951.832 759 951.832 759 967.878 850 c 128,-1,3
 983.924 941 983.924 941 962.24 991 c 128,-1,4
 940.557 1041 940.557 1041 885.728 1076 c 1,5,-1
 717.327 1000 l 1,6,-1
 574.199 1073 l 1,7,8
 504.906 1060 504.906 1060 496.501 1018 c 1,9,10
 677.501 1018 677.501 1018 745.482 938.5 c 128,-1,11
 813.465 859 813.465 859 793.54 746 c 128,-1,12
 773.615 633 773.615 633 673.892 549.5 c 128,-1,13
 574.168 466 574.168 466 463.521 468 c 0,14,15
 358.874 470 358.874 470 263.742 568.5 c 128,-1,16
 168.61 667 168.61 667 203.642 860 c 24,17,18
 234.617 1030 234.617 1030 357.396 1136.5 c 128,-1,19
 480.175 1243 480.175 1243 600.877 1264 c 1,20,-1
 752.36 1176 l 1,21,-1
 928.877 1264 l 1,22,23
 1015.76 1252 1015.76 1252 1113.22 1144 c 128,-1,24
 1210.67 1036 1210.67 1036 1183.41 861.5 c 128,-1,25
 1156.14 687 1156.14 687 1049.74 577 c 128,-1,26
 943.345 467 943.345 467 921.833 345 c 2,27,-1
 899.792 220 l 1,28,-1
 1193.79 220 l 1,29,-1
 1279.13 704 l 18,30,31
 1288.3 756 1288.3 756 1213.3 756 c 1,32,-1
 1252.09 976 l 1,33,34
 1317.56 1007 1317.56 1007 1381.37 1091 c 0,35,36
 1477.77 1218 1477.77 1218 1504.21 1368 c 1,37,-1
 1723.21 1368 l 1,38,39
 1695.53 1211 1695.53 1211 1609.32 1068 c 0,40,41
 1545.8 963 1545.8 963 1462.99 879 c 1,42,43
 1515.77 804 1515.77 804 1497.78 702 c 2,44,-1
 1375 0 l 1,45,-1
 531 0 l 1,46,-1
 569.792 220 l 1,47,-1
 679.792 220 l 1,48,-1
 705.359 365 l 2,0,1
426.452 745.5 m 128,-1,50
 420.016 709 420.016 709 440.195 684.5 c 128,-1,51
 460.376 660 460.376 660 500.023 658 c 128,-1,52
 539.671 656 539.671 656 569.932 683 c 128,-1,53
 600.192 710 600.192 710 606.54 746 c 128,-1,54
 612.888 782 612.888 782 591.473 808 c 128,-1,55
 570.057 834 570.057 834 533.557 834 c 128,-1,56
 497.057 834 497.057 834 464.973 808 c 128,-1,49
 432.888 782 432.888 782 426.452 745.5 c 128,-1,50
1598.16 1362 m 1,57,-1
EndSplineSet
EndChar
StartChar: uni0E0C
Encoding: 3596 3596 135
Width: 1940
VWidth: 2045
Flags: HW
HStem: -10 186<438.6 537.4 1050.6 1149.4> 354 184<441.2 536.1> 701 220<435 546> 1062 222<481.3 868.7>
VStem: 214 183<217.9 312.8> 215 220<533 701> 577 185<219.2 312.8> 826 183<217.9 312.8> 1036 221<531 896.3> 1552 220<240 1254>
Fore
1055.9 266 m 0,0,1
 1049.38 229 1049.38 229 1071.62 202 c 0,2,3
 1093.03 176 1093.03 176 1131.03 176 c 128,-1,4
 1169.03 176 1169.03 176 1198.62 202 c 0,5,6
 1229.55 230 1229.55 230 1235.9 266 c 128,-1,7
 1242.25 302 1242.25 302 1220.83 328 c 128,-1,8
 1199.42 354 1199.42 354 1162.42 354 c 0,9,10
 1126.42 354 1126.42 354 1093.83 328 c 0,11,12
 1062.25 302 1062.25 302 1055.9 266 c 0,0,1
443.903 266 m 0,13,14
 437.379 229 437.379 229 459.618 202 c 0,15,16
 481.033 176 481.033 176 519.033 176 c 128,-1,17
 557.033 176 557.033 176 586.618 202 c 0,18,19
 617.555 230 617.555 230 623.903 266 c 128,-1,20
 630.251 302 630.251 302 608.835 328 c 128,-1,21
 587.42 354 587.42 354 550.42 354 c 0,22,23
 514.42 354 514.42 354 481.835 328 c 0,24,25
 450.251 302 450.251 302 443.903 266 c 0,13,14
528.982 533 m 17,26,27
 554.864 538 554.864 538 582.864 538 c 0,28,29
 695.864 538 695.864 538 762.17 457.5 c 128,-1,30
 828.476 377 828.476 377 808.551 264 c 128,-1,31
 788.625 151 788.625 151 693.931 70.5 c 128,-1,32
 599.236 -10 599.236 -10 486.236 -10 c 128,-1,33
 373.236 -10 373.236 -10 306.343 70 c 0,34,35
 240.625 151 240.625 151 260.551 264 c 2,36,-1
 338.605 701 l 1,37,-1
 218.605 701 l 1,38,39
 246.642 860 246.642 860 348.269 994 c 128,-1,40
 449.896 1128 449.896 1128 597.65 1206 c 128,-1,41
 745.404 1284 745.404 1284 903.404 1284 c 128,-1,42
 1061.4 1284 1061.4 1284 1181.65 1206 c 128,-1,43
 1301.9 1128 1301.9 1128 1355.53 995.5 c 128,-1,44
 1409.17 863 1409.17 863 1380.78 702 c 2,45,-1
 1342.34 484 l 17,46,47
 1361.87 470 1361.87 470 1374.76 458 c 2,48,-1
 1594.32 240 l 25,49,-1
 1773.11 1254 l 1,50,-1
 1993.11 1254 l 1,51,-1
 1772 0 l 25,52,-1
 1552 0 l 17,53,-1
 1386.45 167 l 1,54,55
 1357.1 114 1357.1 114 1306.34 70 c 0,56,57
 1211.24 -10 1211.24 -10 1098.24 -10 c 128,-1,58
 985.236 -10 985.236 -10 918.931 70.5 c 128,-1,59
 852.625 151 852.625 151 872.551 264 c 128,-1,60
 892.476 377 892.476 377 986.758 458 c 0,61,62
 1053.63 514 1053.63 514 1129.63 531 c 0,63,-1
 1159.43 700 l 2,64,65
 1186.05 851 1186.05 851 1098.57 956 c 0,66,67
 1011.26 1062 1011.26 1062 862.26 1062 c 128,-1,68
 713.26 1062 713.26 1062 588.568 956 c 0,69,70
 569.747 940 569.747 940 552.397 921 c 0,71,-1
 708.397 921 l 1,72,-1
 669.605 701 l 1,73,-1
 558.605 701 l 1,74,-1
 528.982 533 l 17,26,27
EndSplineSet
EndChar
StartChar: uni0E0D
Encoding: 3597 3597 136
Width: 1940
VWidth: 2045
Flags: HW
HStem: -577 192<1085.9 1261> -207 134<1085.9 1180.8> -10 186<438.6 537.4> 0 220<1258 1552> 354 184<441.2 536.1> 701 220<435 546> 1062 222<481.3 870>
VStem: 214 183<217.9 312.8> 215 220<533 701> 577 185<219.2 312.8> 911 133<-342.8 -249.2> 1038 220<220 852> 1552 220<220 1254>
Fore
1296.79 220 m 17,0,-1
 1590.79 220 l 9,1,-1
 1773.11 1254 l 1,2,-1
 1993.11 1254 l 1,3,-1
 1772 0 l 25,4,-1
 1038 0 l 25,5,-1
 1161.43 700 l 2,6,7
 1188.23 852 1188.23 852 1100.25 957 c 128,-1,8
 1012.26 1062 1012.26 1062 862.26 1062 c 0,9,10
 713.26 1062 713.26 1062 588.568 956 c 0,11,12
 569.747 940 569.747 940 552.397 921 c 0,13,-1
 708.397 921 l 1,14,-1
 669.605 701 l 1,15,-1
 558.605 701 l 1,16,-1
 528.982 533 l 17,17,18
 554.864 538 554.864 538 582.864 538 c 0,19,20
 695.864 538 695.864 538 762.17 457.5 c 128,-1,21
 828.476 377 828.476 377 808.551 264 c 128,-1,22
 788.625 151 788.625 151 693.931 70.5 c 128,-1,23
 599.236 -10 599.236 -10 486.236 -10 c 128,-1,24
 373.236 -10 373.236 -10 306.343 70 c 0,25,26
 240.625 151 240.625 151 260.551 264 c 2,27,-1
 338.605 701 l 1,28,-1
 218.605 701 l 1,29,30
 246.642 860 246.642 860 348.269 994 c 128,-1,31
 449.896 1128 449.896 1128 597.65 1206 c 128,-1,32
 745.404 1284 745.404 1284 903.404 1284 c 128,-1,33
 1061.4 1284 1061.4 1284 1181.65 1206 c 128,-1,34
 1301.9 1128 1301.9 1128 1355.53 995.5 c 128,-1,35
 1409.17 863 1409.17 863 1381.96 703 c 2,36,-1
 1296.79 220 l 17,0,-1
443.903 266 m 0,37,38
 437.379 229 437.379 229 459.618 202 c 0,39,40
 481.033 176 481.033 176 519.033 176 c 128,-1,41
 557.033 176 557.033 176 586.618 202 c 0,42,43
 617.555 230 617.555 230 623.903 266 c 128,-1,44
 630.251 302 630.251 302 608.835 328 c 128,-1,45
 587.42 354 587.42 354 550.42 354 c 0,46,47
 514.42 354 514.42 354 481.835 328 c 0,48,49
 450.251 302 450.251 302 443.903 266 c 0,37,38
1720.09 -249 m 1,50,51
 1599.12 -436 1599.12 -436 1454.6 -507 c 128,-1,52
 1310.08 -578 1310.08 -578 1159.26 -577 c 0,53,54
 976.436 -576 976.436 -576 908.364 -488.5 c 128,-1,55
 840.293 -401 840.293 -401 857.926 -301 c 0,56,57
 877.734 -200 877.734 -200 952.932 -136.5 c 128,-1,58
 1028.13 -73 1028.13 -73 1122.13 -73 c 0,59,60
 1215.13 -73 1215.13 -73 1271.55 -141.5 c 128,-1,61
 1327.97 -210 1327.97 -210 1307.16 -294 c 0,62,63
 1286.52 -377 1286.52 -377 1228 -414 c 1,64,65
 1318.29 -418 1318.29 -418 1409.23 -364.5 c 128,-1,66
 1500.16 -311 1500.16 -311 1593.85 -154 c 1,67,-1
 1720.09 -249 l 1,50,51
991.808 -296 m 128,-1,69
 985.459 -332 985.459 -332 1007.29 -358.5 c 128,-1,70
 1029.11 -385 1029.11 -385 1066.11 -385 c 0,71,72
 1102.11 -385 1102.11 -385 1134.29 -358.5 c 128,-1,73
 1166.46 -332 1166.46 -332 1172.81 -296 c 128,-1,74
 1179.16 -260 1179.16 -260 1156.33 -233.5 c 128,-1,75
 1133.5 -207 1133.5 -207 1097.5 -207 c 0,76,77
 1060.5 -207 1060.5 -207 1029.33 -233.5 c 128,-1,68
 998.155 -260 998.155 -260 991.808 -296 c 128,-1,69
EndSplineSet
Substitution2: "Single Substitution lookup 9" uni0E0D.descless
Substitution2: "Single Substitution lookup 8" uni0E0D.descless
EndChar
StartChar: uni0E0E
Encoding: 3598 3598 137
Width: 1493
VWidth: 2045
Flags: HW
HStem: -626 186<472.6 571.4> -262 184<475.05 569.95> -10 186<267.598 366.398> 354 184<268.898 363.798> 701 220<590 701> 1062 222<546.3 933.7>
VStem: 43 185<219.195 312.795> 248 183<-397.95 -303.05> 370 220<532.995 700.995> 408 183<217.895 312.795> 1101 221<-277.266 850.964>
AnchorPoint: "BelowBase" 1049.22 -717.338 basechar 0
Fore
694.187 -481 m 25,0,-1
 619.726 -546 l 1,1,2
 524.619 -626 524.619 -626 411.619 -626 c 128,-1,3
 298.619 -626 298.619 -626 232.313 -545.5 c 128,-1,4
 166.008 -465 166.008 -465 185.933 -352 c 128,-1,5
 205.857 -239 205.857 -239 300.552 -158.5 c 128,-1,6
 395.246 -78 395.246 -78 508.246 -78 c 128,-1,7
 621.246 -78 621.246 -78 688.141 -158 c 1,8,-1
 738.561 -218 l 25,9,-1
 851.841 -120 l 1,10,-1
 960.742 -251 l 1,11,-1
 847.462 -349 l 17,12,-1
 897.059 -408 l 17,13,-1
 1052.16 -277 l 29,14,-1
 1224.43 700 l 6,15,16
 1251.05 851 1251.05 851 1163.66 956.5 c 132,-1,17
 1076.26 1062 1076.26 1062 927.26 1062 c 132,-1,18
 778.26 1062 778.26 1062 654.568 956 c 4,19,20
 634.747 940 634.747 940 617.397 921 c 4,21,-1
 863.397 921 l 5,22,-1
 824.605 701 l 5,23,-1
 713.605 701 l 5,24,-1
 637.551 264 l 6,25,26
 617.625 151 617.625 151 522.343 70 c 4,27,28
 428.236 -10 428.236 -10 315.236 -10 c 132,-1,29
 202.236 -10 202.236 -10 135.931 70.5 c 132,-1,30
 69.625 151 69.625 151 89.5508 264 c 132,-1,31
 109.476 377 109.476 377 204.17 457.5 c 132,-1,32
 298.864 538 298.864 538 411.864 538 c 4,33,34
 439.864 538 439.864 538 463.982 533 c 13,35,-1
 493.605 701 l 5,36,-1
 283.605 701 l 5,37,38
 311.642 860 311.642 860 413.269 994 c 132,-1,39
 514.896 1128 514.896 1128 662.65 1206 c 132,-1,40
 810.404 1284 810.404 1284 968.404 1284 c 132,-1,41
 1126.4 1284 1126.4 1284 1246.65 1206 c 132,-1,42
 1366.9 1128 1366.9 1128 1420.62 996 c 4,43,44
 1474.17 863 1474.17 863 1445.78 702 c 6,45,-1
 1265.4 -321 l 29,46,-1
 851.214 -668 l 1,47,-1
 694.187 -481 l 25,0,-1
585.285 -350 m 25,48,-1
 534.218 -288 l 1,49,50
 512.803 -262 512.803 -262 476.303 -262 c 128,-1,51
 439.803 -262 439.803 -262 407.718 -288 c 128,-1,52
 375.634 -314 375.634 -314 369.197 -350.5 c 128,-1,53
 362.762 -387 362.762 -387 384.589 -413.5 c 128,-1,54
 406.416 -440 406.416 -440 444.416 -440 c 128,-1,55
 482.416 -440 482.416 -440 512.001 -414 c 1,56,-1
 585.285 -350 l 25,48,-1
454.903 266 m 4,57,58
 461.251 302 461.251 302 438.835 328 c 4,59,60
 415.42 354 415.42 354 379.42 354 c 4,61,62
 342.42 354 342.42 354 311.835 328 c 132,-1,63
 281.251 302 281.251 302 274.903 266 c 132,-1,64
 268.556 230 268.556 230 289.618 202 c 4,65,66
 310.033 176 310.033 176 348.033 176 c 132,-1,67
 386.033 176 386.033 176 416.618 202 c 4,68,69
 448.379 229 448.379 229 454.903 266 c 4,57,58
EndSplineSet
EndChar
StartChar: uni0E0F
Encoding: 3599 3599 138
Width: 1493
VWidth: 2045
Flags: HW
HStem: -610 188<275.6 374.4> -244 182<278.05 372.95> -10 186<267.598 366.398> 354 184<268.898 363.798> 701 220<590 701> 1062 222<546.3 933.7>
VStem: 43 185<219.195 312.795> 51 183<-379.95 -285.05> 370 220<532.995 700.995> 408 183<217.895 312.795> 1101 221<-277.266 850.964>
AnchorPoint: "BelowBase" 948.312 -660.698 basechar 0
Fore
684.583 -371 m 25,0,-1
 839.505 -241 l 9,1,-1
 944.111 -368 l 1,2,-1
 1052.16 -277 l 25,3,-1
 1224.43 700 l 2,4,5
 1251.05 851 1251.05 851 1163.66 956.5 c 128,-1,6
 1076.26 1062 1076.26 1062 927.26 1062 c 128,-1,7
 778.26 1062 778.26 1062 654.568 956 c 0,8,9
 634.747 940 634.747 940 617.397 921 c 0,10,-1
 863.397 921 l 1,11,-1
 824.605 701 l 1,12,-1
 713.605 701 l 1,13,-1
 637.551 264 l 2,14,15
 617.625 151 617.625 151 522.343 70 c 0,16,17
 428.236 -10 428.236 -10 315.236 -10 c 128,-1,18
 202.236 -10 202.236 -10 135.931 70.5 c 128,-1,19
 69.625 151 69.625 151 89.5508 264 c 128,-1,20
 109.476 377 109.476 377 204.17 457.5 c 128,-1,21
 298.864 538 298.864 538 411.864 538 c 0,22,23
 439.864 538 439.864 538 463.982 533 c 9,24,-1
 493.605 701 l 1,25,-1
 283.605 701 l 1,26,27
 311.642 860 311.642 860 413.269 994 c 128,-1,28
 514.896 1128 514.896 1128 662.65 1206 c 128,-1,29
 810.404 1284 810.404 1284 968.404 1284 c 128,-1,30
 1126.4 1284 1126.4 1284 1246.65 1206 c 128,-1,31
 1366.9 1128 1366.9 1128 1420.62 996 c 0,32,33
 1474.17 863 1474.17 863 1445.78 702 c 2,34,-1
 1265.4 -321 l 25,35,-1
 898.267 -628 l 1,36,-1
 794.66 -501 l 17,37,-1
 638.209 -634 l 25,38,-1
 500.008 -465 l 9,39,-1
 424.547 -530 l 1,40,41
 330.44 -610 330.44 -610 217.44 -610 c 128,-1,42
 104.44 -610 104.44 -610 38.1348 -529.5 c 128,-1,43
 -28.1709 -449 -28.1709 -449 -8.24609 -336 c 128,-1,44
 11.6787 -223 11.6787 -223 106.373 -142.5 c 128,-1,45
 201.067 -62 201.067 -62 314.067 -62 c 128,-1,46
 427.067 -62 427.067 -62 492.962 -142 c 1,47,-1
 544.382 -202 l 25,48,-1
 622.372 -134 l 1,49,-1
 731.273 -265 l 1,50,-1
 653.283 -333 l 17,51,-1
 684.583 -371 l 25,0,-1
391.459 -332 m 25,52,-1
 340.392 -270 l 1,53,54
 318.977 -244 318.977 -244 282.477 -244 c 128,-1,55
 245.977 -244 245.977 -244 213.892 -270 c 128,-1,56
 181.808 -296 181.808 -296 175.371 -332.5 c 128,-1,57
 168.936 -369 168.936 -369 190.763 -395.5 c 128,-1,58
 212.59 -422 212.59 -422 250.59 -422 c 128,-1,59
 288.59 -422 288.59 -422 318.175 -396 c 1,60,-1
 391.459 -332 l 25,52,-1
454.903 266 m 0,61,62
 461.251 302 461.251 302 438.835 328 c 0,63,64
 415.42 354 415.42 354 379.42 354 c 0,65,66
 342.42 354 342.42 354 311.835 328 c 128,-1,67
 281.251 302 281.251 302 274.903 266 c 128,-1,68
 268.556 230 268.556 230 289.618 202 c 0,69,70
 310.033 176 310.033 176 348.033 176 c 128,-1,71
 386.033 176 386.033 176 416.618 202 c 0,72,73
 448.379 229 448.379 229 454.903 266 c 0,61,62
EndSplineSet
EndChar
StartChar: uni0E10
Encoding: 3600 3600 139
Width: 1245
VWidth: 2045
Flags: HW
HStem: -807 134<79.2 172.8> -521 133<745.9 842.1> -494 134<77.9 174.1> -210 134<745.9 842.1> 0 21G<698 918> 133 185<430.6 529.4> 496 184<433.2 528.1> 732 186<383.768 737> 1064 220<479.9 836.1>
VStem: -98 134<-629.8 -536.2> 206 183<359.9 454.8> 569 134<-344.8 -251.2> 883 136<-344.8 -251.2>
Fore
1124.24 818 m 17,0,1
 1116.87 901 1116.87 901 1062.33 966 c 0,2,3
 982.612 1064 982.612 1064 845.612 1064 c 128,-1,4
 708.612 1064 708.612 1064 594.332 966 c 0,5,6
 567.453 944 567.453 944 545.868 918 c 0,7,-1
 898.868 918 l 1,8,9
 1011.87 918 1011.87 918 1078.17 837.5 c 128,-1,10
 1144.48 757 1144.48 757 1124.55 644 c 0,11,-1
 1114.91 612 l 25,12,-1
 918 0 l 1,13,-1
 698 0 l 1,14,-1
 673.854 192 l 17,15,16
 615.98 136 615.98 136 504.363 132.5 c 128,-1,17
 392.746 129 392.746 129 325.205 211 c 128,-1,18
 257.664 293 257.664 293 277.589 406 c 128,-1,19
 297.514 519 297.514 519 392.208 599.5 c 128,-1,20
 486.902 680 486.902 680 599.902 680 c 128,-1,21
 712.902 680 712.902 680 779.796 600 c 0,22,23
 832.158 534 832.158 534 839.758 458 c 10,24,-1
 846.531 400 l 1,25,-1
 898.973 601 l 24,26,27
 908.496 638 908.496 638 908.202 642 c 16,28,29
 904.842 691 904.842 691 892.486 706 c 0,30,31
 872.071 732 872.071 732 833.071 732 c 2,32,-1
 235.071 732 l 1,33,34
 261.521 882 261.521 882 357.914 1009 c 128,-1,35
 454.308 1136 454.308 1136 594.355 1210 c 128,-1,36
 734.404 1284 734.404 1284 884.404 1284 c 128,-1,37
 1034.4 1284 1034.4 1284 1148.36 1210 c 128,-1,38
 1262.31 1136 1262.31 1136 1313.91 1009 c 0,39,40
 1334.75 957 1334.75 957 1343.05 902 c 9,41,-1
 1124.24 818 l 17,0,1
460.941 408 m 0,42,43
 454.417 371 454.417 371 476.656 344 c 0,44,45
 498.072 318 498.072 318 536.072 318 c 128,-1,46
 574.072 318 574.072 318 603.656 344 c 0,47,48
 634.594 372 634.594 372 640.941 408 c 128,-1,49
 647.289 444 647.289 444 625.874 470 c 128,-1,50
 604.458 496 604.458 496 567.458 496 c 0,51,52
 531.458 496 531.458 496 498.874 470 c 0,53,54
 467.289 444 467.289 444 460.941 408 c 0,42,43
912.675 -603 m 25,55,-1
 589.714 -875 l 1,56,-1
 493.991 -760 l 1,57,-1
 361.066 -873 l 1,58,-1
 209.453 -695 l 1,59,-1
 156.518 -740 l 2,60,61
 75.7041 -807 75.7041 -807 -15.2959 -807 c 0,62,63
 -108.296 -807 -108.296 -807 -162.658 -741 c 128,-1,64
 -217.021 -675 -217.021 -675 -200.799 -583 c 128,-1,65
 -184.576 -491 -184.576 -491 -107.527 -425.5 c 128,-1,66
 -30.4775 -360 -30.4775 -360 63.5225 -360 c 0,67,68
 155.522 -360 155.522 -360 209.885 -426 c 2,69,-1
 248.421 -474 l 1,70,-1
 373.936 -369 l 1,71,-1
 465.892 -477 l 1,72,-1
 341.201 -583 l 1,73,-1
 399.683 -654 l 1,74,-1
 532.607 -541 l 1,75,-1
 628.329 -656 l 1,76,-1
 739.904 -562 l 1,77,-1
 747.662 -518 l 1,78,79
 724.134 -521 724.134 -521 701.134 -521 c 0,80,81
 609.134 -521 609.134 -521 554.595 -456 c 128,-1,82
 500.057 -391 500.057 -391 516.278 -299 c 0,83,84
 532.324 -208 532.324 -208 608.962 -142 c 128,-1,85
 685.6 -76 685.6 -76 779.6 -76 c 128,-1,86
 873.6 -76 873.6 -76 927.962 -142 c 128,-1,87
 982.324 -208 982.324 -208 966.278 -299 c 2,88,-1
 912.675 -603 l 25,55,-1
650.455 -298 m 128,-1,90
 644.106 -334 644.106 -334 666.346 -361 c 128,-1,91
 688.585 -388 688.585 -388 725.585 -388 c 128,-1,92
 762.585 -388 762.585 -388 793.346 -361 c 128,-1,93
 824.106 -334 824.106 -334 830.455 -298 c 128,-1,94
 836.803 -262 836.803 -262 815.387 -236 c 128,-1,95
 793.972 -210 793.972 -210 756.972 -210 c 128,-1,96
 719.972 -210 719.972 -210 688.387 -236 c 128,-1,89
 656.803 -262 656.803 -262 650.455 -298 c 128,-1,90
-66.7988 -583 m 128,-1,98
 -73.1465 -619 -73.1465 -619 -50.9072 -646 c 128,-1,99
 -28.668 -673 -28.668 -673 7.33203 -673 c 128,-1,100
 43.332 -673 43.332 -673 75.0049 -646.5 c 128,-1,101
 106.678 -620 106.678 -620 113.201 -583 c 128,-1,102
 119.726 -546 119.726 -546 97.8096 -520 c 128,-1,103
 75.8945 -494 75.8945 -494 38.8945 -494 c 128,-1,104
 1.89453 -494 1.89453 -494 -29.2783 -520.5 c 128,-1,97
 -60.4512 -547 -60.4512 -547 -66.7988 -583 c 128,-1,98
EndSplineSet
Substitution2: "Single Substitution lookup 9" uni0E10.descless
Substitution2: "Single Substitution lookup 8" uni0E10.descless
EndChar
StartChar: uni0E11
Encoding: 3601 3601 140
Width: 1835
VWidth: 2045
Flags: HW
HStem: 0 21G<641.5 886 1431 1651> 468 190<332 436> 834 184<317 433.95>
VStem: 52 243<698.05 860> 475 187<699.2 792.8> 641 220<264 482.848> 818 215<710.55 967.947> 1431 220<0 1012.4>
Fore
1259.58 854 m 128,-1,1
 1312.74 1008 1312.74 1008 1388.78 1133 c 144,-1,3
 1464.82 1258 1464.82 1258 1613 1259 c 0,4,5
 1750 1259 1750 1259 1798.86 1184.5 c 128,-1,6
 1847.72 1110 1847.72 1110 1821.33 966 c 10,7,-1
 1651 0 l 1,8,-1
 1431 0 l 1,9,-1
 1596.04 936 l 2,10,11
 1606.45 995 1606.45 995 1548.62 996 c 0,12,13
 1492.8 997 1492.8 997 1461.4 921 c 0,14,15
 1406.6 769 1406.6 769 1211.14 446 c 128,-1,16
 1015.69 123 1015.69 123 886 0 c 9,17,-1
 642 0 l 25,18,-1
 705.007 363 l 2,19,20
 721.229 455 721.229 455 833.886 592 c 128,-1,21
 946.542 729 946.542 729 967.878 850 c 0,22,23
 983.924 941 983.924 941 962.24 991 c 128,-1,24
 940.557 1041 940.557 1041 885.728 1076 c 1,25,-1
 717.327 1000 l 1,26,-1
 574.199 1073 l 1,27,28
 504.906 1060 504.906 1060 496.501 1018 c 1,29,30
 677.501 1018 677.501 1018 745.482 938.5 c 128,-1,31
 813.465 859 813.465 859 793.54 746 c 128,-1,32
 773.615 633 773.615 633 673.892 549.5 c 128,-1,33
 574.168 466 574.168 466 463.521 468 c 0,34,35
 358.874 470 358.874 470 263.742 568.5 c 128,-1,36
 168.61 667 168.61 667 203.642 860 c 24,37,38
 234.617 1030 234.617 1030 357.396 1136.5 c 128,-1,39
 480.175 1243 480.175 1243 600.877 1264 c 1,40,-1
 752.36 1176 l 1,41,-1
 928.877 1264 l 1,42,43
 1015.76 1252 1015.76 1252 1113.22 1144 c 128,-1,44
 1210.67 1036 1210.67 1036 1190.72 894.5 c 128,-1,45
 1170.77 753 1170.77 753 1057.06 610 c 128,-1,46
 943.345 467 943.345 467 921.833 345 c 2,47,-1
 907.551 264 l 17,48,0
 1206.43 700 1206.43 700 1259.58 854 c 128,-1,1
426.452 745.5 m 128,-1,50
 420.016 709 420.016 709 440.195 684.5 c 128,-1,51
 460.376 660 460.376 660 500.023 658 c 128,-1,52
 539.671 656 539.671 656 569.932 683 c 128,-1,53
 600.192 710 600.192 710 606.54 746 c 128,-1,54
 612.888 782 612.888 782 591.473 808 c 128,-1,55
 570.057 834 570.057 834 533.557 834 c 128,-1,56
 497.057 834 497.057 834 464.973 808 c 128,-1,49
 432.888 782 432.888 782 426.452 745.5 c 128,-1,50
EndSplineSet
EndChar
StartChar: uni0E12
Encoding: 3602 3602 141
Width: 1987
VWidth: 2045
Flags: HW
HStem: -10 186<1095.6 1194.4> 1234 20G<1597 1817>
VStem: 141 220<242 1031.12> 767 186<571.2 664.8> 871 183<217.9 312.8> 1081 221<530.901 1063.15> 1597 220<239.711 1254>
Fore
1100.9 266 m 0,0,1
 1094.38 229 1094.38 229 1116.62 202 c 0,2,3
 1138.03 176 1138.03 176 1176.03 176 c 128,-1,4
 1214.03 176 1214.03 176 1243.62 202 c 0,5,6
 1274.55 230 1274.55 230 1280.9 266 c 128,-1,7
 1287.25 302 1287.25 302 1265.83 328 c 128,-1,8
 1244.42 354 1244.42 354 1207.42 354 c 0,9,10
 1171.42 354 1171.42 354 1138.83 328 c 0,11,12
 1107.25 302 1107.25 302 1100.9 266 c 0,0,1
1218.36 779 m 2,13,14
 1256.97 998 1256.97 998 1128.67 1036 c 1,15,-1
 885.691 917 l 1,16,-1
 688.675 1036 l 1,17,18
 537.68 1002 537.68 1002 498.888 782 c 2,19,-1
 403.671 242 l 9,20,-1
 605.12 392 l 1,21,22
 495.11 460 495.11 460 513.97 618 c 0,23,24
 527.366 728 527.366 728 630.03 814 c 128,-1,25
 732.694 900 732.694 900 837.518 899 c 0,26,27
 943.518 899 943.518 899 1012.71 815 c 128,-1,28
 1081.89 731 1081.89 731 1061.97 618 c 0,29,30
 1040.81 498 1040.81 498 945.999 414 c 8,31,32
 637.038 142 637.038 142 361 0 c 17,33,-1
 141 0 l 1,34,-1
 278.888 782 l 2,35,36
 312.742 974 312.742 974 416.929 1114 c 128,-1,37
 521.114 1254 521.114 1254 697.757 1286 c 1,38,-1
 933.955 1134 l 1,39,-1
 1214.4 1284 l 1,40,41
 1376.65 1223 1376.65 1223 1427.4 1111 c 128,-1,42
 1478.15 999 1478.15 999 1439.71 781 c 2,43,-1
 1387.34 484 l 17,44,45
 1406.87 470 1406.87 470 1418.76 458 c 2,46,-1
 1639.32 240 l 25,47,-1
 1818.11 1254 l 1,48,-1
 2038.11 1254 l 1,49,-1
 1817 0 l 25,50,-1
 1597 0 l 17,51,-1
 1431.45 167 l 1,52,53
 1402.1 114 1402.1 114 1350.34 70 c 0,54,55
 1256.24 -10 1256.24 -10 1143.24 -10 c 128,-1,56
 1030.24 -10 1030.24 -10 963.931 70.5 c 128,-1,57
 897.625 151 897.625 151 917.551 264 c 128,-1,58
 937.476 377 937.476 377 1032.76 458 c 0,59,60
 1098.63 514 1098.63 514 1174.63 531 c 0,61,-1
 1218.36 779 l 2,13,14
695.97 618 m 0,62,63
 689.446 581 689.446 581 711.686 554 c 0,64,65
 733.101 528 733.101 528 771.101 528 c 128,-1,66
 809.101 528 809.101 528 838.686 554 c 0,67,68
 869.622 582 869.622 582 875.97 618 c 128,-1,69
 882.318 654 882.318 654 860.902 680 c 128,-1,70
 839.486 706 839.486 706 802.486 706 c 0,71,72
 766.486 706 766.486 706 733.902 680 c 0,73,74
 702.318 654 702.318 654 695.97 618 c 0,62,63
EndSplineSet
EndChar
StartChar: uni0E13
Encoding: 3603 3603 142
Width: 2038
VWidth: 2045
Flags: HW
HStem: -10 184<448.6 547.4 1670.6 1769.4> 354 184<451.05 545.95> 701 220<445 556> 1062 222<491.3 875.719>
VStem: 224 183<218.05 312.95> 225 220<533 701> 587 185<219.2 312.8> 1046 221<239.711 899.507> 1562 221<530.901 1254> 1809 184<217.2 310.8>
Fore
1675.46 263.5 m 132,-1,1
 1669.03 227 1669.03 227 1690.85 200.5 c 132,-1,2
 1712.68 174 1712.68 174 1750.68 174 c 132,-1,3
 1788.68 174 1788.68 174 1818.94 201 c 132,-1,4
 1849.2 228 1849.2 228 1855.55 264 c 132,-1,5
 1861.9 300 1861.9 300 1840.48 326 c 132,-1,6
 1819.07 352 1819.07 352 1782.57 352 c 132,-1,7
 1746.07 352 1746.07 352 1713.98 326 c 132,-1,0
 1681.9 300 1681.9 300 1675.46 263.5 c 132,-1,1
453.814 265.5 m 128,-1,9
 447.379 229 447.379 229 469.206 202.5 c 128,-1,10
 491.033 176 491.033 176 529.033 176 c 128,-1,11
 567.033 176 567.033 176 597.294 203 c 128,-1,12
 627.555 230 627.555 230 633.903 266 c 128,-1,13
 640.251 302 640.251 302 618.835 328 c 128,-1,14
 597.42 354 597.42 354 560.92 354 c 128,-1,15
 524.42 354 524.42 354 492.335 328 c 128,-1,8
 460.251 302 460.251 302 453.814 265.5 c 128,-1,9
1876.63 531 m 21,16,17
 1946.63 514 1946.63 514 1992.76 458 c 4,18,19
 2059.48 377 2059.48 377 2039.55 264 c 132,-1,20
 2019.62 151 2019.62 151 1924.93 70.5 c 132,-1,21
 1830.24 -10 1830.24 -10 1717.24 -10 c 132,-1,22
 1604.24 -10 1604.24 -10 1538.34 70 c 4,23,24
 1502.1 114 1502.1 114 1491.45 167 c 5,25,-1
 1267 0 l 13,26,-1
 1047 0 l 25,27,-1
 1169.43 700 l 18,28,29
 1196.41 853 1196.41 853 1108.57 956 c 0,30,31
 1019.26 1062 1019.26 1062 872.26 1062 c 0,32,33
 723.26 1062 723.26 1062 598.568 956 c 0,34,35
 579.747 940 579.747 940 562.397 921 c 0,36,-1
 718.397 921 l 1,37,-1
 679.605 701 l 1,38,-1
 568.605 701 l 1,39,-1
 538.982 533 l 17,40,41
 564.864 538 564.864 538 592.864 538 c 0,42,43
 705.864 538 705.864 538 772.17 457.5 c 128,-1,44
 838.476 377 838.476 377 818.551 264 c 128,-1,45
 798.625 151 798.625 151 703.931 70.5 c 128,-1,46
 609.236 -10 609.236 -10 496.236 -10 c 128,-1,47
 383.236 -10 383.236 -10 316.343 70 c 0,48,49
 250.625 151 250.625 151 270.551 264 c 2,50,-1
 348.605 701 l 1,51,-1
 228.605 701 l 1,52,53
 256.642 860 256.642 860 358.269 994 c 128,-1,54
 459.896 1128 459.896 1128 607.65 1206 c 128,-1,55
 755.404 1284 755.404 1284 913.404 1284 c 128,-1,56
 1071.4 1284 1071.4 1284 1191.65 1206 c 128,-1,57
 1311.9 1128 1311.9 1128 1365.62 996 c 128,-1,59
 1419.35 864 1419.35 864 1390.78 702 c 2,60,-1
 1309.32 240 l 13,61,-1
 1606.76 458 l 6,62,63
 1622.87 470 1622.87 470 1647.34 484 c 5,64,-1
 1783.11 1254 l 5,65,-1
 2003.11 1254 l 13,66,-1
 1876.63 531 l 21,16,17
1762.88 -392 m 0,67,-1
EndSplineSet
EndChar
StartChar: uni0E14
Encoding: 3604 3604 143
Width: 1443
VWidth: 2045
Flags: HW
HStem: 0 21G<141 361 1082 1303> 1062 222<527.3 914.7>
VStem: 141 220<242 895.7> 807 186<551.2 644.8> 1082 221<0 896.3>
Fore
732.443 598 m 0,0,1
 725.92 561 725.92 561 748.158 534 c 0,2,3
 769.574 508 769.574 508 807.574 508 c 128,-1,4
 845.574 508 845.574 508 875.158 534 c 0,5,6
 906.096 562 906.096 562 912.443 598 c 128,-1,7
 918.791 634 918.791 634 897.376 660 c 128,-1,8
 875.96 686 875.96 686 838.96 686 c 0,9,10
 802.96 686 802.96 686 770.376 660 c 0,11,12
 738.791 634 738.791 634 732.443 598 c 0,0,1
361 0 m 17,13,-1
 141 0 l 1,14,-1
 264.781 702 l 2,15,16
 292.642 860 292.642 860 394.269 994 c 128,-1,17
 495.896 1128 495.896 1128 643.65 1206 c 128,-1,18
 791.404 1284 791.404 1284 949.404 1284 c 128,-1,19
 1107.4 1284 1107.4 1284 1227.65 1206 c 128,-1,20
 1347.9 1128 1347.9 1128 1401.53 995.5 c 128,-1,21
 1455.17 863 1455.17 863 1426.78 702 c 2,22,-1
 1303 0 l 1,23,-1
 1082 0 l 1,24,-1
 1205.43 700 l 2,25,26
 1232.05 851 1232.05 851 1144.66 956.5 c 128,-1,27
 1057.26 1062 1057.26 1062 908.26 1062 c 128,-1,28
 759.26 1062 759.26 1062 635.156 956.5 c 128,-1,29
 511.055 851 511.055 851 484.781 702 c 2,30,-1
 403.671 242 l 9,31,-1
 641.594 372 l 1,32,33
 531.584 440 531.584 440 550.443 598 c 0,34,35
 564.192 710 564.192 710 669.356 796 c 128,-1,36
 774.521 882 774.521 882 874.521 882 c 0,37,38
 977.521 882 977.521 882 1047.94 796.5 c 128,-1,39
 1118.37 711 1118.37 711 1098.44 598 c 0,40,41
 1075.87 470 1075.87 470 982.473 394 c 8,42,43
 680.449 150 680.449 150 361 0 c 17,13,-1
EndSplineSet
EndChar
StartChar: uni0E15
Encoding: 3605 3605 144
Width: 1453
VWidth: 2045
Flags: HW
HStem: 0 21G<141 361 1082 1303>
VStem: 141 220<242 973.63> 807 186<551.2 644.8> 1082 221<0 1061.96>
Fore
403.671 242 m 9,0,-1
 641.594 372 l 1,1,2
 531.584 440 531.584 440 550.443 598 c 0,3,4
 563.84 708 563.84 708 666.504 794 c 128,-1,5
 769.168 880 769.168 880 873.991 879 c 0,6,7
 979.991 879 979.991 879 1049.18 795 c 128,-1,8
 1118.37 711 1118.37 711 1098.44 598 c 0,9,10
 1075.87 470 1075.87 470 982.473 394 c 8,11,12
 680.449 150 680.449 150 361 0 c 17,13,-1
 141 0 l 1,14,-1
 278.888 782 l 2,15,16
 312.742 974 312.742 974 416.929 1114 c 128,-1,17
 521.114 1254 521.114 1254 697.757 1286 c 1,18,-1
 933.955 1134 l 1,19,-1
 1214.4 1284 l 1,20,21
 1376.65 1223 1376.65 1223 1427.72 1110 c 128,-1,22
 1478.8 997 1478.8 997 1440.89 782 c 2,23,-1
 1303 0 l 1,24,-1
 1082 0 l 1,25,-1
 1219.54 780 l 2,26,27
 1257.8 997 1257.8 997 1128.67 1036 c 1,28,-1
 885.691 917 l 1,29,-1
 688.675 1036 l 1,30,31
 537.68 1002 537.68 1002 498.888 782 c 2,32,-1
 403.671 242 l 9,0,-1
732.443 598 m 0,33,34
 725.92 561 725.92 561 748.158 534 c 0,35,36
 769.574 508 769.574 508 807.574 508 c 128,-1,37
 845.574 508 845.574 508 875.158 534 c 0,38,39
 906.096 562 906.096 562 912.443 598 c 128,-1,40
 918.791 634 918.791 634 897.376 660 c 128,-1,41
 875.96 686 875.96 686 838.96 686 c 0,42,43
 802.96 686 802.96 686 770.376 660 c 0,44,45
 738.791 634 738.791 634 732.443 598 c 0,33,34
EndSplineSet
EndChar
StartChar: uni0E16
Encoding: 3606 3606 145
Width: 1412
VWidth: 2045
Flags: HW
HStem: -10 186<486.6 585.4> 354 184<489.2 584.1> 1062 222<486.3 873.7>
VStem: 262 183<217.9 312.8> 263 220<533 701> 625 185<219.2 312.8> 1041 221<0 896.3>
Fore
491.903 266 m 0,0,1
 485.379 229 485.379 229 507.618 202 c 0,2,3
 529.033 176 529.033 176 567.033 176 c 128,-1,4
 605.033 176 605.033 176 634.618 202 c 0,5,6
 665.555 230 665.555 230 671.903 266 c 128,-1,7
 678.251 302 678.251 302 656.835 328 c 128,-1,8
 635.42 354 635.42 354 598.42 354 c 0,9,10
 562.42 354 562.42 354 529.835 328 c 0,11,12
 498.251 302 498.251 302 491.903 266 c 0,0,1
386.605 701 m 1,13,-1
 223.605 701 l 1,14,15
 251.642 860 251.642 860 353.269 994 c 128,-1,16
 454.896 1128 454.896 1128 602.65 1206 c 128,-1,17
 750.404 1284 750.404 1284 908.404 1284 c 128,-1,18
 1066.4 1284 1066.4 1284 1186.65 1206 c 128,-1,19
 1306.9 1128 1306.9 1128 1360.53 995.5 c 128,-1,20
 1414.17 863 1414.17 863 1385.78 702 c 2,21,-1
 1262 0 l 1,22,-1
 1041 0 l 1,23,-1
 1164.43 700 l 2,24,25
 1191.05 851 1191.05 851 1103.66 956.5 c 128,-1,26
 1016.26 1062 1016.26 1062 867.26 1062 c 128,-1,27
 718.26 1062 718.26 1062 594.568 956 c 0,28,29
 574.747 940 574.747 940 557.397 921 c 0,30,-1
 753.397 921 l 1,31,-1
 714.605 701 l 1,32,-1
 606.605 701 l 1,33,-1
 576.982 533 l 17,34,35
 602.864 538 602.864 538 630.864 538 c 0,36,37
 743.864 538 743.864 538 810.17 457.5 c 128,-1,38
 876.476 377 876.476 377 856.551 264 c 128,-1,39
 836.625 151 836.625 151 741.931 70.5 c 128,-1,40
 647.236 -10 647.236 -10 534.236 -10 c 128,-1,41
 421.236 -10 421.236 -10 354.931 70.5 c 128,-1,42
 288.625 151 288.625 151 308.551 264 c 2,43,-1
 386.605 701 l 1,13,-1
EndSplineSet
EndChar
StartChar: uni0E17
Encoding: 3607 3607 146
Width: 1547
VWidth: 2045
Flags: HW
HStem: 0 21G<414 634 1171 1391> 726 186<310.6 409.4> 1090 184<313.05 407.95>
VStem: 86 183<954.05 1048.95> 414 220<462.8 730.986> 449 185<955.2 1048.8> 1171 220<0 1014.72>
Fore
715.64 463 m 29,0,-1
 1128.78 1133 l 22,1,2
 1204.82 1258 1204.82 1258 1353 1259 c 4,3,4
 1489.17 1260 1489.17 1260 1538.45 1185 c 132,-1,5
 1587.72 1110 1587.72 1110 1561.33 966 c 14,6,-1
 1391 0 l 5,7,-1
 1171 0 l 5,8,-1
 1336.04 936 l 6,9,10
 1346.8 997 1346.8 997 1288.62 996 c 4,11,12
 1243.45 995 1243.45 995 1216.69 951 c 6,13,-1
 634 0 l 5,14,-1
 414 0 l 13,15,-1
 542.895 731 l 5,16,17
 516.014 726 516.014 726 488.014 726 c 4,18,19
 375.014 726 375.014 726 308.708 806.5 c 132,-1,20
 242.402 887 242.402 887 262.327 1000 c 132,-1,21
 282.252 1113 282.252 1113 376.946 1193.5 c 132,-1,22
 471.641 1274 471.641 1274 584.641 1274 c 132,-1,23
 697.641 1274 697.641 1274 763.946 1193.5 c 132,-1,24
 830.252 1113 830.252 1113 810.327 1000 c 6,25,-1
 715.64 463 l 29,0,-1
445.592 1001.5 m 132,-1,27
 439.155 965 439.155 965 460.982 938.5 c 132,-1,28
 482.811 912 482.811 912 520.811 912 c 132,-1,29
 558.811 912 558.811 912 589.071 939 c 132,-1,30
 619.332 966 619.332 966 625.68 1002 c 132,-1,31
 632.027 1038 632.027 1038 610.612 1064 c 132,-1,32
 589.196 1090 589.196 1090 552.696 1090 c 132,-1,33
 516.196 1090 516.196 1090 484.112 1064 c 132,-1,26
 452.027 1038 452.027 1038 445.592 1001.5 c 132,-1,27
EndSplineSet
EndChar
StartChar: uni0E18
Encoding: 3608 3608 147
Width: 1228
VWidth: 2045
Flags: HW
HStem: 0 220<191 302> 0 212<522 793> 732 186<522 737> 1064 220<479.9 836.1>
VStem: 302 220<220 732> 793 218<213 731.783>
Fore
651.071 732 m 25,0,-1
 559.381 212 l 9,1,-1
 830.558 213 l 25,2,-1
 905.26 648 l 2,3,4
 920.071 732 920.071 732 833.071 732 c 2,5,-1
 651.071 732 l 25,0,-1
431.071 732 m 25,6,-1
 235.071 732 l 1,7,8
 261.521 882 261.521 882 357.914 1009 c 128,-1,9
 454.308 1136 454.308 1136 594.355 1210 c 128,-1,10
 734.404 1284 734.404 1284 884.404 1284 c 128,-1,11
 1034.4 1284 1034.4 1284 1148.36 1210 c 128,-1,12
 1262.31 1136 1262.31 1136 1313.91 1009 c 0,13,14
 1334.75 957 1334.75 957 1343.05 902 c 9,15,-1
 1124.24 818 l 17,16,17
 1116.87 901 1116.87 901 1062.33 966 c 0,18,19
 982.612 1064 982.612 1064 845.612 1064 c 128,-1,20
 708.612 1064 708.612 1064 594.332 966 c 0,21,22
 567.453 944 567.453 944 545.868 918 c 0,23,-1
 898.868 918 l 2,24,25
 1011.87 918 1011.87 918 1078.17 837.5 c 128,-1,26
 1144.48 757 1144.48 757 1124.55 644 c 10,27,-1
 1011 0 l 17,28,-1
 191 0 l 1,29,-1
 229.792 220 l 1,30,-1
 340.792 220 l 1,31,-1
 431.071 732 l 25,6,-1
EndSplineSet
EndChar
StartChar: uni0E19
Encoding: 3609 3609 148
Width: 1603
VWidth: 2045
Flags: HW
HStem: -10 184<1157.6 1256.4> 726 186<310.6 409.4> 1090 184<313.05 407.95>
VStem: 86 183<954.05 1048.95> 414 220<229.711 730.986> 449 185<955.2 1048.8> 1080 220<530.901 1254> 1296 184<217.2 310.8>
Fore
1162.46 263.5 m 128,-1,1
 1156.03 227 1156.03 227 1177.85 200.5 c 128,-1,2
 1199.68 174 1199.68 174 1237.68 174 c 128,-1,3
 1275.68 174 1275.68 174 1305.94 201 c 128,-1,4
 1336.2 228 1336.2 228 1342.55 264 c 128,-1,5
 1348.9 300 1348.9 300 1327.48 326 c 128,-1,6
 1306.07 352 1306.07 352 1269.57 352 c 128,-1,7
 1233.07 352 1233.07 352 1200.98 326 c 128,-1,0
 1168.9 300 1168.9 300 1162.46 263.5 c 128,-1,1
1171.4 524 m 17,8,-1
 1301.11 1254 l 1,9,-1
 1521.11 1254 l 9,10,-1
 1393.63 531 l 17,11,12
 1441.04 505 1441.04 505 1480.76 458 c 0,13,14
 1546.48 377 1546.48 377 1526.55 264 c 128,-1,15
 1506.62 151 1506.62 151 1411.93 70.5 c 128,-1,16
 1317.24 -10 1317.24 -10 1204.24 -10 c 0,17,18
 1108.24 -10 1108.24 -10 1024.34 70 c 0,19,20
 975.807 118 975.807 118 963.381 212 c 1,21,-1
 634 0 l 5,22,-1
 414 0 l 13,23,-1
 542.895 731 l 5,24,25
 516.014 726 516.014 726 488.014 726 c 4,26,27
 375.014 726 375.014 726 308.708 806.5 c 132,-1,28
 242.402 887 242.402 887 262.327 1000 c 132,-1,29
 282.252 1113 282.252 1113 376.946 1193.5 c 132,-1,30
 471.641 1274 471.641 1274 584.641 1274 c 132,-1,31
 697.641 1274 697.641 1274 764.534 1194 c 4,32,33
 830.075 1112 830.075 1112 810.327 1000 c 6,34,-1
 674.555 230 l 29,35,-1
 1171.4 524 l 17,8,-1
445.592 1001.5 m 132,-1,37
 439.155 965 439.155 965 460.982 938.5 c 132,-1,38
 482.811 912 482.811 912 520.811 912 c 132,-1,39
 558.811 912 558.811 912 589.071 939 c 132,-1,40
 619.332 966 619.332 966 625.68 1002 c 132,-1,41
 632.027 1038 632.027 1038 610.612 1064 c 132,-1,42
 589.196 1090 589.196 1090 552.696 1090 c 132,-1,43
 516.196 1090 516.196 1090 484.112 1064 c 132,-1,36
 452.027 1038 452.027 1038 445.592 1001.5 c 132,-1,37
EndSplineSet
EndChar
StartChar: uni0E1A
Encoding: 3610 3610 149
Width: 1502
VWidth: 2045
Flags: HW
HStem: 0 214<303 414 634 1114> 726 186<310.6 409.4> 1090 184<313.05 407.95>
VStem: 86 183<954.05 1048.95> 414 220<214 730.986> 449 185<955.2 1048.8> 1114 219<213 1254>
Fore
1554.11 1254 m 25,0,-1
 1333 0 l 17,1,-1
 303 0 l 1,2,-1
 340.734 214 l 1,3,-1
 451.734 214 l 9,4,-1
 542.895 731 l 1,5,6
 516.014 726 516.014 726 488.014 726 c 0,7,8
 375.014 726 375.014 726 308.708 806.5 c 128,-1,9
 242.402 887 242.402 887 262.327 1000 c 128,-1,10
 282.252 1113 282.252 1113 376.946 1193.5 c 128,-1,11
 471.641 1274 471.641 1274 584.641 1274 c 128,-1,12
 697.641 1274 697.641 1274 764.534 1194 c 0,13,14
 830.075 1112 830.075 1112 810.327 1000 c 2,15,-1
 671.734 214 l 29,16,-1
 1151.56 213 l 29,17,-1
 1335.11 1254 l 25,18,-1
 1554.11 1254 l 25,0,-1
445.592 1001.5 m 128,-1,20
 439.155 965 439.155 965 460.982 938.5 c 128,-1,21
 482.811 912 482.811 912 520.811 912 c 128,-1,22
 558.811 912 558.811 912 589.071 939 c 128,-1,23
 619.332 966 619.332 966 625.68 1002 c 128,-1,24
 632.027 1038 632.027 1038 610.612 1064 c 128,-1,25
 589.196 1090 589.196 1090 552.696 1090 c 128,-1,26
 516.196 1090 516.196 1090 484.112 1064 c 128,-1,19
 452.027 1038 452.027 1038 445.592 1001.5 c 128,-1,20
EndSplineSet
EndChar
StartChar: uni0E1B
Encoding: 3611 3611 150
Width: 1508
VWidth: 2045
Flags: HW
HStem: 0 214<303 414 634 1114> 726 186<310.6 409.4> 1090 184<313.05 407.95>
VStem: 86 183<954.05 1048.95> 414 220<214 730.986> 449 185<955.2 1048.8> 1114 219<213 1834>
AnchorPoint: "AboveBase" 1235.88 1375.4 basechar 0
Fore
1656.38 1834 m 25,0,-1
 1333 0 l 17,1,-1
 303 0 l 1,2,-1
 340.734 214 l 1,3,-1
 451.734 214 l 9,4,-1
 542.895 731 l 1,5,6
 516.014 726 516.014 726 488.014 726 c 0,7,8
 375.014 726 375.014 726 308.708 806.5 c 128,-1,9
 242.402 887 242.402 887 262.327 1000 c 128,-1,10
 282.252 1113 282.252 1113 376.946 1193.5 c 128,-1,11
 471.641 1274 471.641 1274 584.641 1274 c 128,-1,12
 697.641 1274 697.641 1274 764.534 1194 c 0,13,14
 830.075 1112 830.075 1112 810.327 1000 c 2,15,-1
 671.734 214 l 25,16,-1
 1151.56 213 l 25,17,-1
 1437.38 1834 l 25,18,-1
 1656.38 1834 l 25,0,-1
445.592 1001.5 m 128,-1,20
 439.155 965 439.155 965 460.982 938.5 c 128,-1,21
 482.811 912 482.811 912 520.811 912 c 128,-1,22
 558.811 912 558.811 912 589.071 939 c 128,-1,23
 619.332 966 619.332 966 625.68 1002 c 128,-1,24
 632.027 1038 632.027 1038 610.612 1064 c 128,-1,25
 589.196 1090 589.196 1090 552.696 1090 c 128,-1,26
 516.196 1090 516.196 1090 484.112 1064 c 128,-1,19
 452.027 1038 452.027 1038 445.592 1001.5 c 128,-1,20
EndSplineSet
EndChar
StartChar: uni0E1C
Encoding: 3612 3612 151
Width: 1393
VWidth: 2045
Flags: HW
HStem: 0 21G<1012 1232> 726 186<370.6 469.4> 1090 184<372.05 466.95>
VStem: 146 220<284 730.986> 146 185<955.2 1048.8> 511 183<954.05 1048.95> 1012 220<284 1254>
Fore
1012 0 m 17,0,-1
 755.299 376 l 1,1,-1
 366 0 l 5,2,-1
 146 0 l 29,3,-1
 322.327 1000 l 6,4,5
 342.075 1112 342.075 1112 436.534 1194 c 4,6,7
 531.641 1274 531.641 1274 644.641 1274 c 132,-1,8
 757.641 1274 757.641 1274 823.946 1193.5 c 132,-1,9
 890.252 1113 890.252 1113 870.327 1000 c 132,-1,10
 850.402 887 850.402 887 755.708 806.5 c 132,-1,11
 661.014 726 661.014 726 548.014 726 c 4,12,13
 520.014 726 520.014 726 494.895 731 c 5,14,-1
 415.077 284 l 5,15,-1
 805.729 662 l 1,16,-1
 1062.08 284 l 1,17,-1
 1233.11 1254 l 1,18,-1
 1453.11 1254 l 1,19,-1
 1232 0 l 25,20,-1
 1012 0 l 17,0,-1
687.592 1001.5 m 132,-1,22
 694.027 1038 694.027 1038 671.112 1064 c 132,-1,23
 648.196 1090 648.196 1090 611.696 1090 c 132,-1,24
 575.196 1090 575.196 1090 544.612 1064 c 132,-1,25
 514.027 1038 514.027 1038 507.68 1002 c 132,-1,26
 501.332 966 501.332 966 522.071 939 c 132,-1,27
 542.811 912 542.811 912 580.811 912 c 132,-1,28
 618.811 912 618.811 912 649.982 938.5 c 132,-1,21
 681.155 965 681.155 965 687.592 1001.5 c 132,-1,22
EndSplineSet
EndChar
StartChar: uni0E1D
Encoding: 3613 3613 152
Width: 1393
VWidth: 2045
Flags: HW
HStem: 0 21G<1012 1232> 726 186<370.6 469.4> 1090 184<372.05 466.95>
VStem: 146 220<284 730.986> 146 185<955.2 1048.8> 511 183<954.05 1048.95> 1012 220<284 1834>
AnchorPoint: "AboveBase" 1136.76 1327.48 basechar 0
Fore
1012 0 m 17,0,-1
 755.299 376 l 1,1,-1
 366 0 l 1,2,-1
 146 0 l 25,3,-1
 322.327 1000 l 2,4,5
 342.075 1112 342.075 1112 436.534 1194 c 0,6,7
 531.641 1274 531.641 1274 644.641 1274 c 128,-1,8
 757.641 1274 757.641 1274 823.946 1193.5 c 128,-1,9
 890.252 1113 890.252 1113 870.327 1000 c 128,-1,10
 850.402 887 850.402 887 755.708 806.5 c 128,-1,11
 661.014 726 661.014 726 548.014 726 c 0,12,13
 520.014 726 520.014 726 494.895 731 c 1,14,-1
 415.077 284 l 1,15,-1
 805.729 662 l 1,16,-1
 1062.08 284 l 1,17,-1
 1335.38 1834 l 1,18,-1
 1555.38 1834 l 1,19,-1
 1232 0 l 25,20,-1
 1012 0 l 17,0,-1
687.592 1001.5 m 128,-1,22
 694.027 1038 694.027 1038 671.112 1064 c 128,-1,23
 648.196 1090 648.196 1090 611.696 1090 c 128,-1,24
 575.196 1090 575.196 1090 544.612 1064 c 128,-1,25
 514.027 1038 514.027 1038 507.68 1002 c 128,-1,26
 501.332 966 501.332 966 522.071 939 c 128,-1,27
 542.811 912 542.811 912 580.811 912 c 128,-1,28
 618.811 912 618.811 912 649.982 938.5 c 128,-1,21
 681.155 965 681.155 965 687.592 1001.5 c 128,-1,22
EndSplineSet
EndChar
StartChar: uni0E1E
Encoding: 3614 3614 153
Width: 1650
VWidth: 2045
Flags: HW
HStem: 0 21G<414 633.998 1250 1470> 726 186<310.6 409.4> 1090 184<313.05 407.95>
VStem: 86 183<954.05 1048.95> 414 220<511.507 730.986> 449 185<955.2 1048.8> 1250 220<494 1254>
Fore
634 0 m 5,0,-1
 414 0 l 13,1,-1
 542.895 731 l 5,2,3
 516.014 726 516.014 726 488.014 726 c 4,4,5
 375.014 726 375.014 726 308.708 806.5 c 132,-1,6
 242.402 887 242.402 887 262.327 1000 c 132,-1,7
 282.252 1113 282.252 1113 376.946 1193.5 c 132,-1,8
 471.641 1274 471.641 1274 584.641 1274 c 132,-1,9
 697.641 1274 697.641 1274 763.946 1193.5 c 132,-1,10
 830.252 1113 830.252 1113 810.327 1000 c 6,11,-1
 720.93 493 l 21,12,-1
 1105.11 1254 l 5,13,-1
 1221.11 1254 l 5,14,-1
 1337.11 494 l 5,15,-1
 1471.11 1254 l 5,16,-1
 1691.11 1254 l 5,17,-1
 1470 0 l 5,18,-1
 1250 0 l 5,19,-1
 1091.64 843 l 5,20,-1
 634 0 l 5,0,-1
445.592 1001.5 m 132,-1,22
 439.155 965 439.155 965 460.982 938.5 c 132,-1,23
 482.811 912 482.811 912 520.811 912 c 132,-1,24
 558.811 912 558.811 912 589.071 939 c 132,-1,25
 619.332 966 619.332 966 625.68 1002 c 132,-1,26
 632.027 1038 632.027 1038 610.612 1064 c 132,-1,27
 589.196 1090 589.196 1090 552.696 1090 c 132,-1,28
 516.196 1090 516.196 1090 484.112 1064 c 132,-1,21
 452.027 1038 452.027 1038 445.592 1001.5 c 132,-1,22
EndSplineSet
EndChar
StartChar: uni0E1F
Encoding: 3615 3615 154
Width: 1652
VWidth: 2045
Flags: HW
HStem: 0 21G<414 633.998 1250 1470> 726 186<310.6 409.4> 1090 184<313.05 407.95>
VStem: 86 183<954.05 1048.95> 414 220<511.507 730.986> 449 185<955.2 1048.8> 1250 220<494 1834>
AnchorPoint: "AboveBase" 1402.12 1397.47 basechar 0
Fore
634 0 m 1,0,-1
 414 0 l 9,1,-1
 542.895 731 l 1,2,3
 516.014 726 516.014 726 488.014 726 c 0,4,5
 375.014 726 375.014 726 308.708 806.5 c 128,-1,6
 242.402 887 242.402 887 262.327 1000 c 128,-1,7
 282.252 1113 282.252 1113 376.946 1193.5 c 128,-1,8
 471.641 1274 471.641 1274 584.641 1274 c 128,-1,9
 697.641 1274 697.641 1274 763.946 1193.5 c 128,-1,10
 830.252 1113 830.252 1113 810.327 1000 c 2,11,-1
 720.93 493 l 17,12,-1
 1105.11 1254 l 1,13,-1
 1221.11 1254 l 1,14,-1
 1337.11 494 l 1,15,-1
 1573.38 1834 l 1,16,-1
 1793.38 1834 l 1,17,-1
 1470 0 l 1,18,-1
 1250 0 l 1,19,-1
 1091.64 843 l 1,20,-1
 634 0 l 1,0,-1
445.592 1001.5 m 128,-1,22
 439.155 965 439.155 965 460.982 938.5 c 128,-1,23
 482.811 912 482.811 912 520.811 912 c 128,-1,24
 558.811 912 558.811 912 589.071 939 c 128,-1,25
 619.332 966 619.332 966 625.68 1002 c 128,-1,26
 632.027 1038 632.027 1038 610.612 1064 c 128,-1,27
 589.196 1090 589.196 1090 552.696 1090 c 128,-1,28
 516.196 1090 516.196 1090 484.112 1064 c 128,-1,21
 452.027 1038 452.027 1038 445.592 1001.5 c 128,-1,22
EndSplineSet
EndChar
StartChar: uni0E20
Encoding: 3616 3616 155
Width: 1501
VWidth: 2045
Flags: HW
HStem: -10 186<267.598 366.398> 354 184<268.898 363.798> 701 220<590 701> 1062 222<546.3 933.7>
VStem: 43 185<219.195 312.795> 370 220<532.995 700.995> 408 183<217.895 312.795> 1101 219<0 850.986>
Fore
454.903 266 m 4,0,1
 461.251 302 461.251 302 438.835 328 c 4,2,3
 415.42 354 415.42 354 379.42 354 c 4,4,5
 342.42 354 342.42 354 311.835 328 c 132,-1,6
 281.251 302 281.251 302 274.903 266 c 132,-1,7
 268.556 230 268.556 230 289.618 202 c 4,8,9
 310.033 176 310.033 176 348.033 176 c 132,-1,10
 386.033 176 386.033 176 416.618 202 c 4,11,12
 448.379 229 448.379 229 454.903 266 c 4,0,1
1320 0 m 17,13,-1
 1101 0 l 9,14,-1
 1224.43 700 l 2,15,16
 1251.05 851 1251.05 851 1163.66 956.5 c 128,-1,17
 1076.26 1062 1076.26 1062 927.26 1062 c 128,-1,18
 778.26 1062 778.26 1062 654.568 956 c 0,19,20
 634.747 940 634.747 940 617.397 921 c 0,21,-1
 863.397 921 l 1,22,-1
 824.605 701 l 1,23,-1
 713.605 701 l 5,24,-1
 637.551 264 l 6,25,26
 617.625 151 617.625 151 522.343 70 c 4,27,28
 428.236 -10 428.236 -10 315.236 -10 c 132,-1,29
 202.236 -10 202.236 -10 135.931 70.5 c 132,-1,30
 69.625 151 69.625 151 89.5508 264 c 132,-1,31
 109.476 377 109.476 377 204.17 457.5 c 132,-1,32
 298.864 538 298.864 538 411.864 538 c 4,33,34
 439.864 538 439.864 538 463.982 533 c 13,35,-1
 493.605 701 l 5,36,-1
 283.605 701 l 1,37,38
 311.642 860 311.642 860 413.269 994 c 128,-1,39
 514.896 1128 514.896 1128 662.65 1206 c 128,-1,40
 810.404 1284 810.404 1284 968.404 1284 c 128,-1,41
 1126.4 1284 1126.4 1284 1246.65 1206 c 128,-1,42
 1366.9 1128 1366.9 1128 1420.62 996 c 0,43,44
 1474.17 863 1474.17 863 1445.78 702 c 2,45,-1
 1320 0 l 17,13,-1
EndSplineSet
EndChar
StartChar: uni0E21
Encoding: 3617 3617 156
Width: 1422
VWidth: 2045
Flags: HW
HStem: 0 186<310.6 409.4> 364 184<313.2 408.1> 726 186<310.6 409.4> 1090 184<313.05 407.95>
VStem: 86 183<227.9 322.8 954.05 1048.95> 415 219<543.064 730.986> 449 185<955.2 1048.8> 1036 220<212.825 1254>
Fore
1073.56 213 m 25,0,-1
 1257.11 1254 l 1,1,-1
 1477.11 1254 l 1,2,-1
 1256 0 l 1,3,-1
 1036 0 l 1,4,-1
 671.202 228 l 17,5,6
 642.391 144 642.391 144 568.106 80 c 0,7,8
 473 0 473 0 360 0 c 128,-1,9
 247 0 247 0 180.694 80.5 c 128,-1,10
 114.389 161 114.389 161 134.313 274 c 128,-1,11
 154.238 387 154.238 387 248.933 467.5 c 128,-1,12
 343.627 548 343.627 548 456.627 548 c 0,13,14
 485.627 548 485.627 548 510.745 543 c 0,15,-1
 542.895 731 l 1,16,17
 516.014 726 516.014 726 488.014 726 c 0,18,19
 375.014 726 375.014 726 308.708 806.5 c 128,-1,20
 242.402 887 242.402 887 262.327 1000 c 128,-1,21
 282.252 1113 282.252 1113 376.946 1193.5 c 128,-1,22
 471.641 1274 471.641 1274 584.641 1274 c 128,-1,23
 697.641 1274 697.641 1274 763.946 1193.5 c 128,-1,24
 830.252 1113 830.252 1113 810.327 1000 c 2,25,-1
 711.407 439 l 17,26,-1
 1073.56 213 l 25,0,-1
317.666 276 m 0,27,28
 311.143 239 311.143 239 333.381 212 c 0,29,30
 354.797 186 354.797 186 392.797 186 c 128,-1,31
 430.797 186 430.797 186 460.381 212 c 0,32,33
 491.318 240 491.318 240 497.666 276 c 128,-1,34
 504.014 312 504.014 312 482.599 338 c 128,-1,35
 461.183 364 461.183 364 424.183 364 c 0,36,37
 388.183 364 388.183 364 355.599 338 c 0,38,39
 324.014 312 324.014 312 317.666 276 c 0,27,28
445.592 1001.5 m 128,-1,41
 439.155 965 439.155 965 460.982 938.5 c 128,-1,42
 482.811 912 482.811 912 520.811 912 c 128,-1,43
 558.811 912 558.811 912 589.071 939 c 128,-1,44
 619.332 966 619.332 966 625.68 1002 c 128,-1,45
 632.027 1038 632.027 1038 610.612 1064 c 128,-1,46
 589.196 1090 589.196 1090 552.696 1090 c 128,-1,47
 516.196 1090 516.196 1090 484.112 1064 c 128,-1,40
 452.027 1038 452.027 1038 445.592 1001.5 c 128,-1,41
EndSplineSet
EndChar
StartChar: uni0E22
Encoding: 3618 3618 157
Width: 1331
VWidth: 2045
Flags: HW
HStem: 0 218<448 937> 420 218<507.986 722> 716 186<474.1 572.9> 1080 184<476.7 571.6>
VStem: 228 220<218 379.65> 612 185<945.2 1038.8> 937 220<218 1254>
Fore
493.243 767 m 1,0,1
 486.719 730 486.719 730 515.107 684 c 128,-1,2
 543.496 638 543.496 638 631.496 638 c 2,3,-1
 834.496 638 l 1,4,-1
 796.058 420 l 1,5,-1
 601.058 420 l 2,6,7
 584.058 420 584.058 420 548.473 394 c 128,-1,8
 512.889 368 512.889 368 505.659 327 c 2,9,-1
 486.439 218 l 1,10,-1
 975.439 218 l 1,11,-1
 1158.11 1254 l 1,12,-1
 1378.11 1254 l 1,13,-1
 1157 0 l 1,14,-1
 228 0 l 1,15,-1
 292.359 365 l 2,16,17
 309.11 460 309.11 460 381.161 517 c 1,18,19
 316.681 588 316.681 588 287.285 676.5 c 128,-1,20
 257.891 765 257.891 765 278.051 876.5 c 128,-1,21
 298.211 988 298.211 988 376.314 1085 c 128,-1,22
 454.419 1182 454.419 1182 543.147 1223 c 136,-1,23
 631.877 1264 631.877 1264 746.877 1264 c 0,24,25
 858.877 1264 858.877 1264 925.683 1183.5 c 128,-1,26
 992.488 1103 992.488 1103 972.063 990 c 128,-1,27
 951.639 877 951.639 877 856.944 796.5 c 128,-1,28
 762.25 716 762.25 716 650.25 716 c 128,-1,30
 538.25 716 538.25 716 493.243 767 c 1,0,1
606.916 992 m 0,31,32
 600.393 955 600.393 955 623.632 928 c 0,33,34
 645.047 902 645.047 902 683.047 902 c 128,-1,35
 721.047 902 721.047 902 749.632 928 c 0,36,37
 780.568 956 780.568 956 786.916 992 c 128,-1,38
 793.264 1028 793.264 1028 771.849 1054 c 128,-1,39
 750.434 1080 750.434 1080 714.434 1080 c 128,-1,41
 678.434 1080 678.434 1080 645.849 1054 c 128,-1,43
 613.264 1028 613.264 1028 606.916 992 c 0,31,32
EndSplineSet
EndChar
StartChar: uni0E23
Encoding: 3619 3619 158
Width: 1172
VWidth: 2045
Flags: HW
HStem: -10 186<607.598 706.398> 354 184<608.898 703.798> 732 186<383.768 737.138> 1064 220<479.9 836.1>
VStem: 383 185<219.195 312.795> 711 220<533 756.913> 748 183<217.895 312.795>
Fore
794.903 266 m 4,0,1
 801.251 302 801.251 302 778.835 328 c 4,2,3
 755.42 354 755.42 354 719.42 354 c 4,4,5
 682.42 354 682.42 354 651.835 328 c 132,-1,6
 621.251 302 621.251 302 614.903 266 c 132,-1,7
 608.555 230 608.555 230 629.618 202 c 4,8,9
 650.033 176 650.033 176 688.033 176 c 132,-1,10
 726.033 176 726.033 176 756.618 202 c 4,11,12
 788.379 229 788.379 229 794.903 266 c 4,0,1
1112.29 875 m 21,13,14
 1097.93 924 1097.93 924 1062.33 966 c 4,15,16
 982.612 1064 982.612 1064 845.612 1064 c 132,-1,17
 708.612 1064 708.612 1064 594.332 966 c 4,18,19
 567.453 944 567.453 944 545.868 918 c 4,20,-1
 818.868 918 l 6,21,22
 931.868 918 931.868 918 998.174 837.5 c 132,-1,23
 1064.48 757 1064.48 757 1044.55 644 c 14,24,-1
 977.551 264 l 22,25,26
 957.625 151 957.625 151 862.931 70.5 c 132,-1,27
 768.236 -10 768.236 -10 655.236 -10 c 132,-1,28
 542.236 -10 542.236 -10 475.931 70.5 c 132,-1,29
 409.625 151 409.625 151 429.551 264 c 132,-1,30
 449.476 377 449.476 377 544.17 457.5 c 132,-1,31
 638.864 538 638.864 538 751.864 538 c 4,32,33
 779.864 538 779.864 538 804.982 533 c 13,34,-1
 825.26 648 l 6,35,36
 840.071 732 840.071 732 753.071 732 c 6,37,-1
 235.071 732 l 5,38,39
 261.521 882 261.521 882 357.914 1009 c 132,-1,40
 454.308 1136 454.308 1136 594.355 1210 c 132,-1,41
 734.404 1284 734.404 1284 884.404 1284 c 132,-1,42
 1034.4 1284 1034.4 1284 1148.36 1210 c 132,-1,43
 1262.31 1136 1262.31 1136 1313.91 1009 c 13,44,-1
 1112.29 875 l 21,13,14
EndSplineSet
EndChar
StartChar: uni0E24
Encoding: 3620 3620 159
Width: 1435
VWidth: 2045
Flags: HW
HStem: -10 186<486.6 585.4> 354 184<489.2 584.1> 1062 222<486.3 873.7>
VStem: 262 183<217.9 312.8> 263 220<533 701> 625 185<219.2 312.8> 1041 221<-560 896.3>
Fore
491.903 266 m 0,0,1
 485.379 229 485.379 229 507.618 202 c 0,2,3
 529.033 176 529.033 176 567.033 176 c 128,-1,4
 605.033 176 605.033 176 634.618 202 c 0,5,6
 665.555 230 665.555 230 671.903 266 c 128,-1,7
 678.251 302 678.251 302 656.835 328 c 128,-1,8
 635.42 354 635.42 354 598.42 354 c 0,9,10
 562.42 354 562.42 354 529.835 328 c 0,11,12
 498.251 302 498.251 302 491.903 266 c 0,0,1
386.605 701 m 1,13,-1
 223.605 701 l 1,14,15
 251.642 860 251.642 860 353.269 994 c 128,-1,16
 454.896 1128 454.896 1128 602.65 1206 c 128,-1,17
 750.404 1284 750.404 1284 908.404 1284 c 128,-1,18
 1066.4 1284 1066.4 1284 1186.65 1206 c 128,-1,19
 1306.9 1128 1306.9 1128 1360.53 995.5 c 128,-1,20
 1414.17 863 1414.17 863 1385.78 702 c 2,21,-1
 1163.26 -560 l 1,22,-1
 942.257 -560 l 1,23,-1
 1164.43 700 l 2,24,25
 1191.05 851 1191.05 851 1103.66 956.5 c 128,-1,26
 1016.26 1062 1016.26 1062 867.26 1062 c 128,-1,27
 718.26 1062 718.26 1062 594.568 956 c 0,28,29
 574.747 940 574.747 940 557.397 921 c 0,30,-1
 753.397 921 l 1,31,-1
 714.605 701 l 1,32,-1
 606.605 701 l 1,33,-1
 576.982 533 l 17,34,35
 602.864 538 602.864 538 630.864 538 c 0,36,37
 743.864 538 743.864 538 810.17 457.5 c 128,-1,38
 876.476 377 876.476 377 856.551 264 c 128,-1,39
 836.625 151 836.625 151 741.931 70.5 c 128,-1,40
 647.236 -10 647.236 -10 534.236 -10 c 128,-1,41
 421.236 -10 421.236 -10 354.931 70.5 c 128,-1,42
 288.625 151 288.625 151 308.551 264 c 2,43,-1
 386.605 701 l 1,13,-1
EndSplineSet
EndChar
StartChar: uni0E25
Encoding: 3621 3621 160
Width: 1477
VWidth: 2045
Flags: HW
HStem: 0 186<508.6 607.4> 652 222<571.1 906.9> 1062 222<527.3 914.7>
VStem: 141 220<702 895.7> 284 183<227.899 322.799> 647 185<229.199 322.799> 1082 221<0 492.12>
Fore
515.666 276 m 0,0,1
 509.143 239 509.143 239 531.381 212 c 0,2,3
 552.797 186 552.797 186 590.797 186 c 128,-1,4
 628.797 186 628.797 186 658.381 212 c 0,5,6
 689.318 240 689.318 240 695.666 276 c 128,-1,7
 702.014 312 702.014 312 680.599 338 c 128,-1,8
 659.183 364 659.183 364 622.183 364 c 0,9,10
 586.183 364 586.183 364 553.599 338 c 0,11,12
 522.014 312 522.014 312 515.666 276 c 0,0,1
1133.31 291 m 18,13,14
 1160.64 446 1160.64 446 1069.71 548.5 c 128,-1,15
 978.789 651 978.789 651 835.965 652 c 0,16,17
 694.965 652 694.965 652 654.627 548 c 1,18,19
 767.627 548 767.627 548 833.933 467.5 c 128,-1,20
 900.238 387 900.238 387 880.313 274 c 128,-1,21
 860.389 161 860.389 161 765.694 80.5 c 128,-1,22
 671 0 671 0 558 0 c 128,-1,23
 445 0 445 0 378.694 80.5 c 128,-1,24
 312.389 161 312.389 161 332.313 274 c 2,25,-1
 342.541 332 l 2,26,27
 379.569 542 379.569 542 470.082 655.5 c 128,-1,28
 560.596 769 560.596 769 659.853 821.5 c 128,-1,29
 759.109 874 759.109 874 872.109 874 c 0,30,31
 1035.11 874 1035.11 874 1155.36 796 c 0,32,33
 1185.83 776 1185.83 776 1211.6 752 c 1,34,35
 1216.4 870 1216.4 870 1144.57 956 c 0,36,37
 1057.26 1062 1057.26 1062 908.26 1062 c 128,-1,38
 759.26 1062 759.26 1062 635.156 956.5 c 128,-1,39
 511.055 851 511.055 851 484.781 702 c 9,40,-1
 264.781 702 l 17,41,42
 292.642 860 292.642 860 394.269 994 c 128,-1,43
 495.896 1128 495.896 1128 643.65 1206 c 128,-1,44
 791.404 1284 791.404 1284 949.404 1284 c 128,-1,45
 1107.4 1284 1107.4 1284 1227.65 1206 c 128,-1,46
 1347.9 1128 1347.9 1128 1401.53 995.5 c 128,-1,47
 1455.17 863 1455.17 863 1426.78 702 c 2,48,-1
 1303 0 l 1,49,-1
 1082 0 l 9,50,-1
 1133.31 291 l 18,13,14
EndSplineSet
EndChar
StartChar: uni0E26
Encoding: 3622 3622 161
Width: 1504
VWidth: 2045
Flags: HW
HStem: -10 186<267.598 366.398> 354 184<268.898 363.798> 701 220<590 701> 1062 222<546.3 933.7>
VStem: 43 185<219.195 312.795> 370 220<532.995 700.995> 408 183<217.895 312.795> 1101 219<-560 850.986>
Fore
454.903 266 m 0,0,1
 461.251 302 461.251 302 438.835 328 c 0,2,3
 415.42 354 415.42 354 379.42 354 c 0,4,5
 342.42 354 342.42 354 311.835 328 c 128,-1,6
 281.251 302 281.251 302 274.903 266 c 128,-1,7
 268.556 230 268.556 230 289.618 202 c 0,8,9
 310.033 176 310.033 176 348.033 176 c 128,-1,10
 386.033 176 386.033 176 416.618 202 c 0,11,12
 448.379 229 448.379 229 454.903 266 c 0,0,1
1221.26 -560 m 17,13,-1
 1002.26 -560 l 9,14,-1
 1224.43 700 l 2,15,16
 1251.05 851 1251.05 851 1163.66 956.5 c 128,-1,17
 1076.26 1062 1076.26 1062 927.26 1062 c 128,-1,18
 778.26 1062 778.26 1062 654.568 956 c 0,19,20
 634.747 940 634.747 940 617.397 921 c 0,21,-1
 863.397 921 l 1,22,-1
 824.605 701 l 1,23,-1
 713.605 701 l 1,24,-1
 637.551 264 l 2,25,26
 617.625 151 617.625 151 522.343 70 c 0,27,28
 428.236 -10 428.236 -10 315.236 -10 c 128,-1,29
 202.236 -10 202.236 -10 135.931 70.5 c 128,-1,30
 69.625 151 69.625 151 89.5508 264 c 128,-1,31
 109.476 377 109.476 377 204.17 457.5 c 128,-1,32
 298.864 538 298.864 538 411.864 538 c 0,33,34
 439.864 538 439.864 538 463.982 533 c 9,35,-1
 493.605 701 l 1,36,-1
 283.605 701 l 1,37,38
 311.642 860 311.642 860 413.269 994 c 128,-1,39
 514.896 1128 514.896 1128 662.65 1206 c 128,-1,40
 810.404 1284 810.404 1284 968.404 1284 c 128,-1,41
 1126.4 1284 1126.4 1284 1246.65 1206 c 128,-1,42
 1366.9 1128 1366.9 1128 1420.62 996 c 0,43,44
 1474.17 863 1474.17 863 1445.78 702 c 2,45,-1
 1221.26 -560 l 17,13,-1
EndSplineSet
EndChar
StartChar: uni0E27
Encoding: 3623 3623 162
Width: 1258
VWidth: 2045
Flags: HW
HStem: -10 186<757.598 856.398> 354 184<758.898 853.798> 1064 220<435.8 732.2>
VStem: 88 220<788 936.2> 533 185<219.195 312.795> 860 221<532.995 936.199> 898 183<217.895 312.795>
Fore
226.945 788 m 21,0,1
 263.093 993 263.093 993 434.248 1138.5 c 132,-1,2
 605.404 1284 605.404 1284 810.404 1284 c 132,-1,3
 1015.4 1284 1015.4 1284 1135.04 1134.5 c 132,-1,4
 1254.68 985 1254.68 985 1219.95 788 c 6,5,-1
 1127.55 264 l 6,6,7
 1108.86 158 1108.86 158 1012.34 70 c 0,8,9
 925.236 -10 925.236 -10 805.236 -10 c 0,10,11
 692.236 -10 692.236 -10 625.931 70.5 c 128,-1,12
 559.625 151 559.625 151 579.551 264 c 128,-1,13
 599.476 377 599.476 377 694.17 457.5 c 128,-1,14
 788.864 538 788.864 538 901.864 538 c 0,15,16
 929.864 538 929.864 538 953.982 533 c 5,17,-1
 998.945 788 l 6,18,19
 1019.05 902 1019.05 902 952.329 983 c 132,-1,20
 885.612 1064 885.612 1064 771.612 1064 c 132,-1,21
 657.612 1064 657.612 1064 562.329 983 c 132,-1,22
 467.047 902 467.047 902 446.945 788 c 13,23,-1
 226.945 788 l 21,0,1
944.903 266 m 0,24,25
 951.251 302 951.251 302 928.835 328 c 0,26,27
 905.42 354 905.42 354 869.42 354 c 0,28,29
 832.42 354 832.42 354 801.835 328 c 128,-1,30
 771.251 302 771.251 302 764.903 266 c 128,-1,31
 758.555 230 758.555 230 779.618 202 c 0,32,33
 800.033 176 800.033 176 838.033 176 c 128,-1,34
 876.033 176 876.033 176 906.618 202 c 0,35,36
 938.379 229 938.379 229 944.903 266 c 0,24,25
EndSplineSet
EndChar
StartChar: uni0E28
Encoding: 3624 3624 163
Width: 1502
VWidth: 2045
Flags: HW
HStem: 0 21G<141 361 1082 1303> 330 186<670.6 769.4> 694 184<673.2 768.1> 1062 222<527.3 913.586>
VStem: 141 220<452 895.7> 809 185<559.2 652.8> 1082 221<0 780.569> 1160 220<1184.1 1318>
Back
0 1200 m 4,0,1
 182 1200 182 1200 311 1329 c 4,2,3
 440 1458 440 1458 440 1640 c 5,4,-1
 660 1640 l 5,5,6
 660 1461 660 1461 571.5 1309 c 4,7,8
 483 1157 483 1157 331 1068.5 c 4,9,10
 179 980 179 980 0 980 c 4
EndSplineSet
Fore
1142.92 958 m 1,0,1
 1056.26 1062 1056.26 1062 908.26 1062 c 0,2,3
 759.26 1062 759.26 1062 635.156 956.5 c 128,-1,4
 511.055 851 511.055 851 484.781 702 c 2,5,-1
 440.7 452 l 1,6,-1
 602.014 726 l 2,7,8
 620.656 758 620.656 758 666.709 798 c 0,9,10
 761.815 878 761.815 878 874.815 878 c 0,11,12
 1017.82 878 1017.82 878 1142.92 958 c 1,0,1
1318.07 1129 m 1,13,14
 1374.24 1215 1374.24 1215 1392.4 1318 c 1,15,-1
 1612.4 1318 l 1,16,17
 1576.43 1114 1576.43 1114 1421.69 934 c 1,18,19
 1448.82 827 1448.82 827 1426.78 702 c 2,20,-1
 1303 0 l 1,21,-1
 1082 0 l 1,22,-1
 1205.43 700 l 2,23,24
 1211.25 733 1211.25 733 1211.54 763 c 1,25,26
 1177.6 735 1177.6 735 1098.84 708 c 1,27,28
 1110.38 660 1110.38 660 1100.5 604 c 0,29,30
 1080.58 491 1080.58 491 985.882 410.5 c 128,-1,31
 891.188 330 891.188 330 778.188 330 c 128,-1,32
 665.188 330 665.188 330 598.294 410 c 9,33,-1
 361 0 l 17,34,-1
 141 0 l 1,35,-1
 264.781 702 l 2,36,37
 292.642 860 292.642 860 394.269 994 c 128,-1,38
 495.896 1128 495.896 1128 643.65 1206 c 128,-1,39
 791.404 1284 791.404 1284 949.404 1284 c 0,40,41
 1104.4 1284 1104.4 1284 1227.65 1206 c 0,42,43
 1279.83 1173 1279.83 1173 1318.07 1129 c 1,13,14
735.854 606 m 0,44,45
 729.33 569 729.33 569 751.569 542 c 0,46,47
 772.984 516 772.984 516 810.984 516 c 128,-1,48
 848.984 516 848.984 516 878.569 542 c 0,49,50
 909.506 570 909.506 570 915.854 606 c 128,-1,51
 922.202 642 922.202 642 900.786 668 c 128,-1,52
 879.371 694 879.371 694 842.371 694 c 0,53,54
 806.371 694 806.371 694 773.786 668 c 0,55,56
 742.202 642 742.202 642 735.854 606 c 0,44,45
EndSplineSet
EndChar
StartChar: uni0E29
Encoding: 3625 3625 164
Width: 1533
VWidth: 2045
Flags: HW
HStem: 0 214<303 414 634 1114> 386 163<973 1085.14> 726 186<310.6 409.4> 756 134<797.9 892.8> 1090 184<313.05 407.95>
VStem: 86 183<954.05 1048.95> 414 220<214 591.009> 449 185<955.2 1048.8> 1114 219<213 402 809 1254>
Fore
1423.1 511 m 9,0,-1
 1333 0 l 1,1,-1
 303 0 l 1,2,-1
 340.734 214 l 1,3,-1
 451.734 214 l 9,4,-1
 542.895 731 l 1,5,6
 516.014 726 516.014 726 488.014 726 c 0,7,8
 375.014 726 375.014 726 308.708 806.5 c 128,-1,9
 242.402 887 242.402 887 262.327 1000 c 128,-1,10
 282.252 1113 282.252 1113 376.946 1193.5 c 128,-1,11
 471.641 1274 471.641 1274 584.641 1274 c 128,-1,12
 697.641 1274 697.641 1274 764.534 1194 c 0,13,14
 830.075 1112 830.075 1112 810.327 1000 c 2,15,-1
 763.601 735 l 17,16,17
 788.945 788 788.945 788 834.646 826 c 0,18,19
 909.931 890 909.931 890 1003.93 890 c 0,20,21
 1096.93 890 1096.93 890 1153.35 821.5 c 128,-1,22
 1209.77 753 1209.77 753 1188.96 669 c 0,23,24
 1168.33 586 1168.33 586 1109.8 549 c 1,25,26
 1160.45 547 1160.45 547 1212.45 564 c 9,27,-1
 1335.11 1254 l 9,28,-1
 1554.11 1254 l 17,29,-1
 1475.65 809 l 17,30,-1
 1601.9 714 l 1,31,32
 1518.15 585 1518.15 585 1423.1 511 c 9,0,-1
1183.88 402 m 17,33,34
 1113.06 386 1113.06 386 1041.06 386 c 0,35,36
 858.238 387 858.238 387 789.579 474 c 0,37,38
 746.453 530 746.453 530 738.209 591 c 9,39,-1
 671.734 214 l 9,40,-1
 1151.56 213 l 17,41,-1
 1183.88 402 l 17,33,34
873.61 667 m 128,-1,43
 867.263 631 867.263 631 889.09 604.5 c 128,-1,44
 910.917 578 910.917 578 947.917 578 c 0,45,46
 983.917 578 983.917 578 1016.09 604.5 c 128,-1,47
 1048.26 631 1048.26 631 1054.61 667 c 128,-1,48
 1060.96 703 1060.96 703 1038.13 729.5 c 128,-1,49
 1015.3 756 1015.3 756 979.303 756 c 0,50,51
 942.303 756 942.303 756 911.131 729.5 c 128,-1,42
 879.958 703 879.958 703 873.61 667 c 128,-1,43
445.592 1001.5 m 128,-1,53
 439.155 965 439.155 965 460.982 938.5 c 128,-1,54
 482.811 912 482.811 912 520.811 912 c 128,-1,55
 558.811 912 558.811 912 589.071 939 c 128,-1,56
 619.332 966 619.332 966 625.68 1002 c 128,-1,57
 632.027 1038 632.027 1038 610.612 1064 c 128,-1,58
 589.196 1090 589.196 1090 552.696 1090 c 128,-1,59
 516.196 1090 516.196 1090 484.112 1064 c 128,-1,52
 452.027 1038 452.027 1038 445.592 1001.5 c 128,-1,53
EndSplineSet
EndChar
StartChar: uni0E2A
Encoding: 3626 3626 165
Width: 1484
VWidth: 2045
Flags: HW
HStem: 0 186<508.6 607.4> 652 222<571.1 906.9> 1062 222<527.3 914.7>
VStem: 141 220<702 895.7> 284 183<227.899 322.799> 647 185<229.199 322.799> 1082 221<0 445.687> 1158 220<1183.7 1314>
Fore
1140.47 791 m 25,0,-1
 1209.83 742 l 17,1,-1
 1221.88 816 l 25,2,-1
 1140.47 791 l 25,0,-1
515.666 276 m 0,3,4
 509.143 239 509.143 239 531.381 212 c 0,5,6
 552.797 186 552.797 186 590.797 186 c 128,-1,7
 628.797 186 628.797 186 658.381 212 c 0,8,9
 689.318 240 689.318 240 695.666 276 c 128,-1,10
 702.014 312 702.014 312 680.599 338 c 128,-1,11
 659.183 364 659.183 364 622.183 364 c 0,12,13
 586.183 364 586.183 364 553.599 338 c 0,14,15
 522.014 312 522.014 312 515.666 276 c 0,3,4
1422.51 933 m 1,16,17
 1448.65 826 1448.65 826 1426.78 702 c 2,18,-1
 1303 0 l 1,19,-1
 1082 0 l 9,20,-1
 1133.31 291 l 18,21,22
 1160.64 446 1160.64 446 1069.71 548.5 c 128,-1,23
 978.789 651 978.789 651 835.965 652 c 0,24,25
 695.142 653 695.142 653 654.627 548 c 1,26,27
 767.627 548 767.627 548 833.933 467.5 c 128,-1,28
 900.238 387 900.238 387 880.313 274 c 128,-1,29
 860.389 161 860.389 161 765.694 80.5 c 128,-1,30
 671 0 671 0 558 0 c 128,-1,31
 445 0 445 0 378.694 80.5 c 128,-1,32
 312.389 161 312.389 161 332.313 274 c 2,33,-1
 342.541 332 l 2,34,35
 379.569 542 379.569 542 470.082 655.5 c 128,-1,36
 560.596 769 560.596 769 659.853 821.5 c 128,-1,37
 759.109 874 759.109 874 872.109 874 c 0,38,39
 1018.11 874 1018.11 874 1144.75 957 c 1,40,41
 1057.26 1062 1057.26 1062 908.26 1062 c 128,-1,42
 759.26 1062 759.26 1062 635.156 956.5 c 128,-1,43
 511.055 851 511.055 851 484.781 702 c 9,44,-1
 264.781 702 l 17,45,46
 292.642 860 292.642 860 394.269 994 c 128,-1,47
 495.896 1128 495.896 1128 643.65 1206 c 128,-1,48
 791.404 1284 791.404 1284 949.404 1284 c 128,-1,49
 1107.4 1284 1107.4 1284 1227.65 1206 c 0,50,51
 1278.83 1173 1278.83 1173 1318.25 1130 c 1,52,53
 1372.06 1214 1372.06 1214 1389.69 1314 c 1,54,-1
 1609.69 1314 l 1,55,56
 1571.84 1105 1571.84 1105 1422.51 933 c 1,16,17
833.318 654 m 0,57,-1
EndSplineSet
EndChar
StartChar: uni0E2B
Encoding: 3627 3627 166
Width: 1581
VWidth: 2045
Flags: HW
HStem: 0 21G<414 634 1171 1391> 726 186<310.6 409.4> 1090 184<313.05 407.95 1117.2 1212.1>
VStem: 86 183<954.05 1048.95> 414 220<342.8 730.986> 449 185<955.2 1048.8> 890 183<953.9 1048.8> 1171 220<0 634.898> 1253 185<955.2 1048.8>
Fore
1479.3 790 m 1,0,1
 1518.25 716 1518.25 716 1494.33 586 c 10,2,-1
 1391 0 l 1,3,-1
 1171 0 l 1,4,-1
 1269.04 556 l 2,5,6
 1279.79 617 1279.79 617 1211.62 616 c 0,7,8
 1168.44 615 1168.44 615 1129.68 571 c 2,9,-1
 634 0 l 1,10,-1
 414 0 l 9,11,-1
 542.895 731 l 1,12,13
 516.014 726 516.014 726 488.014 726 c 0,14,15
 375.014 726 375.014 726 308.708 806.5 c 128,-1,16
 242.402 887 242.402 887 262.327 1000 c 128,-1,17
 282.252 1113 282.252 1113 376.946 1193.5 c 128,-1,18
 471.641 1274 471.641 1274 584.641 1274 c 128,-1,19
 697.641 1274 697.641 1274 763.946 1193.5 c 128,-1,20
 830.252 1113 830.252 1113 810.327 1000 c 2,21,-1
 694.48 343 l 25,22,-1
 1041.77 753 l 18,23,24
 1072.12 789 1072.12 789 1105.71 815 c 1,25,26
 1047.46 893 1047.46 893 1066.33 1000 c 0,27,28
 1086.25 1113 1086.25 1113 1180.95 1193.5 c 128,-1,29
 1275.64 1274 1275.64 1274 1388.64 1274 c 128,-1,30
 1501.64 1274 1501.64 1274 1567.95 1193.5 c 128,-1,31
 1634.25 1113 1634.25 1113 1614.33 1000 c 0,32,33
 1592.82 878 1592.82 878 1479.3 790 c 1,0,1
1249.68 1002 m 0,34,35
 1243.16 965 1243.16 965 1265.39 938 c 0,36,37
 1286.81 912 1286.81 912 1324.81 912 c 128,-1,38
 1362.81 912 1362.81 912 1392.39 938 c 0,39,40
 1423.33 966 1423.33 966 1429.68 1002 c 128,-1,41
 1436.03 1038 1436.03 1038 1414.61 1064 c 128,-1,42
 1393.2 1090 1393.2 1090 1356.2 1090 c 0,43,44
 1320.2 1090 1320.2 1090 1287.61 1064 c 0,45,46
 1256.03 1038 1256.03 1038 1249.68 1002 c 0,34,35
445.592 1001.5 m 128,-1,48
 439.155 965 439.155 965 460.982 938.5 c 128,-1,49
 482.811 912 482.811 912 520.811 912 c 128,-1,50
 558.811 912 558.811 912 589.071 939 c 128,-1,51
 619.332 966 619.332 966 625.68 1002 c 128,-1,52
 632.027 1038 632.027 1038 610.612 1064 c 128,-1,53
 589.196 1090 589.196 1090 552.696 1090 c 128,-1,54
 516.196 1090 516.196 1090 484.112 1064 c 128,-1,47
 452.027 1038 452.027 1038 445.592 1001.5 c 128,-1,48
1262.15 -192 m 1,55,-1
 1082.15 -192 l 1,56,-1
EndSplineSet
EndChar
StartChar: uni0E2C
Encoding: 3628 3628 167
Width: 1654
VWidth: 2045
Flags: HW
HStem: 0 21G<414 633.998 1250 1470> 726 186<310.6 409.4> 978 186<1111.6 1210.4> 1090 184<313.05 407.95> 1342 184<1114.2 1209.1>
VStem: 86 183<954.05 1048.95> 414 220<432.8 730.986> 449 185<955.2 1048.8> 887 183<1205.9 1300.8> 1250 220<434 992.223>
AnchorPoint: "AboveBase" 1113.58 1389.2 basechar 0
Fore
1639.68 1399 m 9,0,-1
 1748.08 1492 l 1,1,-1
 1876.93 1338 l 1,2,-1
 1675.24 1164 l 1,3,-1
 1470 0 l 1,4,-1
 1250 0 l 1,5,-1
 1056.38 643 l 1,6,-1
 634 0 l 1,7,-1
 414 0 l 9,8,-1
 542.895 731 l 1,9,10
 516.014 726 516.014 726 488.014 726 c 0,11,12
 375.014 726 375.014 726 308.708 806.5 c 128,-1,13
 242.402 887 242.402 887 262.327 1000 c 128,-1,14
 282.252 1113 282.252 1113 376.946 1193.5 c 128,-1,15
 471.641 1274 471.641 1274 584.641 1274 c 128,-1,16
 697.641 1274 697.641 1274 763.946 1193.5 c 128,-1,17
 830.252 1113 830.252 1113 810.327 1000 c 2,18,-1
 710.35 433 l 17,19,-1
 1055.74 974 l 1,20,-1
 1171.74 974 l 1,21,-1
 1326.53 434 l 1,22,-1
 1424.92 992 l 17,23,24
 1380.45 978 1380.45 978 1333.45 978 c 0,25,26
 1220.45 978 1220.45 978 1154.14 1058.5 c 128,-1,27
 1087.84 1139 1087.84 1139 1107.76 1252 c 128,-1,28
 1127.69 1365 1127.69 1365 1222.38 1445.5 c 128,-1,29
 1317.08 1526 1317.08 1526 1430.08 1526 c 128,-1,30
 1543.08 1526 1543.08 1526 1608.97 1446 c 0,31,32
 1627.91 1423 1627.91 1423 1639.68 1399 c 9,0,-1
1291.11 1254 m 0,33,34
 1284.59 1217 1284.59 1217 1306.83 1190 c 0,35,36
 1328.24 1164 1328.24 1164 1366.24 1164 c 128,-1,37
 1404.24 1164 1404.24 1164 1433.83 1190 c 0,38,39
 1464.77 1218 1464.77 1218 1471.11 1254 c 128,-1,40
 1477.46 1290 1477.46 1290 1456.05 1316 c 128,-1,41
 1434.63 1342 1434.63 1342 1397.63 1342 c 0,42,43
 1361.63 1342 1361.63 1342 1329.05 1316 c 0,44,45
 1297.46 1290 1297.46 1290 1291.11 1254 c 0,33,34
445.592 1001.5 m 128,-1,47
 439.155 965 439.155 965 460.982 938.5 c 128,-1,48
 482.811 912 482.811 912 520.811 912 c 128,-1,49
 558.811 912 558.811 912 589.071 939 c 128,-1,50
 619.332 966 619.332 966 625.68 1002 c 128,-1,51
 632.027 1038 632.027 1038 610.612 1064 c 128,-1,52
 589.196 1090 589.196 1090 552.696 1090 c 128,-1,53
 516.196 1090 516.196 1090 484.112 1064 c 128,-1,46
 452.027 1038 452.027 1038 445.592 1001.5 c 128,-1,47
EndSplineSet
EndChar
StartChar: uni0E2D
Encoding: 3629 3629 168
Width: 1489
VWidth: 2045
Flags: HW
HStem: 0 213<606 1082> 336 186<610.6 709.4> 700 184<612.05 706.95> 1062 222<527.3 914.7>
VStem: 141 220<702 895.7> 386 220<213 340.986> 386 185<565.2 658.8> 751 183<564.05 658.95> 1082 221<213 896.3>
Fore
264.781 702 m 17,0,1
 292.642 860 292.642 860 394.269 994 c 128,-1,2
 495.896 1128 495.896 1128 643.65 1206 c 128,-1,3
 791.404 1284 791.404 1284 949.404 1284 c 128,-1,4
 1107.4 1284 1107.4 1284 1227.65 1206 c 128,-1,5
 1347.9 1128 1347.9 1128 1401.53 995.5 c 128,-1,6
 1455.17 863 1455.17 863 1426.78 702 c 2,7,-1
 1303 0 l 1,8,-1
 386 0 l 25,9,-1
 493.56 610 l 2,10,11
 513.309 722 513.309 722 607.767 804 c 0,12,13
 702.873 884 702.873 884 815.873 884 c 128,-1,14
 928.873 884 928.873 884 995.179 803.5 c 128,-1,15
 1061.48 723 1061.48 723 1041.56 610 c 128,-1,16
 1021.63 497 1021.63 497 926.94 416.5 c 128,-1,17
 832.246 336 832.246 336 719.246 336 c 0,18,19
 691.246 336 691.246 336 666.128 341 c 1,20,-1
 643.558 213 l 9,21,-1
 1119.56 213 l 17,22,-1
 1205.43 700 l 2,23,24
 1232.05 851 1232.05 851 1144.66 956.5 c 128,-1,25
 1057.26 1062 1057.26 1062 908.26 1062 c 128,-1,26
 759.26 1062 759.26 1062 635.156 956.5 c 128,-1,27
 511.055 851 511.055 851 484.781 702 c 9,28,-1
 264.781 702 l 17,0,1
858.824 611.5 m 128,-1,30
 865.26 648 865.26 648 842.345 674 c 128,-1,31
 819.429 700 819.429 700 782.929 700 c 128,-1,32
 746.429 700 746.429 700 715.845 674 c 128,-1,33
 685.26 648 685.26 648 678.912 612 c 128,-1,34
 672.564 576 672.564 576 693.304 549 c 128,-1,35
 714.043 522 714.043 522 752.043 522 c 128,-1,36
 790.043 522 790.043 522 821.215 548.5 c 128,-1,29
 852.388 575 852.388 575 858.824 611.5 c 128,-1,30
EndSplineSet
EndChar
StartChar: uni0E2E
Encoding: 3630 3630 169
Width: 1298
VWidth: 2045
Flags: HW
HStem: 0 213<350 856> 236 186<350.6 449.4> 600 184<352.05 446.95> 800 180<323.8 674.827> 1090 195<319.3 691.4>
VStem: 114 253<971.777 1104.4> 130 181<465.2 558.8> 491 187<464.05 558.95> 856 221<213 841.461>
Fore
986.658 741 m 2,0,1
 1000.24 818 1000.24 818 985.815 878 c 1,2,3
 827.885 799 827.885 799 647.062 800 c 0,4,5
 458.062 800 458.062 800 369.052 868 c 128,-1,6
 280.042 936 280.042 936 294.735 1025 c 0,7,8
 312.603 1132 312.603 1132 442.768 1209.5 c 128,-1,9
 572.933 1287 572.933 1287 764.58 1285 c 0,10,11
 882.404 1284 882.404 1284 972.351 1244 c 128,-1,12
 1062.3 1204 1062.3 1204 1102.3 1153 c 1,13,14
 1172.65 1223 1172.65 1223 1192.99 1276 c 1,15,-1
 1368.77 1184 l 1,16,17
 1302.38 1074 1302.38 1074 1202.04 987 c 1,18,19
 1231.46 876 1231.46 876 1208.01 743 c 2,20,-1
 1077 0 l 1,21,-1
 130 0 l 25,22,-1
 219.927 510 l 2,23,24
 239.676 622 239.676 622 334.134 704 c 0,25,26
 429.24 784 429.24 784 542.24 784 c 128,-1,27
 655.24 784 655.24 784 721.546 703.5 c 128,-1,28
 787.852 623 787.852 623 767.927 510 c 128,-1,29
 748.002 397 748.002 397 653.308 316.5 c 128,-1,30
 558.613 236 558.613 236 445.613 236 c 0,31,32
 417.613 236 417.613 236 392.495 241 c 1,33,-1
 387.558 213 l 9,34,-1
 893.558 213 l 17,35,-1
 986.658 741 l 2,0,1
581.191 511.5 m 128,-1,37
 587.627 548 587.627 548 564.712 574 c 128,-1,38
 541.796 600 541.796 600 505.296 600 c 128,-1,39
 468.796 600 468.796 600 438.212 574 c 128,-1,40
 407.627 548 407.627 548 401.279 512 c 128,-1,41
 394.932 476 394.932 476 415.671 449 c 128,-1,42
 436.41 422 436.41 422 474.41 422 c 128,-1,43
 512.41 422 512.41 422 543.583 448.5 c 128,-1,36
 574.755 475 574.755 475 581.191 511.5 c 128,-1,37
902.677 1019 m 1,44,45
 853.726 1093 853.726 1093 718.196 1090 c 0,46,47
 558.667 1087 558.667 1087 548.44 1029 c 0,48,49
 540.682 985 540.682 985 683.801 980 c 0,50,51
 808.919 975 808.919 975 902.677 1019 c 1,44,45
EndSplineSet
EndChar
StartChar: uni0E2F
Encoding: 3631 3631 170
Width: 1295
VWidth: 2045
Flags: HW
HStem: 0 21G<919 1139> 637 255<306.6 444> 1070 184<309.2 404.1>
VStem: 82 183<933.9 1028.8> 445 185<935.2 1028.8> 919 220<0 813 1029.59 1254>
Fore
438.153 982 m 4,0,1
 431.629 945 431.629 945 453.868 918 c 4,2,3
 475.283 892 475.283 892 513.283 892 c 132,-1,4
 551.283 892 551.283 892 580.868 918 c 4,5,6
 611.806 946 611.806 946 618.153 982 c 132,-1,7
 624.501 1018 624.501 1018 603.085 1044 c 132,-1,8
 581.67 1070 581.67 1070 544.67 1070 c 4,9,10
 508.67 1070 508.67 1070 476.085 1044 c 4,11,12
 444.501 1018 444.501 1018 438.153 982 c 4,0,1
760.463 876 m 5,13,14
 871.46 893 871.46 893 990.535 987 c 132,-1,15
 1109.61 1081 1109.61 1081 1140.11 1254 c 5,16,-1
 1360.11 1254 l 5,17,-1
 1139 0 l 5,18,-1
 919 0 l 5,19,-1
 1062.35 813 l 5,20,21
 948.603 718 948.603 718 832.373 677 c 132,-1,22
 716.144 636 716.144 636 556.32 637 c 132,-1,23
 396.497 638 396.497 638 314.805 747.5 c 156,-1,24
 233.112 857 233.112 857 254.801 980 c 4,25,26
 274.726 1093 274.726 1093 369.42 1173.5 c 132,-1,27
 464.114 1254 464.114 1254 577.114 1254 c 132,-1,28
 690.114 1254 690.114 1254 756.42 1173.5 c 132,-1,29
 822.726 1093 822.726 1093 802.801 980 c 4,30,31
 793.279 926 793.279 926 760.463 876 c 5,13,14
EndSplineSet
EndChar
StartChar: uni0E30
Encoding: 3632 3632 171
Width: 1158
VWidth: 2045
Flags: HW
HStem: 45 193<272.6 448> 417 133<272.6 370.1> 665 193<271.3 448> 1036 133<272.6 368.8>
VStem: 99 133<277.6 376.4 897.9 995.4>
Fore
1126.27 994 m 5,0,1
 1003.77 804 1003.77 804 860.424 734 c 0,2,3
 716.081 664 716.081 664 565.258 665 c 0,4,5
 383.61 667 383.61 667 315.95 754 c 0,6,7
 247.291 841 247.291 841 264.924 941 c 0,8,9
 282.38 1040 282.38 1040 358.842 1105 c 0,10,11
 434.126 1169 434.126 1169 528.126 1169 c 0,12,13
 621.126 1169 621.126 1169 677.136 1101 c 0,14,15
 734.322 1034 734.322 1034 714.334 949 c 0,16,17
 693.522 865 693.522 865 634.999 828 c 1,18,19
 726.117 823 726.117 823 816.815 878 c 0,20,21
 908.337 932 908.337 932 1002.02 1089 c 1,22,-1
 1126.27 994 l 5,0,1
398.806 946 m 4,23,24
 392.281 909 392.281 909 413.873 884 c 0,25,26
 434.288 858 434.288 858 473.288 858 c 0,27,28
 511.288 858 511.288 858 541.873 884 c 128,-1,29
 572.457 910 572.457 910 578.806 946 c 128,-1,30
 585.153 982 585.153 982 564.09 1010 c 0,31,32
 540.675 1036 540.675 1036 504.675 1036 c 0,33,34
 466.675 1036 466.675 1036 436.09 1010 c 128,-1,35
 405.506 984 405.506 984 398.806 946 c 4,23,24
1017.12 375 m 1,36,37
 894.62 185 894.62 185 751.277 115 c 0,38,39
 607.582 43 607.582 43 455.935 45 c 0,40,41
 275.111 46 275.111 46 206.628 134 c 128,-1,42
 138.145 222 138.145 222 155.777 322 c 0,43,44
 173.233 421 173.233 421 249.695 486 c 0,45,46
 326.979 550 326.979 550 418.979 550 c 0,47,48
 511.979 550 511.979 550 567.989 482 c 0,49,50
 625.176 415 625.176 415 605.188 330 c 0,51,52
 584.553 247 584.553 247 525.676 208 c 1,53,54
 614.971 204 614.971 204 707.492 258 c 0,55,56
 799.19 313 799.19 313 892.874 470 c 1,57,-1
 1017.12 375 l 1,36,37
289.659 327 m 128,-1,59
 282.959 289 282.959 289 304.551 264 c 0,60,61
 325.966 238 325.966 238 363.966 238 c 0,62,63
 399.966 238 399.966 238 432.551 264 c 0,64,65
 463.135 290 463.135 290 469.659 327 c 128,-1,66
 476.183 364 476.183 364 454.768 390 c 0,67,68
 432.528 417 432.528 417 395.528 417 c 0,69,70
 357.528 417 357.528 417 326.768 390 c 0,71,58
 296.359 365 296.359 365 289.659 327 c 128,-1,59
EndSplineSet
EndChar
StartChar: uni0E31
Encoding: 3633 3633 172
Width: 0
VWidth: 2045
Flags: HW
HStem: 1414 163<-463 -234.8> 1785 133<-639.4 -540.6>
VStem: -813 133<1648.2 1741.8>
AnchorPoint: "AboveMark" 3.85352 1986.39 basemark 0
AnchorPoint: "AboveBase" -35.7197 1374.68 mark 0
Fore
446.338 1743 m 1,0,1
 345.239 1612 345.239 1612 184.606 1512 c 0,2,3
 25.9736 1412 25.9736 1412 -213.674 1414 c 0,4,5
 -392.321 1416 -392.321 1416 -461.628 1505 c 0,6,7
 -531.582 1596 -531.582 1596 -515.008 1690 c 0,8,9
 -497.551 1789 -497.551 1789 -421.09 1854 c 0,10,11
 -345.805 1918 -345.805 1918 -251.805 1918 c 128,-1,12
 -157.805 1918 -157.805 1918 -101.795 1850 c 128,-1,13
 -45.7852 1782 -45.7852 1782 -65.5967 1698 c 0,14,15
 -86.4082 1614 -86.4082 1614 -143.933 1577 c 1,16,17
 -0.814453 1572 -0.814453 1572 114.234 1646 c 0,18,19
 225.577 1716 225.577 1716 321.089 1838 c 1,20,-1
 446.338 1743 l 1,0,1
-381.126 1695 m 128,-1,22
 -387.474 1659 -387.474 1659 -366.058 1633 c 128,-1,23
 -344.643 1607 -344.643 1607 -306.643 1607 c 128,-1,24
 -268.643 1607 -268.643 1607 -238.058 1633 c 128,-1,25
 -207.474 1659 -207.474 1659 -201.126 1695 c 128,-1,26
 -194.778 1731 -194.778 1731 -215.841 1759 c 0,27,28
 -237.256 1785 -237.256 1785 -275.256 1785 c 128,-1,29
 -313.256 1785 -313.256 1785 -343.841 1759 c 0,30,21
 -374.778 1731 -374.778 1731 -381.126 1695 c 128,-1,22
EndSplineSet
EndChar
StartChar: uni0E32
Encoding: 3634 3634 173
Width: 1169
VWidth: 2045
Flags: HW
HStem: 0 21G<860 1080> 1064 220<435.545 734.157>
VStem: 88 220<788 936.2> 860 220<0 901.939>
Fore
1080 0 m 13,0,-1
 1219.95 788 l 6,1,2
 1254.51 984 1254.51 984 1134.96 1134 c 132,-1,3
 1015.4 1284 1015.4 1284 810.404 1284 c 132,-1,4
 605.404 1284 605.404 1284 434.248 1138.5 c 132,-1,5
 263.093 993 263.093 993 226.945 788 c 13,6,-1
 446.945 788 l 21,7,8
 467.047 902 467.047 902 562.329 983 c 132,-1,9
 657.612 1064 657.612 1064 772.612 1064 c 132,-1,10
 887.612 1064 887.612 1064 953.329 983 c 132,-1,11
 1019.05 902 1019.05 902 998.945 788 c 6,12,-1
 860 0 l 5,13,-1
 1080 0 l 13,0,-1
EndSplineSet
EndChar
StartChar: uni0E34
Encoding: 3636 3636 175
Width: 0
VWidth: 2045
Flags: HW
HStem: 1683 174<-770.356 -590.7>
AnchorPoint: "AboveMark" 18.0801 1833.74 basemark 0
AnchorPoint: "AboveBase" 65.4688 1296.25 mark 0
Fore
-658.111 1593 m 9,0,-1
 -152.751 1544 l 1,1,2
 -185.524 1602 -185.524 1602 -253.647 1641 c 128,-1,3
 -321.771 1680 -321.771 1680 -412.242 1683 c 0,4,5
 -453.242 1683 -453.242 1683 -540.003 1656 c 0,6,7
 -626.587 1630 -626.587 1630 -658.111 1593 c 9,0,-1
-970.857 1464 m 17,8,9
 -880.297 1660 -880.297 1660 -713.018 1758 c 0,10,11
 -544.385 1858 -544.385 1858 -381.561 1857 c 0,12,13
 -182.09 1854 -182.09 1854 -47.3652 1722 c 0,14,15
 84.3604 1590 84.3604 1590 69.6865 1365 c 1,16,-1
 -970.857 1464 l 17,8,9
EndSplineSet
EndChar
StartChar: uni0E35
Encoding: 3637 3637 176
Width: 0
VWidth: 2045
Flags: HW
HStem: 1683 174<-770.356 -590.7>
VStem: -328 157<1701 2000>
AnchorPoint: "AboveBase" 70.4414 1298.51 mark 0
AnchorPoint: "AboveMark" 120.375 2048.77 basemark 0
Fore
-28.0674 1701 m 9,0,-1
 24.6543 2000 l 1,1,-1
 181.654 2000 l 1,2,-1
 69.6865 1365 l 1,3,-1
 -970.857 1464 l 1,4,5
 -880.297 1660 -880.297 1660 -713.018 1758 c 0,6,7
 -544.385 1858 -544.385 1858 -381.561 1857 c 0,8,9
 -183.09 1854 -183.09 1854 -28.0674 1701 c 9,0,-1
-658.111 1593 m 9,10,-1
 -152.751 1544 l 1,11,12
 -185.524 1602 -185.524 1602 -253.647 1641 c 128,-1,13
 -321.771 1680 -321.771 1680 -412.242 1683 c 0,14,15
 -453.242 1683 -453.242 1683 -540.003 1656 c 0,16,17
 -626.587 1630 -626.587 1630 -658.111 1593 c 9,10,-1
EndSplineSet
EndChar
